<?xml version="1.0" standalone="no"?>
<!DOCTYPE svg PUBLIC "-//W3C//DTD SVG 20010904//EN"
 "http://www.w3.org/TR/2001/REC-SVG-20010904/DTD/svg10.dtd">
<svg version="1.0" xmlns="http://www.w3.org/2000/svg"
 width="611.000000pt" height="611.000000pt" viewBox="0 0 611.000000 611.000000"
 preserveAspectRatio="xMidYMid meet">
<metadata>
Created by potrace 1.11, written by Peter Selinger 2001-2013
</metadata>
<g transform="translate(0.000000,611.000000) scale(0.100000,-0.100000)"
fill="#000000" stroke="none">
<path d="M1678 6084 c-3 -2 -24 -5 -47 -6 -23 -1 -44 -5 -47 -10 -3 -4 -9 -6
-14 -3 -5 3 -28 1 -52 -5 -24 -6 -56 -13 -73 -16 -16 -3 -38 -10 -48 -15 -9
-6 -22 -7 -27 -4 -6 3 -10 1 -10 -6 0 -7 -3 -10 -6 -6 -4 3 -19 0 -35 -9 -16
-8 -31 -14 -34 -14 -16 1 -189 -82 -193 -92 -2 -5 -10 -8 -18 -8 -8 0 -14 -4
-14 -9 0 -5 -8 -11 -17 -15 -18 -6 -47 -23 -69 -41 -7 -5 -27 -21 -44 -35 -98
-79 -237 -232 -310 -340 -8 -12 -21 -29 -28 -36 -7 -8 -11 -14 -7 -14 3 0 -10
-24 -30 -52 -19 -29 -35 -58 -35 -65 0 -6 -3 -13 -7 -15 -7 -2 -42 -69 -48
-88 -1 -3 -11 -25 -23 -50 -12 -25 -22 -51 -22 -57 0 -7 -5 -13 -10 -13 -6 0
-9 -3 -8 -7 1 -8 -4 -25 -22 -68 -11 -26 -23 -58 -25 -67 -2 -5 -4 -10 -5 -13
-1 -3 -4 -9 -5 -15 -1 -5 -4 -13 -5 -17 -1 -5 -2 -11 -1 -15 0 -5 -3 -8 -7 -8
-7 0 -12 -19 -15 -62 -1 -10 -4 -18 -8 -18 -5 0 -15 -33 -19 -65 -1 -3 -7 -23
-15 -45 -8 -22 -12 -40 -10 -40 2 0 -3 -19 -11 -42 -8 -23 -12 -48 -10 -55 3
-7 1 -13 -4 -13 -6 0 -9 -3 -8 -7 1 -5 -2 -24 -7 -43 -5 -19 -10 -43 -11 -52
-1 -10 -2 -19 -4 -20 -2 -3 -8 -36 -14 -83 -3 -16 -8 -41 -11 -55 -3 -14 -7
-39 -9 -56 -1 -16 -5 -34 -8 -40 -2 -5 -4 -24 -3 -41 0 -18 -2 -33 -6 -33 -3
0 -5 -16 -4 -35 1 -19 -1 -35 -5 -35 -3 0 -6 -12 -7 -27 0 -16 -4 -62 -8 -103
-4 -41 -8 -88 -10 -105 -2 -16 -4 -30 -5 -30 -1 0 -3 -27 -5 -60 -2 -33 -6
-105 -10 -160 -4 -55 -8 -116 -9 -135 -1 -19 3 -41 8 -49 8 -11 8 -13 -1 -8
-17 11 -19 -669 -1 -691 11 -13 11 -14 0 -8 -9 6 -12 1 -10 -18 2 -14 7 -28
11 -32 4 -4 2 -13 -4 -20 -6 -7 -8 -18 -4 -24 4 -6 9 -55 11 -108 5 -104 10
-180 19 -252 3 -25 7 -65 10 -90 2 -25 7 -67 11 -95 3 -27 8 -61 9 -75 2 -14
4 -26 5 -27 1 -2 3 -11 4 -20 3 -24 15 -104 23 -139 3 -16 6 -39 6 -51 1 -13
5 -23 11 -23 5 0 7 -2 4 -6 -3 -3 3 -42 13 -87 11 -45 22 -95 25 -110 3 -16
12 -46 19 -68 8 -21 12 -39 8 -39 -3 0 0 -7 7 -15 7 -8 10 -15 6 -15 -3 0 -1
-12 5 -28 6 -15 12 -34 14 -42 4 -17 42 -126 55 -155 5 -11 21 -49 36 -85 39
-96 101 -216 150 -293 24 -37 44 -72 44 -76 0 -5 3 -11 8 -13 4 -2 20 -21 37
-43 16 -22 39 -51 50 -65 25 -30 174 -179 204 -203 44 -36 139 -97 150 -97 6
0 11 -4 11 -9 0 -17 315 -150 327 -138 3 4 22 -1 42 -9 36 -16 44 -18 136 -29
28 -3 64 -9 82 -14 43 -12 498 -4 498 9 0 1 14 3 30 5 51 5 196 33 285 55 47
11 92 22 100 23 8 2 35 9 60 16 25 7 45 12 45 11 0 -1 14 4 30 10 17 7 37 13
45 15 41 10 227 78 239 88 12 10 13 9 6 -2 -6 -11 -2 -10 16 2 13 9 31 17 41
17 10 0 18 5 18 11 0 6 7 9 15 5 8 -3 15 -1 15 4 0 6 3 9 8 8 9 -2 22 3 167
68 22 9 42 18 45 19 32 8 50 18 50 26 0 5 8 9 17 9 19 0 146 60 151 71 2 4 10
5 18 2 8 -3 14 0 14 6 0 6 3 10 8 9 7 -2 63 26 232 115 52 28 105 55 117 61
13 6 23 14 23 18 0 3 14 9 30 13 17 4 30 11 30 16 0 5 4 9 9 9 6 0 38 17 73
37 35 21 66 36 71 35 4 -1 7 1 7 6 0 4 17 16 38 27 20 11 70 41 111 67 41 27
81 48 89 48 7 0 10 4 7 10 -3 5 -1 10 5 10 15 0 331 208 348 228 6 9 12 12 12
6 0 -5 4 -4 8 1 4 6 32 28 62 50 30 22 57 43 58 47 2 5 10 8 17 8 7 0 15 3 17
8 2 4 37 34 78 67 41 32 80 64 86 70 6 5 30 26 54 45 118 95 341 318 426 426
16 20 44 53 61 73 18 20 33 42 33 49 0 6 4 12 8 12 9 0 111 151 108 160 0 3 9
16 21 29 12 13 20 27 18 31 -3 4 2 13 10 20 8 7 12 16 9 21 -3 5 -1 9 3 9 5 0
14 9 21 21 11 17 11 20 0 13 -7 -4 -5 2 5 13 9 11 17 26 17 34 0 8 5 20 12 27
6 6 13 17 14 24 1 7 14 41 27 76 14 34 23 62 20 62 -3 0 0 7 7 15 7 8 10 15 6
15 -3 0 -1 11 4 25 13 34 21 74 23 108 0 15 4 27 7 27 9 0 10 6 14 195 3 93 2
174 -2 179 -3 6 -7 24 -8 41 -1 16 -2 30 -4 30 -1 0 -4 14 -5 30 -2 17 -11 55
-19 85 -9 30 -18 64 -21 75 -13 55 -104 266 -120 277 -5 4 -6 8 -2 8 5 0 -1
13 -12 29 -12 16 -21 34 -21 40 0 6 -5 11 -11 11 -5 0 -8 4 -5 9 4 5 3 11 -2
13 -4 1 -27 34 -51 73 -25 38 -50 76 -58 83 -7 7 -13 17 -13 20 0 4 -10 18
-23 32 -12 14 -33 40 -46 58 -13 19 -33 44 -45 56 -11 12 -39 42 -60 67 -68
77 -125 137 -128 135 -2 -1 -13 8 -25 21 -12 13 -20 23 -18 23 3 0 -14 17 -37
38 -24 20 -47 42 -53 48 -12 13 -165 146 -180 156 -5 4 -22 18 -37 30 -46 40
-61 51 -163 128 -55 41 -101 78 -103 83 -2 4 -10 7 -17 7 -7 0 -15 4 -17 8 -1
5 -59 47 -128 93 -69 46 -129 88 -135 92 -5 4 -35 23 -65 42 -30 19 -62 40
-70 45 -17 12 -65 41 -157 94 -34 20 -65 41 -68 46 -4 6 -11 8 -16 5 -5 -4 -9
-1 -9 4 0 6 -7 11 -15 11 -8 0 -15 5 -15 10 0 6 -5 10 -11 10 -6 0 -41 18 -77
39 -83 49 -180 102 -252 138 -30 16 -57 31 -60 34 -3 3 -32 18 -65 34 -33 15
-68 35 -79 44 -10 9 -21 15 -25 15 -9 -2 -53 14 -71 26 -17 10 -99 50 -115 55
-45 13 -55 18 -55 26 0 5 -3 8 -7 7 -9 -1 -29 6 -198 77 -25 11 -64 25 -85 30
-3 1 -22 9 -42 18 -21 10 -45 18 -55 20 -10 1 -22 5 -28 8 -15 9 -69 23 -79
20 -5 -1 -12 2 -15 8 -4 5 -18 12 -31 15 -14 2 -47 11 -74 20 -27 8 -53 13
-58 10 -4 -3 -8 -1 -8 4 0 9 -47 22 -82 23 -10 0 -18 3 -18 7 0 4 -8 8 -17 9
-16 0 -86 12 -168 29 -16 3 -47 6 -67 7 -21 0 -38 3 -38 7 0 3 -12 7 -27 9
-61 4 -441 9 -445 5z"/>
</g>
</svg>
