<svg width="646" height="539" viewBox="0 0 646 539" fill="none" xmlns="http://www.w3.org/2000/svg">
<path fill-rule="evenodd" clip-rule="evenodd" d="M212.928 83.3272C212.928 83.3272 235.552 80.0393 241.532 103.99C263.455 111.972 257.476 135.92 257.476 135.92C257.476 135.92 268.488 154.733 246.614 164.373C244.864 183.646 222.99 180.144 222.99 180.144C222.99 180.144 217.741 195.038 201.115 188.904C183.177 202.874 149.374 200.071 137.373 182.992C113.573 200.783 72.161 179.067 77.357 162.827C49.561 161.141 36.086 131.622 52.37 106.546C39.861 86.7113 54.122 75.0042 54.122 75.0042C54.122 75.0042 50.186 29.4442 81.685 23.3102C97.869 -1.22276 132.869 18.4912 132.869 18.4912C132.869 18.4912 156.054 13.6733 164.368 33.8253C190.277 37.8143 189.06 52.0772 191.054 64.0522C214.239 65.3672 212.928 83.3272 212.928 83.3272Z" fill="#253368"/>
<path fill-rule="evenodd" clip-rule="evenodd" d="M204.68 299.845L206.241 299.281C217.752 295.134 223.725 282.427 219.581 270.903L180.146 161.195C176.004 149.668 163.317 143.689 151.806 147.836L150.243 148.4C138.734 152.548 132.763 165.254 136.907 176.779L176.34 286.487C180.482 298.014 193.171 303.995 204.68 299.845Z" fill="#FFC999"/>
<path fill-rule="evenodd" clip-rule="evenodd" d="M153.534 222.759L136.468 175.279C132.354 163.834 138.717 150.963 150.609 146.676C162.501 142.389 175.597 148.248 179.711 159.693L196.615 206.723L153.534 222.759Z" fill="#5736FF"/>
<path d="M136.457 175.283C136.335 174.944 135.961 174.768 135.622 174.89C135.321 174.999 135.149 175.306 135.2 175.612L135.23 175.726L152.298 223.206C152.407 223.51 152.718 223.682 153.025 223.628L153.139 223.597L196.217 207.56C196.555 207.434 196.727 207.058 196.601 206.72C196.49 206.42 196.181 206.25 195.876 206.305L195.763 206.336L153.303 222.142L136.457 175.283Z" fill="#4E5C93"/>
<path fill-rule="evenodd" clip-rule="evenodd" d="M162.808 363.285C180.136 363.692 193.729 378.307 192.91 395.644L184.096 582.042C183.419 596.4 171.422 607.59 157.073 607.253C142.724 606.914 131.267 595.171 131.264 580.798L131.217 394.19C131.213 376.834 145.478 362.877 162.808 363.285Z" fill="#FFC999"/>
<path fill-rule="evenodd" clip-rule="evenodd" d="M90.301 369.402C73.102 367.27 57.517 379.737 55.8 397.009L37.309 582.693C35.885 596.995 46.118 609.821 60.364 611.588C74.607 613.353 87.656 603.413 89.757 589.195L117.041 404.6C119.579 387.429 107.502 371.534 90.301 369.402Z" fill="#FFC999"/>
<path fill-rule="evenodd" clip-rule="evenodd" d="M141.036 61.0812C122.871 64.2742 117.346 50.5082 117.346 50.5082C117.346 50.5082 109.853 31.1222 107.932 43.0242C106.912 49.3482 97.147 40.9542 92.656 47.6992C89.636 52.2372 97.187 58.0852 87.37 70.1842C81.684 77.1932 104.122 82.7862 90.278 95.7062C90.278 95.7062 100.121 111.477 83.215 116.62L81.423 135.112C80.382 145.875 88.837 155.189 99.635 155.172C109.932 155.157 118.179 146.628 117.867 136.324L117.181 113.776C143.431 113.776 144.714 77.6522 141.036 61.0812Z" fill="#FFC999"/>
<path d="M109.167 80.3392C108.727 79.8982 108.014 79.8982 107.574 80.3392C107.134 80.7792 107.134 81.4942 107.574 81.9342C108.163 82.5242 109.23 83.3682 110.731 84.2042C113.691 85.8522 117.086 86.7102 120.824 86.3472C121.443 86.2872 121.896 85.7352 121.836 85.1152C121.776 84.4952 121.225 84.0412 120.606 84.1012C117.36 84.4162 114.41 83.6722 111.826 82.2322C111.064 81.8082 110.393 81.3542 109.822 80.9022L109.407 80.5592C109.297 80.4642 109.217 80.3892 109.167 80.3392Z" fill="#F5222D"/>
<path d="M122.654 63.0752V62.9252C122.621 62.5642 122.36 62.2632 122.008 62.1792L121.872 62.1582C121.453 62.1282 121.084 62.4102 120.99 62.8062L120.967 62.9782L120.966 63.0152C120.937 63.8162 121.081 65.0382 121.54 66.6272C122.154 68.7532 123.217 71.0782 124.821 73.5692L125.099 73.9932L124.654 74.2692C123.114 75.2172 121.759 76.0112 120.585 76.6652L119.545 77.2322C119.26 77.3842 119.004 77.5162 118.778 77.6312L118.344 77.8442C117.921 78.0402 117.736 78.5432 117.931 78.9672C118.127 79.3912 118.629 79.5762 119.052 79.3802L119.405 79.2092L120.051 78.8782C120.326 78.7332 120.631 78.5702 120.964 78.3872L121.861 77.8882C123.257 77.1002 124.882 76.1312 126.741 74.9632C127.15 74.7062 127.262 74.1582 126.985 73.7622C125.046 70.9802 123.82 68.4302 123.163 66.1572C122.755 64.7432 122.632 63.7012 122.654 63.0752Z" fill="#DD936F"/>
<path d="M97.3319 61.9532C96.7119 61.9532 96.21 62.4563 96.21 63.0763C96.21 67.3903 99.455 70.9232 103.506 70.9232C107.556 70.9232 110.799 67.3903 110.799 63.0763C110.799 62.4563 110.297 61.9532 109.678 61.9532C109.059 61.9532 108.557 62.4563 108.557 63.0763C108.557 66.1903 106.274 68.6783 103.506 68.6783C100.737 68.6783 98.4529 66.1903 98.4529 63.0763C98.4529 62.4563 97.9509 61.9532 97.3319 61.9532Z" fill="#253368"/>
<path d="M126.856 62.7252C126.268 62.7252 125.792 63.2022 125.792 63.7902C125.792 68.0522 128.705 71.5802 132.409 71.5802C136.114 71.5802 139.028 68.0532 139.028 63.7902C139.028 63.2022 138.551 62.7252 137.964 62.7252C137.377 62.7252 136.901 63.2022 136.901 63.7902C136.901 66.9562 134.841 69.4502 132.409 69.4502C129.979 69.4502 127.919 66.9562 127.919 63.7902C127.919 63.2022 127.443 62.7252 126.856 62.7252Z" fill="#253368"/>
<path d="M110.107 49.6112C105.821 48.2332 101.286 48.0522 97.0041 49.8632C96.2201 50.1942 95.4561 50.5912 94.7141 51.0542C94.1891 51.3832 94.0291 52.0752 94.3571 52.6012C94.6851 53.1272 95.3771 53.2872 95.9021 52.9592C96.5421 52.5582 97.2011 52.2172 97.8761 51.9312C101.591 50.3602 105.601 50.5202 109.421 51.7492C110.063 51.9552 110.643 52.1762 111.148 52.3962L111.575 52.5902C111.646 52.6242 111.7 52.6522 111.738 52.6712C112.286 52.9612 112.964 52.7512 113.253 52.2022C113.542 51.6542 113.332 50.9752 112.784 50.6862L112.422 50.5052C111.877 50.2472 111.092 49.9282 110.107 49.6112Z" fill="#253368"/>
<path d="M101.503 108.956C101.093 108.733 100.58 108.884 100.357 109.295C100.134 109.705 100.286 110.219 100.696 110.442C106.024 113.345 111.572 114.81 117.147 114.888C117.614 114.894 117.997 114.521 118.004 114.053C118.01 113.586 117.637 113.202 117.171 113.196C111.87 113.122 106.592 111.728 101.503 108.956Z" fill="#DD936F"/>
<path fill-rule="evenodd" clip-rule="evenodd" d="M78.286 297.307C59.952 298.744 16.439 414.759 0 456.242C2.189 464.597 15.559 479.337 15.559 479.337C15.559 479.337 14.128 485.989 13.248 489.984C28.894 502.869 59.149 509.869 59.149 509.869L59.217 515.584C107.594 537.889 172.375 516.512 172.375 516.512C172.375 516.512 173.583 515.273 172.716 510.791C194.682 510.535 241.712 482.631 241.712 482.631L235.026 468.824L254.371 449C254.371 449 202.133 352.771 186.054 325.855C171.938 302.224 158.699 295.422 158.699 295.422C158.699 295.422 110.815 294.755 78.286 297.307Z" fill="#4E5C93"/>
<path d="M161.781 318.144C161.583 317.739 161.095 317.572 160.691 317.77C160.327 317.948 160.155 318.362 160.269 318.738L160.317 318.862L239.859 481.577L239.114 482.126L238.492 482.573C236.921 483.69 235.069 484.935 232.948 486.277C226.882 490.116 219.882 493.955 212.042 497.54C199.853 503.112 186.774 507.54 172.963 510.396C172.522 510.488 172.239 510.919 172.33 511.361C172.421 511.802 172.852 512.086 173.293 511.995C187.229 509.112 200.423 504.645 212.719 499.024C220.629 495.408 227.693 491.533 233.818 487.657C235.726 486.45 237.42 485.319 238.893 484.286L239.435 483.904C239.882 483.586 240.282 483.296 240.633 483.036L241.388 482.467C241.653 482.259 241.76 481.913 241.669 481.598L241.618 481.465L161.781 318.144Z" fill="#253368"/>
<path d="M65.1392 351.212C64.7602 351.069 64.3412 351.227 64.1452 351.567L64.0882 351.687L11.6792 490.522C11.5442 490.879 11.6752 491.283 11.9942 491.493L12.3692 491.734C12.6742 491.927 13.0332 492.151 13.4452 492.403L14.4992 493.038C15.4142 493.583 16.4252 494.166 17.5252 494.781C21.9232 497.237 26.8472 499.693 32.1842 501.985C40.8892 505.724 49.8272 508.654 58.7802 510.467C59.2222 510.557 59.6512 510.271 59.7412 509.829C59.8302 509.387 59.5452 508.957 59.1032 508.868C50.2682 507.079 41.4352 504.183 32.8262 500.485C27.5442 498.217 22.6692 495.786 18.3192 493.356C16.7982 492.506 15.4512 491.717 14.2942 491.01L13.4392 490.479L65.6132 352.264C65.7562 351.885 65.5982 351.465 65.2592 351.269L65.1392 351.212Z" fill="#253368"/>
<path d="M99.1921 300.409C98.7941 300.33 98.4071 300.554 98.2691 300.922L98.2251 301.09L94.5101 319.886C93.4091 325.488 92.2401 331.466 91.0131 337.764L88.6941 349.71C84.4461 371.656 80.2291 393.793 76.2191 415.309L75.1311 421.162C74.3591 425.323 73.6001 429.432 72.8551 433.484L70.0061 449.103C65.3191 474.977 61.4011 497.628 58.4191 516.271C58.3561 516.664 58.5851 517.045 58.9611 517.173C61.3361 517.981 63.7401 518.729 66.1721 519.419C95.4671 527.724 126.718 527.254 156.23 521.478C160.523 520.637 164.432 519.742 167.903 518.842L168.839 518.596C169.765 518.35 170.61 518.117 171.372 517.898L173.214 517.351C173.305 517.323 173.38 517.299 173.44 517.28C173.79 517.166 174.015 516.836 174.004 516.478L173.988 516.343L137.512 333.28C137.424 332.838 136.995 332.551 136.554 332.639C136.157 332.719 135.885 333.075 135.899 333.467L135.914 333.599L172.246 515.94L171.783 516.079C170.963 516.322 170.02 516.589 168.96 516.874L168.421 517.019C164.755 517.992 160.564 518.967 155.917 519.876C126.635 525.607 95.6281 526.074 66.6161 517.848C64.8121 517.337 63.0241 516.793 61.2521 516.216L60.1391 515.844L61.3221 508.546C64.5511 488.864 68.6891 465.3 73.5681 438.635L75.0191 430.73C75.5831 427.671 76.1541 424.58 76.7331 421.46L78.9201 409.727C82.9651 388.108 87.2011 365.943 91.4531 344.042L96.4071 318.683L99.8311 301.369C99.9191 300.927 99.6331 300.497 99.1921 300.409Z" fill="#253368"/>
<path d="M118.613 303.537C118.208 303.561 117.89 303.876 117.848 304.266L117.845 304.399L126.418 456.648C126.443 457.098 126.828 457.442 127.277 457.418C127.682 457.394 128.001 457.079 128.042 456.689L128.045 456.556L119.472 304.307C119.447 303.857 119.062 303.513 118.613 303.537Z" fill="#253368"/>
<path d="M141.417 300.18C141.284 299.75 140.827 299.509 140.397 299.643C140.011 299.763 139.777 300.146 139.832 300.535L139.861 300.664L172.047 404.432C172.181 404.862 172.637 405.103 173.067 404.969C173.454 404.849 173.687 404.466 173.632 404.077L173.603 403.948L141.417 300.18Z" fill="#253368"/>
<path fill-rule="evenodd" clip-rule="evenodd" d="M162.201 297.304L160.818 286.811C160.818 286.811 119.442 287.059 78.8609 285.022C77.8349 289.682 76.6589 298.063 76.6589 298.063C80.0689 295.258 116.93 303.454 162.201 297.304Z" fill="#4E5C93"/>
<path d="M81.014 297.249C80.564 297.228 80.183 297.576 80.162 298.026C80.141 298.476 80.488 298.858 80.938 298.879L85.304 299.075C101.996 299.793 118.144 300.12 132.656 300.12L136.403 300.113C142.396 300.089 147.731 300.007 151.817 299.888L154.252 299.807C154.803 299.786 155.3 299.764 155.739 299.743L156.626 299.694C156.999 299.671 157.296 299.649 157.516 299.627L157.666 299.61C157.811 299.593 157.916 299.575 158.01 299.547L158.074 299.539C158.15 299.521 158.217 299.449 158.55 299.092L158.426 298.424C158.334 297.989 158.276 297.983 158.059 297.962C157.888 297.903 157.712 297.904 157.552 297.953L157.453 297.991L157.092 298.026L155.968 298.097C155.464 298.123 154.866 298.15 154.185 298.176L152.401 298.238C148.67 298.354 143.789 298.438 138.263 298.472L136.397 298.481C119.732 298.546 100.682 298.17 81.014 297.249Z" fill="#253368"/>
<path fill-rule="evenodd" clip-rule="evenodd" d="M160.271 174.616C164.779 184.453 173.129 201.384 174.168 212.57C175.853 230.704 164.062 244.2 164.062 244.2C164.062 244.2 163.944 238.864 162.798 285.851C108.787 295.338 74.352 285.251 74.352 285.251L75.404 272.795L66.632 243.355C66.632 243.355 61.303 232.39 50.355 207.932C42.742 190.928 43.271 169.845 44.303 158.575C44.742 153.746 41.198 150.445 45.86 149.133C62.147 144.548 75.219 143.645 75.219 143.645L76.7549 132.886C77.0159 131.044 78.592 129.673 80.451 129.673H120.155C121.857 129.673 123.348 130.831 123.772 132.485L126.68 143.847L157.748 145.667C161.605 146.424 158.018 152.622 158.421 156.538L160.271 174.616Z" fill="#5736FF"/>
<path d="M86.3399 143.524C85.9639 143.524 85.6589 143.83 85.6589 144.206C85.6589 144.541 85.8999 144.82 86.2179 144.877L86.3399 144.888H122.088C122.464 144.888 122.769 144.583 122.769 144.206C122.769 143.872 122.528 143.593 122.21 143.535L122.088 143.524H86.3399Z" fill="#4E5C93"/>
<path d="M75.474 140.778C75.174 140.399 74.624 140.336 74.246 140.636C73.906 140.906 73.82 141.379 74.025 141.747L74.104 141.865L112.848 190.784C113.251 191.293 114.031 191.193 114.311 190.64L114.363 190.515L129.517 144.527C129.668 144.069 129.419 143.574 128.961 143.422C128.548 143.286 128.107 143.474 127.912 143.848L127.857 143.979L113.212 188.424L75.474 140.778Z" fill="#CCD7EE"/>
<path fill-rule="evenodd" clip-rule="evenodd" d="M124.351 193.94C128.315 200.635 126.529 209.031 120.361 212.694C114.194 216.357 105.978 213.897 102.014 207.202C98.0501 200.509 99.8361 192.111 106.004 188.448C112.172 184.785 120.385 187.245 124.351 193.94Z" fill="#CCD7EE"/>
<path fill-rule="evenodd" clip-rule="evenodd" d="M125.776 193.907C129.74 200.602 127.954 208.998 121.786 212.661C115.618 216.323 107.403 213.866 103.437 207.171C99.475 200.475 101.261 192.077 107.428 188.414C113.596 184.754 121.809 187.211 125.776 193.907Z" fill="#E4EBF7"/>
<path fill-rule="evenodd" clip-rule="evenodd" d="M123.257 195.074C126.335 200.272 124.949 206.792 120.161 209.635C115.37 212.479 108.992 210.57 105.915 205.372C102.837 200.172 104.223 193.654 109.014 190.811C113.802 187.967 120.18 189.876 123.257 195.074Z" fill="#FAAD14"/>
<path d="M159.825 164.657C159.491 164.669 159.223 164.921 159.177 165.241L159.17 165.364L159.59 176.539L159.674 176.842L165.789 187.922C165.956 188.23 166.098 188.492 166.207 188.697L166.936 190.08C168.567 193.214 169.729 195.735 170.648 198.181C172.613 203.415 173.489 208.489 173.489 215.1C173.489 217.742 173.048 220.754 172.221 224.065C171.365 227.49 170.122 231.137 168.593 234.884C167.518 237.52 166.365 240.049 165.213 242.381L164.744 243.319C164.517 243.767 164.301 244.184 164.1 244.567L163.682 245.349L163.597 245.653L162.732 269.664C162.51 276.043 162.354 280.79 162.282 283.464L162.243 285.112L161.149 285.312C135.407 289.907 110.402 289.988 88.2031 287.305L86.7901 287.13C83.4861 286.711 80.5491 286.262 78.0151 285.814L76.5441 285.544L75.5101 285.341L76.7131 273.08L76.6811 272.796L62.5161 230.508C62.3971 230.151 62.0111 229.959 61.6541 230.078C61.3371 230.185 61.1501 230.502 61.1961 230.822L61.2251 230.942L75.3441 273.092L74.0941 285.818C74.0641 286.118 74.2351 286.397 74.5041 286.512L74.6251 286.55L75.4371 286.718L76.2901 286.884C76.5921 286.942 76.9141 287.001 77.2541 287.063L77.7781 287.157C80.3331 287.609 83.2921 288.061 86.6191 288.483C109.767 291.418 136.02 291.373 163.042 286.353C163.365 286.293 163.599 286.012 163.599 285.683L163.62 284.439C163.653 283.012 163.726 280.596 163.834 277.337L164.354 262.328L164.953 245.863L165.305 245.202L165.732 244.38C165.954 243.947 166.189 243.481 166.434 242.986C167.6 240.626 168.766 238.068 169.854 235.4C171.406 231.597 172.669 227.891 173.542 224.396C174.395 220.985 174.851 217.865 174.851 215.1C174.851 208.329 173.947 203.093 171.923 197.701C170.916 195.019 169.63 192.266 167.785 188.765L167.005 187.306C166.04 185.529 164.2 182.201 162.785 179.644L160.946 176.323L160.532 165.313C160.519 164.978 160.268 164.709 159.948 164.663L159.825 164.657Z" fill="#4E5C93"/>
<path fill-rule="evenodd" clip-rule="evenodd" d="M206.832 272.04C207.119 279.099 201.924 285.13 195.036 285.732L62.1071 297.364C49.8551 298.021 39.4251 288.319 38.9161 275.79C38.4021 263.151 48.1761 252.58 60.5501 252.391L194.55 259.372C201.23 259.719 206.554 265.211 206.832 272.04Z" fill="#FFC999"/>
<path fill-rule="evenodd" clip-rule="evenodd" d="M65.8382 296.941L64.9002 297.077C53.0162 298.788 42.1922 291.008 40.7252 279.697L26.8482 172.741C25.3812 161.431 33.8252 150.875 45.7092 149.162L46.6472 149.027C58.5312 147.315 69.3542 155.094 70.8192 166.406L84.6992 273.362C86.1642 284.673 77.7212 295.23 65.8382 296.941Z" fill="#FFC999"/>
<path fill-rule="evenodd" clip-rule="evenodd" d="M78.4221 222.798L72.3331 169.123C71.2091 156.474 59.7901 147.229 46.9571 148.576C34.1251 149.923 24.5451 161.372 25.6701 174.021L30.2891 225.989L78.4221 222.798Z" fill="#5736FF"/>
<path d="M73.0599 168.38L72.9389 168.381C72.6109 168.415 72.3619 168.68 72.3369 168.998L72.3379 169.119L77.6829 221.577L30.9129 225.246C30.5839 225.272 30.3289 225.531 30.2959 225.849L30.2949 225.97C30.3209 226.3 30.5789 226.555 30.8969 226.588L31.0179 226.589L78.4739 222.866C78.8079 222.84 79.0649 222.573 79.0919 222.25L79.0899 222.126L73.6759 168.983C73.6429 168.654 73.3779 168.405 73.0599 168.38Z" fill="#4E5C93"/>
<path fill-rule="evenodd" clip-rule="evenodd" d="M68.692 272.521C68.228 279.815 72.768 286.13 78.998 286.855L197.527 301.232C208.625 302.094 220.114 291.841 220.939 278.895C221.772 265.835 213.206 254.758 201.984 254.379L80.201 259.605C74.132 259.864 69.142 265.466 68.692 272.521Z" fill="#FFC999"/>
<path fill-rule="evenodd" clip-rule="evenodd" d="M39.0471 268.503C34.9181 273.732 42.7671 277.571 42.7671 277.571C42.7671 277.571 39.8611 281.628 46.4591 282.82C52.3181 283.88 88.6511 288.158 88.6511 288.158L89.3531 260.631L75.5031 258.757C75.5031 258.757 67.6391 251.345 63.5771 248.446C59.5191 245.548 48.9951 246.458 43.5441 243.794C38.0941 241.129 40.7861 251.798 53.7531 253.532C33.3251 253.704 30.6711 248.266 30.1831 253.612C29.7571 258.298 34.9391 258.527 34.9391 258.527C34.9391 258.527 29.1291 263.565 39.0471 268.503Z" fill="#FFC999"/>
<path d="M44.2301 243.559C42.6121 242.768 41.2451 242.898 40.6871 244.067C40.2281 245.028 40.5461 246.427 41.4551 247.865C42.6981 249.832 44.7741 251.586 47.4781 252.859L48.009 253.097L47.6 253.078C44.7181 252.915 42.1081 252.623 39.6271 252.22L38.8861 252.095C38.5811 252.042 33.134 250.936 32.272 250.942C30.635 250.953 29.9771 251.862 29.7831 253.989C29.5581 256.447 30.661 258.113 32.574 259.032C32.909 259.193 33.2421 259.321 33.5631 259.421L33.8501 259.504L33.8171 259.552C31.7641 262.623 32.6311 266.089 38.1001 269.122L38.2861 269.221L38.2431 269.288C36.6151 271.972 37.4931 274.537 39.9201 276.723L40.1671 276.941C40.5961 277.306 41.045 277.64 41.5 277.941L41.9551 278.231L42.1141 278.326L42.0861 278.391C41.8011 279.083 41.6501 279.795 41.7081 280.498L41.7451 280.799C42.0371 282.522 43.5521 283.651 46.3681 283.983L50.0331 284.369C55.3171 284.949 66.39 286.206 82.259 288.026L151.379 295.992L199.998 301.622C200.413 301.67 200.789 301.372 200.837 300.956C200.885 300.54 200.587 300.164 200.172 300.115L65.4291 284.576C55.0861 283.399 48.7521 282.692 47.0811 282.53L46.8781 282.511C44.4411 282.293 43.4111 281.569 43.2381 280.546C43.1581 280.07 43.2591 279.52 43.4861 278.968C43.5921 278.711 43.695 278.52 43.755 278.426C44 278.044 43.8581 277.534 43.4511 277.335L43.2381 277.224C43.1061 277.152 42.9391 277.056 42.7441 276.937C42.2001 276.605 41.6551 276.219 41.1501 275.787C38.8291 273.804 38.1791 271.717 39.9941 269.42C40.2931 269.042 40.1681 268.485 39.7381 268.27L39.1891 267.989C34.1641 265.323 33.4811 262.78 35.0751 260.395C35.3501 259.984 35.6221 259.69 35.7861 259.548C36.3041 259.099 36.008 258.248 35.324 258.218L35.1351 258.202C35.0171 258.188 34.8641 258.166 34.6851 258.132C34.1851 258.037 33.6871 257.885 33.2281 257.665C31.8531 257.004 31.1281 255.909 31.2901 254.127C31.4221 252.685 31.5831 252.463 32.2821 252.458C32.9601 252.454 38.1131 253.5 38.6281 253.589C43.1381 254.37 48.0221 254.789 54.1131 254.739C55.0541 254.731 55.139 253.354 54.207 253.229C48.72 252.494 44.5991 250.005 42.7351 247.055C42.0751 246.011 41.8691 245.105 42.0531 244.721C42.1531 244.512 42.5401 244.46 43.3531 244.822L43.5661 244.921C45.5311 245.882 47.8021 246.389 51.8591 246.922L55.0241 247.316C59.8871 247.938 61.9891 248.438 63.4911 249.511L64.0711 249.936C65.1871 250.773 66.591 251.925 68.216 253.328L69.0461 254.05C70.1171 254.986 71.22 255.972 72.319 256.972L73.7901 258.319L75.3361 259.756C75.4541 259.867 75.6031 259.937 75.7611 259.957L75.8811 259.962L183.175 256.265C183.593 256.251 183.92 255.9 183.906 255.481C183.893 255.109 183.615 254.809 183.259 254.757L183.123 254.75L76.1441 258.434L74.4391 256.857C73.3411 255.847 72.2251 254.838 71.1301 253.866L69.6201 252.539L68.3251 251.427C66.7551 250.094 65.4181 249.024 64.3701 248.276C62.5251 246.958 60.2331 246.436 54.7051 245.748L53.143 245.557C48.74 245.013 46.3561 244.542 44.4641 243.67L44.2301 243.559Z" fill="#DD936F"/>
<path fill-rule="evenodd" clip-rule="evenodd" d="M159.913 255.867C159.913 255.867 178.89 229.909 185.942 229.313C192.995 228.717 205.482 230.846 207.558 234.554C212.443 243.304 212.736 255.268 212.736 255.268L188.96 254.878L159.913 255.867Z" fill="#FFC999"/>
<path d="M208.258 234.161C209.265 235.964 210.123 237.971 210.847 240.148C211.945 243.455 212.684 246.988 213.133 250.521C213.259 251.509 213.354 252.442 213.423 253.303L213.47 253.936C213.513 254.558 213.533 255.005 213.54 255.248C213.55 255.705 213.179 256.08 212.723 256.072L188.947 255.682L159.941 256.67C159.271 256.693 158.87 255.933 159.266 255.391L160.119 254.242L161.599 252.289C161.864 251.943 162.138 251.588 162.42 251.223C164.838 248.1 167.363 244.977 169.871 242.06C171.166 240.554 172.425 239.141 173.639 237.836L174.521 236.898C179.453 231.714 183.281 228.731 185.875 228.512C194.168 227.811 206.154 230.401 208.258 234.161ZM186.01 230.114C183.839 230.298 179.863 233.506 174.815 238.932C173.616 240.221 172.37 241.619 171.088 243.109C168.6 246.003 166.091 249.106 163.69 252.209L162.486 253.776L161.557 255.005L188.933 254.074L211.894 254.448L211.868 254.046C211.799 253.044 211.693 251.927 211.54 250.724C211.103 247.288 210.385 243.853 209.322 240.656C208.63 238.57 207.81 236.655 206.857 234.947C205.174 231.939 193.716 229.463 186.01 230.114Z" fill="#DD936F"/>
<path d="M196.58 236.02C194.716 235.938 192.996 235.945 191.447 236.053C191.099 236.078 190.836 236.381 190.86 236.73C190.885 237.079 191.187 237.342 191.536 237.318C193.032 237.213 194.705 237.206 196.524 237.287C199.055 237.399 201.765 237.674 204.515 238.063C205.544 238.209 206.525 238.363 207.439 238.518L209.225 238.84C209.332 238.861 209.422 238.879 209.494 238.894C209.837 238.963 210.171 238.742 210.24 238.399C210.31 238.056 210.089 237.721 209.746 237.652L208.607 237.436L208.332 237.387C207.22 237.19 205.994 236.992 204.691 236.808C201.905 236.414 199.155 236.135 196.58 236.02Z" fill="#DD936F"/>
<path d="M200.593 242.243L199.407 242.208C196.525 242.14 194.268 242.222 192.814 242.492C192.471 242.556 192.244 242.886 192.307 243.23C192.371 243.575 192.701 243.802 193.045 243.738C194.574 243.454 197.186 243.392 200.549 243.51C201.855 243.555 203.23 243.627 204.639 243.718L205.702 243.79C206.482 243.846 207.234 243.904 207.943 243.963L209.786 244.127C210.134 244.162 210.444 243.907 210.478 243.559C210.512 243.211 210.258 242.9 209.91 242.866L208.747 242.76L207.32 242.641C206.826 242.602 206.315 242.563 205.791 242.526C203.997 242.399 202.242 242.301 200.593 242.243Z" fill="#DD936F"/>
<path d="M212.037 248.771L192.953 248.85C192.604 248.852 192.322 249.137 192.323 249.487C192.324 249.798 192.549 250.056 192.845 250.108L192.959 250.118L212.042 250.038C212.392 250.037 212.674 249.752 212.673 249.402C212.671 249.091 212.446 248.833 212.151 248.781L212.037 248.771Z" fill="#DD936F"/>
<path fill-rule="evenodd" clip-rule="evenodd" d="M392.405 326.196L417.414 265.144L370.413 237.349C370.413 237.349 322.273 321.391 332.102 340.199C344.505 363.93 372.455 364 392.405 326.196Z" fill="#FFC999"/>
<path fill-rule="evenodd" clip-rule="evenodd" d="M539.459 349.799C539.459 349.799 553.279 282.888 559.363 258.173C565.447 233.46 574.829 174.257 564.63 169.754C554.434 165.252 530.01 155.669 530.01 155.669C530.01 155.669 510.519 154.843 488.549 159.373C471.154 162.96 471.357 152.725 450.276 156.07C441.35 157.485 406.368 168.18 399.562 173.467C392.759 178.753 404.135 352.506 404.135 352.506C404.135 352.506 395.748 361.015 405.775 372.186C410.747 377.417 432.432 375.795 460.173 376.046C491.753 376.328 528.87 380.533 535.8 374.575C548.819 363.379 539.459 349.799 539.459 349.799Z" fill="#5736FF"/>
<path fill-rule="evenodd" clip-rule="evenodd" d="M460.399 144.092L480.437 161.353L457.617 184.602L446.424 156.589L460.399 144.092Z" fill="#5736FF"/>
<path fill-rule="evenodd" clip-rule="evenodd" d="M543.057 362.547L546.016 392.735C546.016 392.735 626.226 350.07 642.148 325.362C656.283 303.424 622.828 249.723 622.828 249.723C622.828 249.723 589.408 272.99 583.157 287.642L588.65 304.141L543.057 362.547Z" fill="#FFC999"/>
<path fill-rule="evenodd" clip-rule="evenodd" d="M399.069 310.982C399.069 310.982 432.503 253.735 435.095 220.398C437.64 187.706 408.88 163.203 393.998 177.442C372.313 198.189 349.1 267.804 349.1 267.804C349.1 267.804 373.461 299.082 399.069 310.982Z" fill="#5736FF"/>
<path d="M358.779 273.84C358.43 273.324 357.729 273.188 357.213 273.537C356.697 273.886 356.561 274.588 356.91 275.104C360.302 280.119 364.07 284.767 368.149 289.058C374.627 295.872 381.567 301.475 388.509 305.948C390.942 307.515 393.203 308.83 395.235 309.903C395.663 310.129 396.063 310.334 396.433 310.52L397.485 311.031C397.636 311.102 397.751 311.154 397.826 311.187C398.396 311.438 399.062 311.18 399.313 310.609C399.564 310.039 399.306 309.374 398.736 309.123L398.286 308.914L398.112 308.831C397.692 308.629 397.218 308.392 396.692 308.119L396.288 307.908C394.312 306.865 392.107 305.583 389.731 304.051C382.932 299.671 376.131 294.18 369.784 287.503C365.789 283.301 362.099 278.75 358.779 273.84Z" fill="#253368"/>
<path fill-rule="evenodd" clip-rule="evenodd" d="M637.168 276.705C637.168 276.705 598.424 193.771 577.557 177.54C556.688 161.309 547.378 169.841 538.948 181.402C533.638 188.679 521.425 209.332 548.362 252.895C568.647 285.697 577.149 297.856 579.569 303.329C613.583 301.05 637.168 276.705 637.168 276.705Z" fill="#5736FF"/>
<path fill-rule="evenodd" clip-rule="evenodd" d="M480.007 164.422L460.49 144.6L463.989 76.9276L516.685 79.9376L518.817 146.7L480.007 164.422Z" fill="#FFC999"/>
<path fill-rule="evenodd" clip-rule="evenodd" d="M450.327 70.7496C450.327 70.7496 442.221 62.4526 438.86 68.0856C435.501 73.7166 441.547 93.7526 450.284 94.2266C461.951 94.8556 450.327 70.7496 450.327 70.7496Z" fill="#FFC999"/>
<path fill-rule="evenodd" clip-rule="evenodd" d="M501.423 121.883C501.423 121.883 484.362 136.007 461.591 122.215C445.2 112.287 442.998 76.0526 446.012 49.4336C447.718 34.3706 454.616 26.2367 469.27 21.7087C483.926 17.1817 523.724 16.8366 524.196 61.1326C524.721 110.471 501.423 121.883 501.423 121.883Z" fill="#FFC999"/>
<path d="M471.513 56.3067C471.129 56.4067 470.88 56.7657 470.908 57.1477L470.933 57.2907L473.304 66.4677L468.445 91.5657C468.358 92.0177 468.664 92.4407 469.1 92.5147L469.235 92.5267L479.849 92.5646C480.295 92.5666 480.658 92.2057 480.66 91.7597C480.661 91.3587 480.369 91.0246 479.986 90.9606L479.855 90.9497L470.217 90.9136L474.924 66.5957C474.939 66.5167 474.943 66.4366 474.934 66.3576L474.913 66.2396L472.497 56.8866C472.398 56.5036 472.039 56.2556 471.657 56.2836L471.513 56.3067Z" fill="#DD936F"/>
<path d="M481.771 53.8056C481.647 54.9886 482.506 56.0466 483.689 56.1706L491.684 57.0426L493.688 57.2446C499.459 57.8006 503.097 57.9156 505.345 57.4586C506.51 57.2216 507.263 56.0856 507.027 54.9206C506.79 53.7546 505.654 53.0016 504.488 53.2386C502.607 53.6206 498.556 53.4296 492.131 52.7596L484.136 51.8876C482.953 51.7636 481.894 52.6226 481.771 53.8056Z" fill="#253368"/>
<path d="M488.643 98.7206C488.485 98.1186 487.868 97.7586 487.265 97.9166L486.925 97.9976L486.55 98.0776C485.937 98.2046 485.214 98.3316 484.389 98.4506C480.07 99.0746 474.933 99.2276 469.18 98.6166C468.561 98.5506 468.005 98.9996 467.939 99.6196C467.874 100.239 468.322 100.795 468.942 100.861C474.89 101.492 480.214 101.333 484.712 100.684C485.408 100.583 486.038 100.477 486.599 100.369L487.006 100.288C487.407 100.205 487.687 100.139 487.839 100.099C488.442 99.9396 488.802 99.3226 488.643 98.7206Z" fill="#FF7946"/>
<path fill-rule="evenodd" clip-rule="evenodd" d="M519.258 80.1476L527.792 63.0316C527.792 63.0316 533.116 38.3936 527.356 27.8456C518.419 11.4766 498.19 12.0386 486.158 7.72961C474.123 3.42061 474.211 -0.621388 469.345 0.0796122C464.479 0.781612 445.699 14.0486 443.664 27.8156C441.875 39.9166 445.142 70.7046 445.142 70.7046C445.142 70.7046 448.374 43.4036 450.962 36.1826C460.452 32.1516 495.028 31.7456 509.488 36.1086C509.488 36.1086 510.794 45.3866 511.556 51.9246C519.317 57.4056 519.258 80.1476 519.258 80.1476Z" fill="#253368"/>
<path d="M461.259 120.678C460.956 120.351 460.445 120.33 460.117 120.633C459.79 120.936 459.769 121.446 460.072 121.774C460.288 122.008 460.698 122.394 461.304 122.882C462.301 123.682 463.498 124.48 464.899 125.222C472.979 129.506 483.696 130.163 497.074 124.931C497.489 124.769 497.694 124.3 497.532 123.885C497.369 123.47 496.901 123.265 496.485 123.427C483.548 128.486 473.322 127.86 465.655 123.795C464.347 123.102 463.235 122.361 462.316 121.622L461.945 121.316C461.61 121.031 461.381 120.811 461.259 120.678Z" fill="#DD936F"/>
<path d="M472.318 64.9046C471.427 64.8736 470.679 65.5706 470.647 66.4626C470.618 67.2946 471.224 68.0016 472.03 68.1176L472.205 68.1326L480.013 68.4056C480.904 68.4366 481.652 67.7396 481.683 66.8476C481.713 66.0156 481.107 65.3086 480.301 65.1926L480.126 65.1776L472.318 64.9046Z" fill="#253368"/>
<path d="M479.361 70.1116C477.783 69.4326 476.168 69.0706 474.585 69.2156C473.083 69.3536 471.726 69.9526 470.618 71.0626C469.988 71.6946 469.989 72.7167 470.62 73.3467C471.207 73.9317 472.13 73.9726 472.764 73.4706L472.905 73.3446C473.458 72.7896 474.106 72.5037 474.88 72.4327C475.843 72.3437 476.957 72.5936 478.083 73.0786C478.509 73.2626 478.861 73.4437 479.11 73.5877L479.358 73.7387C480.102 74.2307 481.104 74.0256 481.596 73.2806C482.087 72.5366 481.882 71.5346 481.138 71.0426C480.762 70.7956 480.15 70.4516 479.361 70.1116Z" fill="#253368"/>
<path d="M466.784 51.7687C463.144 50.4197 459.454 49.6926 455.927 49.9336C453.173 50.1226 450.65 50.9066 448.449 52.3746C447.46 53.0336 447.193 54.3706 447.852 55.3606C448.512 56.3496 449.849 56.6166 450.839 55.9566C452.379 54.9296 454.181 54.3697 456.221 54.2307C459.05 54.0367 462.171 54.6516 465.288 55.8066C466.059 56.0926 466.782 56.3946 467.446 56.6986L467.932 56.9276C468.397 57.1506 468.717 57.3197 468.869 57.4067C469.904 57.9927 471.218 57.6286 471.804 56.5936C472.39 55.5596 472.027 54.2456 470.992 53.6596C470.128 53.1696 468.669 52.4667 466.784 51.7687Z" fill="#253368"/>
<path d="M473.763 106.615C473.317 106.606 472.947 106.959 472.938 107.405C472.929 107.806 473.214 108.146 473.597 108.217L473.727 108.23L480.091 108.37C480.537 108.38 480.906 108.026 480.916 107.58C480.925 107.179 480.639 106.84 480.257 106.769L480.127 106.755L473.763 106.615Z" fill="#DD936F"/>
<path d="M509.034 65.7546C508.142 65.7396 507.407 66.4516 507.393 67.3426C507.379 68.1756 507.997 68.8716 508.805 68.9726L508.981 68.9846L521.79 69.1966C522.681 69.2116 523.417 68.5006 523.431 67.6086C523.445 66.7766 522.827 66.0806 522.019 65.9796L521.843 65.9666L509.034 65.7546Z" fill="#253368"/>
<path fill-rule="evenodd" clip-rule="evenodd" d="M508.104 64.8196L483.653 64.2776C481.945 64.2396 480.531 65.5886 480.506 67.2966C480.459 70.4816 480.524 75.5936 481.257 79.9836C482.117 85.1606 486.687 88.4206 491.923 88.7786C498.467 89.2276 504.344 89.3636 507.392 86.0316C512.032 80.9506 511.111 72.4036 511.116 67.8846C511.116 66.2296 509.762 64.8556 508.104 64.8196Z" fill="white"/>
<path d="M483.426 63.7426L483.665 63.7396L508.116 64.2816C510.067 64.3236 511.654 65.9376 511.654 67.8846L511.664 68.8956L511.713 71.2386C511.754 73.9136 511.694 75.6246 511.436 77.5686C510.954 81.2196 509.819 84.1706 507.789 86.3936C505.022 89.4186 500.841 89.9296 491.886 89.3156C486.169 88.9236 481.595 85.3056 480.726 80.0716C480.104 76.3416 479.9 71.8946 479.968 67.2886C479.996 65.3636 481.527 63.8226 483.426 63.7426ZM508.093 65.3576L483.641 64.8156C482.228 64.7846 481.064 65.8986 481.044 67.3036C480.976 71.8517 481.178 76.2416 481.788 79.8946C482.57 84.6046 486.712 87.8826 491.96 88.2416L493.695 88.3496C501.115 88.7536 504.716 88.1586 506.994 85.6676C508.856 83.6296 509.913 80.8786 510.37 77.4276C510.619 75.5466 510.678 73.8746 510.637 71.2436L510.579 68.2356C510.578 68.1196 510.578 68.0076 510.578 67.8846C510.578 66.5236 509.46 65.3866 508.093 65.3576Z" fill="#253368"/>
<path d="M491.238 70.4736C490.643 70.4616 490.15 70.9326 490.137 71.5276C490.064 74.9076 492.442 77.7556 495.529 77.8236C498.617 77.8916 501.117 75.1506 501.191 71.7706C501.203 71.1756 500.732 70.6836 500.137 70.6706C499.542 70.6576 499.05 71.1296 499.037 71.7236C498.988 73.9746 497.405 75.7096 495.576 75.6696C493.749 75.6286 492.242 73.8246 492.291 71.5746C492.304 70.9796 491.832 70.4866 491.238 70.4736Z" fill="#253368"/>
<path fill-rule="evenodd" clip-rule="evenodd" d="M469.973 63.7036L442.291 63.0927C441.177 67.1147 441.82 82.7796 446.496 86.2376C452.786 89.7116 465.673 88.5526 467.746 85.1996C470.889 80.1156 472.231 70.3117 472.272 66.0797C472.283 64.7887 471.263 63.7336 469.973 63.7036Z" fill="white"/>
<path d="M442.303 62.5546L469.985 63.1666C471.569 63.2026 472.823 64.4986 472.81 66.0836C472.752 72.0786 470.927 81.0776 468.204 85.4826C465.845 89.2976 452.48 90.1576 446.236 86.7086C442 83.5816 440.153 68.7956 441.773 62.9486C441.838 62.7116 442.057 62.5496 442.303 62.5546ZM442.709 63.6386L442.65 63.9056C441.436 69.7886 443.231 83.1536 446.816 85.8056C452.556 88.9706 465.289 88.1506 467.289 84.9166C469.888 80.7106 471.678 71.8896 471.734 66.0746C471.742 65.0776 470.956 64.2646 469.961 64.2416L442.709 63.6386Z" fill="#253368"/>
<path d="M456.686 69.7106C456.091 69.6976 455.598 70.1696 455.586 70.7636C455.512 74.1446 457.889 76.9916 460.977 77.0596C464.064 77.1276 466.566 74.3866 466.639 71.0066C466.652 70.4116 466.18 69.9196 465.585 69.9066C464.99 69.8936 464.498 70.3656 464.485 70.9606C464.436 73.2096 462.852 74.9456 461.024 74.9056C459.196 74.8656 457.691 73.0626 457.739 70.8106C457.752 70.2156 457.281 69.7236 456.686 69.7106Z" fill="#253368"/>
<path d="M510.748 63.4307L480.422 63.5547C479.53 63.5587 478.81 64.2847 478.814 65.1767C478.817 66.0087 479.45 66.6917 480.259 66.7757L480.435 66.7847L510.761 66.6607C511.653 66.6567 512.373 65.9307 512.369 65.0387C512.366 64.2067 511.733 63.5237 510.924 63.4397L510.748 63.4307Z" fill="#253368"/>
<path d="M442.108 62.0836C441.217 62.0516 440.468 62.7486 440.436 63.6396C440.406 64.4716 441.011 65.1796 441.816 65.2966L441.992 65.3126L471.686 66.3856C472.577 66.4186 473.326 65.7216 473.358 64.8306C473.388 63.9986 472.783 63.2906 471.978 63.1736L471.802 63.1576L442.108 62.0836Z" fill="#253368"/>
<path fill-rule="evenodd" clip-rule="evenodd" d="M523.058 66.3346C526.126 63.0606 530.961 62.0846 534.457 65.7366C540.088 71.6246 535.355 93.9597 520.466 95.1557C514.791 94.4717 518.267 71.4436 523.058 66.3346Z" fill="#FFC999"/>
<path fill-rule="evenodd" clip-rule="evenodd" d="M383.422 323.567C383.422 323.567 373.746 358.12 343.161 351.769C322.277 347.431 301.924 238.518 300.314 225.868C299.163 216.824 326.427 215.337 326.427 215.337L383.422 323.567Z" fill="#FFC999"/>
<path fill-rule="evenodd" clip-rule="evenodd" d="M326.796 216.963C326.796 216.963 325.72 210.875 323.57 198.695C321.418 186.518 298.088 160.005 296.577 158.665C291.422 154.101 287.235 160.476 298.185 176.897C284.731 172.954 276.38 166.7 271.722 158.103C267.063 149.508 257.629 155.563 260.551 169.376C263.474 183.188 263.98 194.373 272.895 204.628C285.663 219.311 296.311 224.159 302.316 226.72C307.197 228.802 322.941 226.58 326.796 216.963Z" fill="#FFC999"/>
<path fill-rule="evenodd" clip-rule="evenodd" d="M534.87 910.623L472.685 488.926L468.661 488.028L435.619 908.413C435.619 908.413 400.723 918.513 382.388 907.343C382.205 825.303 386.845 559.108 395.81 437.461C397.254 417.875 403.448 391.281 404.703 383.886C460.682 374.8 536.874 388.17 536.874 388.17L588.44 904.553C588.44 904.553 560.695 919.093 534.87 910.623Z" fill="#ADC6FF"/>
<path d="M440.256 471.533C439.857 471.334 439.372 471.497 439.174 471.897C438.997 472.252 439.106 472.674 439.413 472.903L439.538 472.979L473.134 489.668C473.534 489.867 474.018 489.704 474.217 489.304C474.393 488.949 474.284 488.527 473.977 488.298L473.853 488.222L440.256 471.533Z" fill="#5736FF"/>
<path fill-rule="evenodd" clip-rule="evenodd" d="M536.142 374.401C536.142 374.401 465.006 363.413 405.746 373.397C405.225 378.642 404.677 385.099 404.677 385.099C404.677 385.099 452.643 373.648 536.372 390.093C536.234 375.852 536.142 374.401 536.142 374.401Z" fill="#ADC6FF"/>
<path d="M511.767 389.187C486.106 386.976 459.879 386.043 435.392 387.115C425.002 387.571 415.195 388.385 406.066 389.589C405.624 389.647 405.313 390.053 405.371 390.495C405.43 390.937 405.835 391.248 406.278 391.19C415.357 389.993 425.117 389.182 435.463 388.729C459.871 387.66 486.032 388.591 511.628 390.797C517.007 391.26 522.002 391.751 526.538 392.247L528.967 392.518C529.999 392.635 530.962 392.748 531.853 392.854L535.401 393.299C535.843 393.359 536.25 393.049 536.31 392.607C536.37 392.165 536.06 391.758 535.618 391.698L533.332 391.407L530.65 391.086L529.149 390.913C523.974 390.325 518.138 389.736 511.767 389.187Z" fill="#5736FF"/>
<path d="M512.192 371.087C486.521 368.875 460.284 367.941 435.784 369.013C425.384 369.468 415.567 370.283 406.428 371.488C405.81 371.569 405.375 372.136 405.457 372.754C405.538 373.371 406.105 373.806 406.723 373.725C415.793 372.529 425.545 371.719 435.883 371.267C459.369 370.239 484.483 371.064 509.154 373.095L511.998 373.334C517.863 373.84 523.273 374.379 528.128 374.92L530.825 375.227L534.441 375.665L535.759 375.835C536.376 375.919 536.945 375.486 537.028 374.869C537.112 374.252 536.679 373.683 536.062 373.6L534.375 373.383C533.393 373.26 532.296 373.128 531.088 372.987L529.585 372.814C524.406 372.225 518.567 371.636 512.192 371.087Z" fill="#253368"/>
<path d="M464.785 372.305C464.384 372.305 464.05 372.597 463.988 372.981L463.977 373.112L463.995 378.98C464.018 383.441 464.06 388.391 464.124 393.706C464.308 408.798 464.639 423.872 465.156 437.943L465.315 442.087C465.969 458.445 466.849 472.164 467.986 482.459C468.035 482.902 468.434 483.222 468.878 483.173C469.321 483.124 469.641 482.725 469.592 482.282L469.321 479.715C468.227 468.888 467.387 454.678 466.77 437.884C466.291 424.831 465.971 410.912 465.781 396.917L465.692 389.425C465.663 386.642 465.641 383.977 465.625 381.451L465.592 373.121C465.592 372.667 465.231 372.305 464.785 372.305Z" fill="#5736FF"/>
<path fill-rule="evenodd" clip-rule="evenodd" d="M450.926 378.056C450.881 380.064 452.11 381.722 453.673 381.758C455.234 381.792 456.537 380.192 456.585 378.185C456.628 376.175 455.399 374.519 453.838 374.483C452.277 374.447 450.973 376.048 450.926 378.056Z" fill="white"/>
<path d="M298.941 176.61C298.783 176.193 298.317 175.982 297.9 176.14C297.529 176.281 297.322 176.665 297.391 177.041L297.431 177.182L300.618 185.6L300.617 185.65C300.604 186.746 300.624 188.171 300.699 189.823L300.73 190.452C300.884 193.355 301.179 196.225 301.651 198.914C302.919 206.135 305.236 211.015 309.036 212.471C309.453 212.631 309.92 212.422 310.08 212.006C310.239 211.589 310.031 211.122 309.614 210.963C306.531 209.782 304.418 205.328 303.242 198.635C302.782 196.016 302.493 193.209 302.343 190.367L302.287 189.154C302.249 188.178 302.232 187.294 302.229 186.529L302.235 185.477L302.183 185.173L298.941 176.61Z" fill="#DD936F"/>
<path d="M266.407 181.544C265.174 181.28 264.05 181.739 263.213 182.937C262.957 183.303 263.047 183.806 263.412 184.062C263.778 184.317 264.281 184.228 264.537 183.862C265.007 183.19 265.479 182.997 266.068 183.123C266.744 183.268 267.556 183.833 268.392 184.69C268.638 184.943 268.876 185.21 269.1 185.481L269.426 185.889C269.614 186.133 269.747 186.321 269.756 186.318L269.922 186.646C269.972 186.741 270.031 186.85 270.098 186.972C270.376 187.474 270.711 188.03 271.107 188.628C272.235 190.332 273.619 192.035 275.275 193.625C278.22 196.454 281.695 198.614 285.726 199.833C286.153 199.962 286.604 199.72 286.733 199.294C286.862 198.867 286.62 198.416 286.193 198.287C282.422 197.147 279.164 195.122 276.394 192.46C274.829 190.958 273.519 189.347 272.454 187.737C272.176 187.316 271.929 186.918 271.715 186.549L271.512 186.19C271.36 185.916 271.262 185.724 271.158 185.525L270.932 185.204C270.866 185.114 270.791 185.014 270.706 184.904C270.355 184.448 269.966 183.991 269.548 183.563C268.51 182.498 267.465 181.771 266.407 181.544Z" fill="#DD936F"/>
<path d="M266.085 171.073C263.876 170.066 262.099 171.033 261.468 174.103C261.379 174.54 261.66 174.967 262.097 175.056C262.534 175.146 262.961 174.865 263.051 174.428C263.477 172.353 264.171 171.975 265.416 172.542C265.99 172.804 266.634 173.265 267.299 173.868C267.704 174.234 268.092 174.629 268.447 175.024L268.756 175.377C268.807 175.437 268.845 175.483 268.868 175.512C273.042 181.255 277.01 185.11 280.65 187.426C282.883 188.847 284.542 189.435 285.496 189.544C285.939 189.594 286.339 189.275 286.39 188.832C286.435 188.433 286.182 188.069 285.807 187.964L285.505 187.908C285.322 187.869 285.042 187.791 284.67 187.659C283.764 187.339 282.709 186.822 281.517 186.063C278.056 183.861 274.235 180.148 270.153 174.534L270.001 174.349C269.908 174.238 269.789 174.101 269.648 173.944C269.258 173.511 268.833 173.077 268.383 172.67C267.605 171.966 266.836 171.415 266.085 171.073Z" fill="#DD936F"/>
<path d="M264.378 160.21C263.118 159.987 261.915 160.43 260.763 161.531C260.44 161.839 260.429 162.35 260.737 162.672C261.045 162.995 261.556 163.007 261.879 162.698C262.681 161.932 263.382 161.674 264.096 161.8C265.084 161.975 266.216 162.864 267.796 164.669L268.097 165.018C268.462 165.445 272.038 169.922 273.513 171.621L273.663 171.793C274.13 172.321 274.591 172.824 275.053 173.307C277.954 176.34 280.856 178.665 283.624 180.372C284.436 180.873 285.189 181.291 285.874 181.632L286.276 181.828C286.758 182.056 287.104 182.199 287.297 182.268C287.717 182.419 288.18 182.201 288.33 181.781C288.481 181.361 288.262 180.899 287.843 180.748L287.648 180.672C287.485 180.605 287.256 180.505 286.968 180.368C286.233 180.02 285.395 179.567 284.472 178.998C281.819 177.361 279.024 175.122 276.22 172.191C275.922 171.879 275.625 171.559 275.325 171.228L274.874 170.723C273.541 169.214 269.73 164.444 269.327 163.97C267.353 161.655 265.921 160.483 264.378 160.21Z" fill="#DD936F"/>
<path d="M350.763 260.758C350.544 260.369 350.051 260.232 349.663 260.451C349.318 260.646 349.171 261.057 349.296 261.418L349.356 261.551L373.266 303.939C373.485 304.327 373.978 304.465 374.366 304.245C374.712 304.051 374.858 303.64 374.733 303.278L374.673 303.145L350.763 260.758Z" fill="#DD936F"/>
<path fill-rule="evenodd" clip-rule="evenodd" d="M480.219 164.022L499.646 189.933L529.146 155.719L518.514 142.244L480.219 164.022Z" fill="#5736FF"/>
<path d="M479.331 165.411C478.774 165.202 478.153 165.484 477.944 166.041L477.721 166.688L477.501 167.382C477.384 167.759 477.259 168.183 477.124 168.653L476.705 170.168C476.181 172.125 475.616 174.466 475.018 177.218C472.848 187.202 470.681 200.536 468.66 217.679C466.63 234.895 464.859 255.067 463.419 278.429L463.206 282.01C461.258 315.858 461.547 344.928 463.045 366.904C463.086 367.497 463.6 367.945 464.193 367.905C464.787 367.865 465.235 367.351 465.195 366.757L465.042 364.427C463.635 342.043 463.469 312.649 465.57 278.562L465.827 274.479C467.172 253.555 468.789 235.272 470.622 219.454L471.11 215.334C472.982 199.931 474.969 187.753 476.957 178.445L477.123 177.676C477.874 174.217 478.571 171.425 479.195 169.246L479.443 168.399C479.522 168.137 479.596 167.896 479.667 167.675L479.869 167.058C479.912 166.933 479.942 166.847 479.961 166.798C480.17 166.242 479.888 165.621 479.331 165.411Z" fill="#253368"/>
<path d="M398.641 178.64C398.019 178.615 397.493 179.099 397.467 179.721L397.423 181.166C397.28 187.206 397.438 194.121 398.132 200.698C398.565 204.8 399.184 208.447 400.016 211.533L400.198 212.186L400.135 212.302L400.064 212.453C399.882 212.863 399.715 213.459 399.55 214.256C399.227 215.811 398.91 218.158 398.624 221.136L398.492 222.57C397.916 229.191 397.531 238.02 397.428 248.188C397.147 275.926 398.91 309.407 403.133 345.881L403.35 347.736L403.06 348.477L402.968 348.723C402.599 349.713 402.231 350.807 401.888 351.976C401.063 354.784 400.509 357.571 400.352 360.196C400.09 364.574 400.953 368.147 403.276 370.577C403.707 371.027 404.421 371.043 404.871 370.613C405.321 370.182 405.337 369.468 404.907 369.018C403.096 367.124 402.376 364.142 402.604 360.33C402.749 357.896 403.271 355.269 404.052 352.612C404.314 351.72 404.591 350.873 404.871 350.088L405.082 349.51C405.291 348.949 405.452 348.55 405.541 348.343C405.619 348.161 405.648 347.962 405.624 347.765C401.316 311.269 399.47 277.711 399.669 249.843L399.683 248.21C399.786 238.099 400.169 229.329 400.739 222.772L400.869 221.352C401.148 218.448 401.456 216.175 401.759 214.714C401.836 214.341 401.912 214.03 401.981 213.788L402.053 213.564C402.444 213.334 402.699 212.896 402.605 212.391L402.571 212.252C401.584 209.053 400.861 205.061 400.376 200.461C399.742 194.459 399.562 188.144 399.653 182.508L399.711 180.085C399.714 179.977 399.718 179.887 399.721 179.816C399.747 179.194 399.264 178.668 398.641 178.64Z" fill="#253368"/>
<path d="M453.705 198.691L453.936 198.69C454.592 198.688 455.111 199.244 455.064 199.899L452.197 240.066C452.17 240.448 451.951 240.789 451.616 240.974L429.766 253.014C429.391 253.22 428.932 253.197 428.58 252.953L411.839 241.362C411.565 241.173 411.389 240.872 411.358 240.54L411.251 239.165L411.163 237.788C411.124 237.133 411.085 236.419 411.048 235.646L410.951 233.448C410.658 226.075 410.581 216.757 410.837 205.441C410.847 205.007 411.105 204.617 411.501 204.439C416.896 202.008 425.506 200.431 436.169 199.514C440.006 199.184 443.887 198.961 447.657 198.826L449.998 198.753C451.458 198.715 452.709 198.696 453.705 198.691ZM449.991 239.294L452.728 200.955L450.908 200.988C449.954 201.009 448.892 201.039 447.738 201.081C444.003 201.214 440.159 201.435 436.363 201.761L435.421 201.845L433.571 202.022C425.045 202.883 418.052 204.215 413.391 206.086L413.078 206.215L413.041 207.964C412.842 218.53 412.942 227.246 413.238 234.162L413.329 236.098C413.357 236.649 413.386 237.167 413.414 237.652L413.562 239.81L429.288 250.7L449.991 239.294Z" fill="#253368"/>
<path fill-rule="evenodd" clip-rule="evenodd" d="M522.721 349.959C522.721 349.959 540.698 333.087 546.624 333.813C555.81 334.937 549.239 352.672 549.239 352.672C549.239 352.672 557.006 357.998 551.652 366.977C554.793 375.84 549.848 379.977 549.848 379.977C549.848 379.977 554.853 386.758 547.459 392.053C540.062 397.347 523.515 395.464 526.2 383.999C519.671 377.489 525.275 371.243 525.275 371.243C525.275 371.243 520.564 365.075 526.152 359.133C521.363 356.297 520.862 351.736 522.721 349.959Z" fill="#FFC999"/>
<path d="M544.671 348.833C544.479 348.487 544.069 348.337 543.706 348.461L543.573 348.52L525.761 358.428C525.371 358.644 525.231 359.136 525.448 359.526C525.64 359.872 526.05 360.022 526.413 359.898L526.546 359.839L544.358 349.931C544.748 349.715 544.888 349.223 544.671 348.833Z" fill="#DD936F"/>
<path d="M549.79 352.082C549.464 351.777 548.953 351.794 548.649 352.12C548.344 352.446 548.361 352.957 548.687 353.261L548.929 353.504C549.032 353.611 549.156 353.745 549.296 353.903C549.768 354.438 550.242 355.047 550.683 355.719C553.052 359.329 553.527 363.028 550.999 366.503C550.834 366.731 550.799 367.029 550.907 367.289C552.829 371.896 552.471 375.35 550.754 377.848C550.445 378.297 550.116 378.673 549.789 378.979C549.601 379.155 549.462 379.264 549.398 379.307C549.215 379.431 549.092 379.623 549.055 379.837L549.042 379.967L548.95 388.163C548.945 388.609 549.302 388.974 549.748 388.98C550.15 388.984 550.486 388.695 550.553 388.312L550.565 388.181L550.654 380.38L550.829 380.227C551.148 379.937 551.506 379.552 551.868 379.066L552.085 378.763C553.978 376.009 554.468 372.313 552.791 367.675L552.565 367.081L552.797 366.725C555.148 362.947 554.612 358.962 552.266 355.197L552.033 354.833C551.547 354.093 551.027 353.423 550.506 352.834L550.213 352.511C550.035 352.32 549.89 352.175 549.79 352.082Z" fill="#DD936F"/>
<path d="M542.152 365.995L525.071 370.462C524.639 370.575 524.381 371.016 524.494 371.448C524.594 371.831 524.954 372.078 525.336 372.049L525.48 372.025L542.561 367.558C542.992 367.445 543.251 367.004 543.138 366.572C543.038 366.189 542.678 365.942 542.296 365.971L542.152 365.995Z" fill="#DD936F"/>
<path d="M542.505 380.542L526.071 383.204C525.631 383.275 525.332 383.69 525.403 384.13C525.467 384.526 525.809 384.808 526.198 384.809L526.329 384.798L542.763 382.136C543.203 382.065 543.503 381.65 543.431 381.21C543.367 380.813 543.025 380.532 542.636 380.531L542.505 380.542Z" fill="#DD936F"/>
<path fill-rule="evenodd" clip-rule="evenodd" d="M478.569 183.393C478.521 185.4 479.843 187.061 481.517 187.099C483.191 187.135 484.585 185.538 484.63 183.53C484.675 181.52 483.356 179.862 481.682 179.824C480.008 179.786 478.614 181.383 478.569 183.393Z" fill="white"/>
<path fill-rule="evenodd" clip-rule="evenodd" d="M473.491 220.273C473.443 222.281 474.765 223.942 476.439 223.98C478.113 224.016 479.506 222.419 479.554 220.411C479.596 218.401 478.278 216.743 476.604 216.705C474.93 216.666 473.536 218.266 473.491 220.273Z" fill="white"/>
<path fill-rule="evenodd" clip-rule="evenodd" d="M470.163 260.226C470.117 262.234 471.437 263.894 473.113 263.933C474.787 263.969 476.179 262.372 476.226 260.364C476.271 258.354 474.949 256.696 473.276 256.658C471.604 256.619 470.21 258.216 470.163 260.226Z" fill="white"/>
<path fill-rule="evenodd" clip-rule="evenodd" d="M468.708 297.795C468.663 299.805 469.983 301.463 471.659 301.501C473.333 301.537 474.724 299.94 474.772 297.933C474.815 295.923 473.495 294.265 471.821 294.226C470.147 294.188 468.755 295.787 468.708 297.795Z" fill="white"/>
<path fill-rule="evenodd" clip-rule="evenodd" d="M468.193 347.515C468.148 349.523 469.467 351.183 471.144 351.222C472.817 351.258 474.209 349.661 474.257 347.653C474.3 345.643 472.98 343.985 471.306 343.947C469.632 343.908 468.24 345.505 468.193 347.515Z" fill="white"/>
<path d="M529.466 155.951C529.056 155.599 528.457 155.609 528.06 155.953L527.947 156.066L500.258 188.287L480.791 165.341C480.441 164.928 479.848 164.845 479.402 165.122L479.273 165.216C478.861 165.566 478.777 166.159 479.054 166.605L479.148 166.734L499.431 190.644C499.823 191.107 500.51 191.148 500.954 190.764L501.069 190.649L529.581 157.47C529.969 157.019 529.917 156.339 529.466 155.951Z" fill="#253368"/>
<path d="M447.433 156.856C447.245 156.291 446.636 155.985 446.071 156.173C445.554 156.345 445.253 156.871 445.351 157.393L445.388 157.534L455.799 188.902C456.036 189.618 456.902 189.861 457.475 189.42L457.593 189.315L479.944 166.368C480.359 165.942 480.35 165.26 479.924 164.845C479.54 164.471 478.95 164.441 478.533 164.749L478.401 164.865L457.286 186.541L447.433 156.856Z" fill="#253368"/>
<path d="M446.992 387.754C446.552 387.685 446.139 387.987 446.07 388.428L445.991 388.958C445.93 389.388 445.861 389.89 445.787 390.458L445.606 391.898C445.456 393.139 445.308 394.483 445.167 395.914C444.311 404.613 443.99 413.553 444.518 421.91L444.616 423.339C446.04 442.211 451.703 454.173 463.043 455.793C463.485 455.857 463.894 455.55 463.957 455.108C464.02 454.667 463.713 454.258 463.272 454.194C452.693 452.683 447.328 440.809 446.13 421.808C445.609 413.55 445.926 404.692 446.774 396.072L446.945 394.412C447.06 393.335 447.179 392.318 447.299 391.367L447.494 389.876L447.666 388.676C447.735 388.236 447.433 387.823 446.992 387.754Z" fill="#5736FF"/>
<path d="M577.541 185.037C577.228 184.498 576.537 184.316 575.999 184.629L575.791 184.756C575.587 184.883 575.309 185.067 574.964 185.308C574.174 185.86 573.297 186.536 572.356 187.341C569.68 189.628 567.009 192.495 564.519 195.982C554.822 209.564 550.565 228.273 554.771 252.753C554.876 253.367 555.46 253.78 556.074 253.674C556.688 253.569 557.1 252.985 556.994 252.372C552.89 228.484 557.009 210.384 566.355 197.293C568.735 193.96 571.281 191.228 573.822 189.055C574.559 188.425 575.25 187.882 575.884 187.422L576.256 187.156C576.687 186.856 576.987 186.665 577.134 186.579C577.672 186.265 577.855 185.575 577.541 185.037Z" fill="#253368"/>
<path d="M637.953 275.895C637.505 275.462 636.791 275.473 636.358 275.921L635.93 276.35C635.74 276.536 635.504 276.764 635.223 277.032L634.374 277.826C633.635 278.508 632.814 279.239 631.917 280.01C628.323 283.098 624.244 286.187 619.76 289.07C606.809 297.395 593.191 302.333 579.58 302.201C578.958 302.195 578.448 302.695 578.441 303.318C578.436 303.941 578.936 304.451 579.558 304.457C593.671 304.594 607.69 299.511 620.98 290.967C625.557 288.025 629.718 284.874 633.387 281.721L634.452 280.794C635.136 280.189 635.77 279.613 636.351 279.069L637.024 278.43L637.979 277.49C638.412 277.042 638.4 276.328 637.953 275.895Z" fill="#DD936F"/>
<path d="M530.42 68.7126C530.256 68.2986 529.786 68.0956 529.372 68.2596L529.086 68.3836C528.917 68.4626 528.709 68.5656 528.471 68.6946C527.818 69.0496 527.164 69.4806 526.551 69.9926C524.309 71.8656 523.177 74.3016 523.847 77.2626C524.101 78.3856 524.613 78.9886 525.568 79.5656L525.981 79.8016C526.8 80.2566 527.004 80.4816 527.075 81.1816C527.212 82.5206 526.598 83.5186 525.426 84.2796C525.033 84.5336 524.608 84.7396 524.182 84.8996L523.911 84.9956C523.792 85.0346 523.7 85.0606 523.642 85.0736C523.208 85.1776 522.94 85.6126 523.043 86.0466C523.147 86.4806 523.582 86.7486 524.016 86.6456C524.607 86.5046 525.451 86.1886 526.305 85.6336C527.942 84.5716 528.888 83.0346 528.682 81.0186C528.555 79.7666 528.071 79.1586 527.004 78.5256L526.606 78.3006C525.85 77.8776 525.578 77.5926 525.422 76.9066C524.904 74.6126 525.769 72.7506 527.586 71.2326C528.111 70.7936 528.677 70.4206 529.242 70.1136L529.604 69.9266C529.763 69.8486 529.887 69.7936 529.967 69.7616C530.382 69.5966 530.585 69.1276 530.42 68.7126Z" fill="#DD936F"/>
<path d="M432.016 485.249C431.571 485.217 431.185 485.553 431.153 485.998C431.125 486.398 431.394 486.751 431.772 486.84L431.902 486.86L458.546 488.732C458.991 488.764 459.377 488.428 459.408 487.983C459.437 487.583 459.168 487.23 458.789 487.141L458.659 487.121L432.016 485.249Z" fill="#5736FF"/>
</svg>
