<svg width="1386" height="551" viewBox="0 0 1386 551" fill="none" xmlns="http://www.w3.org/2000/svg">
<path fill-rule="evenodd" clip-rule="evenodd" d="M289.222 450.939C341.164 433.505 376.288 407.219 382.191 385.997C388.739 362.46 384.375 326.286 335.926 332.822C313.694 335.823 287.708 364.803 271.185 387.305C256.781 406.917 244.341 424.57 244.341 424.57C244.341 424.57 237.719 436.993 241.647 443.966C245.576 450.939 240.338 456.824 251.249 470.335C255.529 475.636 248.63 478.397 262.161 482.32C269.188 484.358 285.513 472.297 289.222 450.939Z" fill="#FFC2BD"/>
<path fill-rule="evenodd" clip-rule="evenodd" d="M101.769 383.73C101.769 383.73 22.5724 224.185 30.1463 209.057C37.7219 193.926 93.6359 159.91 178.151 165.72C263.034 171.554 292.714 205.988 292.714 205.988C292.714 205.988 270.891 307.108 252.587 372.727C262.228 389.917 244.703 402.123 244.703 402.123C244.703 402.123 134.69 397.043 108.521 398.419C96.2999 393.189 101.769 383.73 101.769 383.73Z" fill="#5736FF"/>
<path fill-rule="evenodd" clip-rule="evenodd" d="M263.034 517.19L168.987 560.606L72.5129 522.639C72.5129 522.639 84.2959 449.414 106.231 415.418C109.722 405.828 111.14 398.638 111.14 398.638C111.14 398.638 197.562 385.562 244.704 402.123L246.449 417.815C246.449 417.815 253.922 435.561 257.796 451.811C264.344 479.271 263.034 517.19 263.034 517.19Z" fill="#4E5C93"/>
<path fill-rule="evenodd" clip-rule="evenodd" d="M75.2949 510.919C75.2949 510.919 142.86 410.187 175.597 539.637C96.0819 817.494 82.9929 861.344 82.9929 861.344C82.9929 861.344 83.5799 884.884 67.8679 894.034H12.8717C12.8717 894.034 -8.08003 880.964 19.4191 850.884C66.5589 557.992 75.2949 510.919 75.2949 510.919Z" fill="#4E5C93"/>
<path fill-rule="evenodd" clip-rule="evenodd" d="M263.034 512.832C263.034 512.832 217.436 499.151 168.987 560.607C164.827 847.574 160.701 853.934 160.701 853.934C160.701 853.934 148.622 879.364 165.645 892.434H222.378C222.378 892.434 237.076 875.734 230.529 857.424C260.647 605.064 263.034 512.832 263.034 512.832Z" fill="#4E5C93"/>
<path fill-rule="evenodd" clip-rule="evenodd" d="M118.997 153.686L123.355 77.7713H195.372L195.304 159.787L174.648 199.015L118.997 153.686Z" fill="#FFC2BD"/>
<path fill-rule="evenodd" clip-rule="evenodd" d="M146.781 35.4943C146.781 35.4943 186.937 25.0333 197.849 43.7753C208.461 62.0033 209.196 127.896 188.247 137.92C171.17 146.091 136.305 142.278 128.013 110.462C128.013 110.462 121.029 86.0523 123.648 64.2593C126.265 42.4673 146.781 35.4943 146.781 35.4943Z" fill="#FFC2BD"/>
<path fill-rule="evenodd" clip-rule="evenodd" d="M128.013 91.2833C128.013 91.2833 117.101 70.3613 108.809 81.6943C100.516 93.0263 114.482 113.948 126.703 113.075C138.925 112.205 128.013 91.2833 128.013 91.2833Z" fill="#FFC2BD"/>
<path fill-rule="evenodd" clip-rule="evenodd" d="M204.832 81.6953C204.832 81.6953 210.07 56.4153 203.96 40.7233C197.849 25.0323 189.992 9.34226 184.318 17.6233C183.445 13.7003 178.207 5.85428 174.28 3.23928C170.35 0.624276 158.129 17.6233 158.129 17.6233C158.129 17.6233 159.002 9.77728 154.2 14.5733C149.4 19.3663 120.156 34.1853 115.356 42.0313C110.553 49.8763 113.104 78.7183 113.104 78.7183C113.104 78.7183 122.49 77.8463 127.509 95.7183C126.199 81.3343 132.195 73.8163 135.272 70.9553C136.439 69.8703 137.109 68.3633 137.231 66.7773C137.462 63.7303 137.805 58.6153 137.933 53.6183C137.991 51.4153 139.602 49.5943 141.777 49.2183C163.906 45.3903 188.232 48.8333 196.897 50.3243C198.855 50.6603 200.356 52.2323 200.617 54.1993L202.8 70.5473C202.8 70.5473 203.96 73.4123 204.832 81.6953Z" fill="#253368"/>
<path d="M150.878 75.8733C151.061 75.8243 151.251 75.8063 151.439 75.8183L151.627 75.8403L165.783 78.3113C166.732 78.4773 167.367 79.3793 167.201 80.3273C167.046 81.2153 166.242 81.8282 165.36 81.7642L165.182 81.7432L151.405 79.3373L144.393 81.1993C143.52 81.4303 142.626 80.9583 142.313 80.1333L142.259 79.9632C142.027 79.0912 142.499 78.1983 143.326 77.8863L143.496 77.8323L150.878 75.8733Z" fill="#253368"/>
<path d="M193.909 74.3453C194.149 74.2813 194.4 74.2703 194.644 74.3113L194.826 74.3512L200.283 75.8753C201.211 76.1343 201.752 77.0953 201.493 78.0223C201.25 78.8903 200.389 79.4202 199.517 79.2692L199.343 79.2302L194.345 77.8332L180.838 81.4162C179.965 81.6482 179.071 81.1763 178.759 80.3503L178.704 80.1803C178.472 79.3083 178.945 78.4153 179.772 78.1043L179.942 78.0492L193.909 74.3453Z" fill="#253368"/>
<path fill-rule="evenodd" clip-rule="evenodd" d="M128.667 99.6733C128.667 99.6733 139.947 108.465 145.839 117.619C154.025 107.486 162.646 103.126 162.646 103.126C162.646 103.126 172.533 110.46 177.771 108.173C179.407 106.211 179.231 104.217 179.231 104.217C179.231 104.217 188.069 107.486 194.288 116.639C196.909 110.101 204.287 101.634 204.287 101.634C204.287 101.634 205.857 144.316 174.429 144.968C142.675 144.968 132.092 127.426 128.492 112.714C127.659 108.104 126.377 96.4043 128.667 99.6733Z" fill="#EFADAB"/>
<path d="M155.235 110.897C155.518 110.181 156.328 109.829 157.045 110.111L157.534 110.293C157.748 110.369 158.013 110.461 158.323 110.565C159.369 110.914 160.544 111.264 161.819 111.59C166.133 112.695 170.486 113.267 174.51 113.025C176.472 112.906 178.3 112.594 179.973 112.072C180.708 111.842 181.491 112.252 181.721 112.986C181.951 113.721 181.541 114.502 180.805 114.732C178.905 115.325 176.855 115.675 174.678 115.806C170.325 116.068 165.698 115.46 161.126 114.289C159.783 113.945 158.545 113.577 157.439 113.208L156.638 112.931L156.022 112.704C155.305 112.422 154.953 111.613 155.235 110.897Z" fill="#D18888"/>
<path d="M176.772 79.7953C177.293 79.8423 177.688 80.2673 177.711 80.7753L177.708 80.9153L177.285 85.5523L177.574 86.9303L177.651 87.3103C177.95 88.7943 178.249 90.3823 178.527 92.0113C178.815 93.6903 179.065 95.3203 179.267 96.8663L179.404 97.9593C180.13 104.017 179.993 107.752 178.406 108.986C176.868 110.181 174.207 109.765 170.531 108.309C169.613 107.946 168.652 107.521 167.662 107.048C166.489 106.487 165.335 105.886 164.249 105.286L162.985 104.568C162.921 104.531 162.871 104.501 162.836 104.48C162.347 104.187 162.188 103.553 162.482 103.065C162.775 102.577 163.41 102.418 163.899 102.711L164.255 102.92C164.547 103.089 164.881 103.278 165.249 103.482C166.302 104.063 167.421 104.645 168.554 105.188C169.504 105.642 170.422 106.047 171.293 106.392C174.261 107.568 176.431 107.907 177.137 107.359C177.879 106.782 177.95 102.992 177.28 97.6123L177.218 97.1333C177.02 95.6163 176.775 94.0123 176.491 92.3583C176.271 91.0723 176.039 89.8103 175.803 88.6073L175.408 86.6513L175.235 85.8393C175.22 85.7703 175.212 85.7003 175.211 85.6293L175.215 85.5243L175.651 80.7283C175.698 80.2083 176.124 79.8143 176.632 79.7913L176.772 79.7953Z" fill="#D18888"/>
<path d="M175.624 121.49C176.195 121.488 176.659 121.947 176.662 122.517C176.665 123.039 176.278 123.472 175.774 123.543L175.634 123.553L168.281 123.588C167.711 123.591 167.247 123.131 167.244 122.562C167.241 122.039 167.628 121.606 168.131 121.535L168.272 121.525L175.624 121.49Z" fill="#D18888"/>
<path fill-rule="evenodd" clip-rule="evenodd" d="M155.511 91.5013C155.511 94.0293 154.044 96.0773 152.237 96.0773C150.43 96.0773 148.964 94.0293 148.964 91.5013C148.964 88.9743 150.43 86.9243 152.237 86.9243C154.044 86.9243 155.511 88.9743 155.511 91.5013Z" fill="#253368"/>
<path fill-rule="evenodd" clip-rule="evenodd" d="M189.883 91.5013C189.883 94.0293 188.419 96.0773 186.609 96.0773C184.802 96.0773 183.336 94.0293 183.336 91.5013C183.336 88.9743 184.802 86.9243 186.609 86.9243C188.419 86.9243 189.883 88.9743 189.883 91.5013Z" fill="#253368"/>
<path d="M157.55 107.192C157.954 106.789 158.608 106.789 159.011 107.192C159.377 107.558 159.411 108.131 159.111 108.535L159.011 108.65L153.335 114.316C152.931 114.719 152.277 114.719 151.874 114.316C151.508 113.95 151.474 113.377 151.774 112.973L151.874 112.857L157.55 107.192Z" fill="#D18888"/>
<path d="M128.61 113.178C129.077 113.063 129.549 113.348 129.664 113.815L129.798 114.306C129.845 114.466 129.902 114.654 129.969 114.869L130.04 115.091C130.374 116.129 130.8 117.288 131.328 118.538C132.836 122.112 134.848 125.687 137.428 129.021C146.885 141.239 161.145 147.044 181.349 142.918C181.82 142.821 182.281 143.125 182.377 143.596C182.474 144.067 182.17 144.527 181.698 144.623C160.821 148.887 145.9 142.813 136.049 130.085C133.37 126.624 131.285 122.919 129.721 119.214C129.173 117.916 128.729 116.709 128.38 115.624L128.138 114.836L127.971 114.231C127.856 113.764 128.142 113.292 128.61 113.178Z" fill="#D18888"/>
<path d="M172.485 132.748C172.976 132.458 173.609 132.621 173.899 133.111C174.106 133.46 174.399 134.05 174.688 134.823C175.412 136.754 175.696 138.749 175.266 140.66C174.819 142.648 173.622 144.346 171.598 145.623C171.115 145.927 170.477 145.783 170.173 145.301C169.868 144.82 170.013 144.183 170.495 143.879C172.055 142.895 172.924 141.662 173.251 140.209C173.579 138.749 173.349 137.134 172.754 135.546C172.51 134.896 172.27 134.412 172.121 134.161C171.831 133.67 171.994 133.038 172.485 132.748Z" fill="#D18888"/>
<path d="M111.19 88.1823C111.598 86.1333 113.209 85.1863 115.817 86.1883C119.94 87.7703 120.365 90.7913 118.969 96.3623C118.202 99.4303 119.263 101.159 122.115 101.729C122.587 101.823 122.893 102.281 122.799 102.753C122.705 103.224 122.245 103.53 121.773 103.436C117.934 102.669 116.272 99.9613 117.278 95.9403C118.481 91.1383 118.174 88.9573 115.191 87.8123C113.615 87.2073 113.101 87.5093 112.899 88.5223C112.841 88.8143 112.823 89.1323 112.834 89.4413L112.862 89.8213L112.874 89.9103C112.951 90.3853 112.629 90.8323 112.154 90.9093C111.679 90.9873 111.231 90.6653 111.153 90.1903L111.119 89.9143C111.066 89.3593 111.074 88.7633 111.19 88.1823Z" fill="#D18888"/>
<path fill-rule="evenodd" clip-rule="evenodd" d="M161.717 120.887C161.643 121.333 161.222 121.634 160.776 121.559C160.329 121.487 160.028 121.064 160.102 120.621C160.177 120.175 160.598 119.874 161.044 119.947C161.49 120.021 161.792 120.442 161.717 120.887Z" fill="#D18888"/>
<path fill-rule="evenodd" clip-rule="evenodd" d="M149.431 123.963C149.356 124.408 148.935 124.709 148.489 124.635C148.043 124.563 147.741 124.14 147.816 123.697C147.89 123.251 148.311 122.95 148.757 123.022C149.204 123.097 149.505 123.517 149.431 123.963Z" fill="#D18888"/>
<path fill-rule="evenodd" clip-rule="evenodd" d="M189.012 126.635C189.169 127.057 188.955 127.528 188.531 127.686C188.108 127.843 187.635 127.627 187.478 127.204C187.321 126.781 187.536 126.311 187.959 126.154C188.382 125.995 188.855 126.212 189.012 126.635Z" fill="#D18888"/>
<path fill-rule="evenodd" clip-rule="evenodd" d="M196.694 122.727C196.85 123.15 196.636 123.62 196.212 123.779C195.789 123.936 195.316 123.719 195.159 123.296C195.002 122.873 195.217 122.403 195.64 122.246C196.064 122.088 196.534 122.304 196.694 122.727Z" fill="#D18888"/>
<path fill-rule="evenodd" clip-rule="evenodd" d="M182.347 129.015C182.504 129.438 182.289 129.908 181.865 130.065C181.442 130.222 180.969 130.007 180.812 129.585C180.655 129.162 180.872 128.692 181.295 128.535C181.719 128.376 182.19 128.593 182.347 129.015Z" fill="#D18888"/>
<path fill-rule="evenodd" clip-rule="evenodd" d="M172.796 127.14C172.953 127.563 172.738 128.033 172.315 128.192C171.891 128.349 171.418 128.132 171.261 127.709C171.104 127.287 171.321 126.816 171.744 126.66C172.168 126.501 172.639 126.717 172.796 127.14Z" fill="#D18888"/>
<path fill-rule="evenodd" clip-rule="evenodd" d="M139.896 120.602C140.055 121.025 139.838 121.497 139.415 121.654C138.991 121.811 138.52 121.594 138.361 121.171C138.204 120.749 138.421 120.278 138.845 120.122C139.268 119.963 139.739 120.179 139.896 120.602Z" fill="#D18888"/>
<path fill-rule="evenodd" clip-rule="evenodd" d="M155.543 132.358C155.469 132.803 155.047 133.104 154.601 133.03C154.155 132.956 153.854 132.535 153.928 132.09C154.002 131.644 154.424 131.343 154.87 131.417C155.316 131.492 155.617 131.912 155.543 132.358Z" fill="#D18888"/>
<path fill-rule="evenodd" clip-rule="evenodd" d="M161.893 131.09C161.818 131.535 161.397 131.836 160.951 131.762C160.505 131.688 160.203 131.267 160.277 130.822C160.352 130.376 160.773 130.075 161.219 130.149C161.665 130.224 161.967 130.644 161.893 131.09Z" fill="#D18888"/>
<path fill-rule="evenodd" clip-rule="evenodd" d="M187.537 133.29C187.463 133.736 187.041 134.037 186.595 133.963C186.151 133.89 185.85 133.468 185.922 133.024C185.996 132.579 186.418 132.278 186.864 132.35C187.31 132.424 187.611 132.845 187.537 133.29Z" fill="#D18888"/>
<path fill-rule="evenodd" clip-rule="evenodd" d="M183.475 123.636C183.4 124.082 182.979 124.383 182.533 124.309C182.089 124.235 181.787 123.814 181.859 123.368C181.934 122.923 182.355 122.622 182.801 122.696C183.247 122.77 183.549 123.191 183.475 123.636Z" fill="#D18888"/>
<path fill-rule="evenodd" clip-rule="evenodd" d="M186.422 115.464C186.348 115.909 185.926 116.21 185.48 116.136C185.034 116.062 184.732 115.641 184.807 115.196C184.881 114.75 185.302 114.449 185.749 114.523C186.195 114.598 186.496 115.018 186.422 115.464Z" fill="#D18888"/>
<path fill-rule="evenodd" clip-rule="evenodd" d="M148.625 129.058C148.551 129.503 148.129 129.804 147.683 129.73C147.239 129.656 146.938 129.235 147.01 128.79C147.084 128.344 147.506 128.043 147.952 128.117C148.398 128.191 148.699 128.612 148.625 129.058Z" fill="#D18888"/>
<path fill-rule="evenodd" clip-rule="evenodd" d="M202.8 171.12L199.526 157.825L184.829 159.133L176.026 192.906L156.534 155.722L113.038 151.289L106.919 172.209C106.919 172.209 135.25 210.65 181.196 203.592C203.89 200.105 202.8 171.12 202.8 171.12Z" fill="#5736FF"/>
<path fill-rule="evenodd" clip-rule="evenodd" d="M257.796 186.81C257.796 186.81 285.731 256.548 259.541 319.747C280.493 357.231 302.316 384.689 315.411 396.893C328.506 409.096 378.735 406.335 382.628 365.512C386.119 328.9 322.149 241.805 312.792 226.037C298.826 202.502 267.398 186.81 257.796 186.81Z" fill="#FFC2BD"/>
<path fill-rule="evenodd" clip-rule="evenodd" d="M348.146 281.392C330.896 251.704 316.572 232.286 311.7 224.077C297.733 200.54 266.308 184.85 256.706 184.85C256.706 184.85 284.639 254.585 258.451 317.787C267.336 333.682 266.351 332.263 274.82 344.156C274.82 344.156 281.365 329.772 306.245 308.85C332.117 287.094 348.146 281.392 348.146 281.392Z" fill="#5736FF"/>
<path d="M275.949 240.086C276.375 239.987 276.801 240.251 276.9 240.677L276.978 241.037C277.038 241.327 277.105 241.67 277.177 242.067C277.38 243.196 277.584 244.527 277.774 246.053C278.91 255.196 279.052 266.481 277.561 279.58C275.5 297.692 270.531 316.96 262.018 337.054C261.848 337.457 261.383 337.645 260.98 337.475C260.577 337.305 260.389 336.84 260.559 336.438C269.012 316.486 273.943 297.365 275.987 279.401C277.463 266.431 277.323 255.271 276.202 246.248C276.042 244.965 275.873 243.825 275.703 242.832L275.534 241.897C275.456 241.487 275.395 241.199 275.357 241.036C275.258 240.611 275.523 240.185 275.949 240.086Z" fill="#253368"/>
<path fill-rule="evenodd" clip-rule="evenodd" d="M246.666 418.032C180.213 409.533 105.903 414.402 105.903 414.402L108.522 395.772C108.522 395.772 192.979 384.983 245.138 398.929C246.338 407.866 246.666 418.032 246.666 418.032Z" fill="#253368"/>
<path d="M309.359 337.854C309.71 337.405 310.359 337.325 310.809 337.676C311.217 337.995 311.321 338.559 311.072 338.997L310.987 339.123L289.164 367.019C288.812 367.468 288.163 367.547 287.714 367.197C287.305 366.878 287.202 366.313 287.451 365.876L287.536 365.749L309.359 337.854Z" fill="#D18888"/>
<path d="M182.763 414.91C183.356 414.932 183.829 415.392 183.881 415.966L183.879 416.28L183.608 422.968L183.309 429.524C183.157 432.705 182.989 436.048 182.803 439.53L182.722 441.031C181.766 458.618 180.557 476.206 179.07 492.757L178.788 495.848C176.34 522.274 173.389 543.434 169.884 557.434C169.728 558.056 169.097 558.435 168.474 558.279C167.851 558.124 167.472 557.493 167.628 556.871L167.973 555.461C171.292 541.605 174.115 521.073 176.472 495.634C177.991 479.247 179.232 461.755 180.217 444.198L180.399 440.905C180.727 434.877 181.002 429.246 181.229 424.135L181.424 419.552L181.56 416.031C181.583 415.39 182.121 414.888 182.763 414.91Z" fill="#253368"/>
<path d="M208.05 415.782C208.692 415.789 209.207 416.314 209.201 416.955L209.144 421.047C209.09 424.3 209.017 427.924 208.919 431.827C208.661 442.121 208.288 452.415 207.778 462.127L207.648 464.542C206.094 492.583 203.791 509.67 200.021 512.599C198.628 513.681 196.948 514.853 195.014 516.103C193.565 517.039 191.986 518.01 190.297 519.01C187.737 520.525 185.026 522.044 182.291 523.517L180.648 524.395C179.728 524.883 178.86 525.336 178.058 525.75L176.259 526.668C175.685 526.954 174.986 526.722 174.699 526.148C174.412 525.575 174.644 524.877 175.219 524.59L175.769 524.313L177.599 523.372C178.218 523.05 178.873 522.706 179.558 522.344C182.816 520.616 186.074 518.809 189.111 517.012L190.738 516.037C191.796 515.394 192.803 514.765 193.75 514.153C195.632 512.937 197.259 511.802 198.594 510.766C201.487 508.518 203.856 490.938 205.326 464.414C205.857 454.828 206.251 444.607 206.527 434.337L206.655 429.214C206.694 427.54 206.728 425.924 206.758 424.376L206.85 418.911L206.875 416.932C206.882 416.291 207.407 415.776 208.05 415.782Z" fill="#253368"/>
<path fill-rule="evenodd" clip-rule="evenodd" d="M165.7 412.038V393.426C165.7 390.994 167.557 389.004 169.907 388.934C177.702 388.701 195.025 388.493 210.739 390.483C212.93 390.761 214.584 392.669 214.584 394.95V412.448C214.584 414.952 212.62 416.974 210.197 416.943C201.289 416.833 180.998 416.592 170.01 416.53C167.619 416.518 165.7 414.509 165.7 412.038Z" fill="#E4EBF7"/>
<path fill-rule="evenodd" clip-rule="evenodd" d="M170.741 408.825L170.748 396.506C170.748 394.897 172.264 393.579 174.182 393.534C180.54 393.381 194.673 393.252 207.492 394.572C209.28 394.757 210.629 396.021 210.629 397.531L210.625 409.114C210.625 410.77 209.02 412.107 207.045 412.088C199.777 412.012 183.221 411.845 174.259 411.802C172.307 411.791 170.741 410.461 170.741 408.825Z" fill="#253368"/>
<path fill-rule="evenodd" clip-rule="evenodd" d="M210.493 392.194L169.226 410.586L170.93 414.331L212.54 395.6L210.493 392.194Z" fill="#E4EBF7"/>
<path fill-rule="evenodd" clip-rule="evenodd" d="M212.266 409.996L170.901 391.819L169.268 395.597L211.113 413.797L212.266 409.996Z" fill="#E4EBF7"/>
<path d="M128.401 414.935C129.03 415.066 129.433 415.681 129.302 416.309L129.081 417.275C129.035 417.469 128.985 417.676 128.93 417.894C128.62 419.139 128.242 420.525 127.792 422.017C126.506 426.28 124.906 430.544 122.967 434.532L122.467 435.539C115.416 449.466 105.897 456.292 93.7169 451.811C93.1139 451.589 92.8059 450.922 93.0279 450.32C93.2499 449.718 93.9179 449.41 94.5209 449.632C105.556 453.692 114.231 447.182 120.874 433.518C122.754 429.652 124.313 425.5 125.565 421.347C125.93 420.136 126.247 418.997 126.517 417.951L126.819 416.738L127.025 415.834C127.156 415.206 127.773 414.804 128.401 414.935Z" fill="#253368"/>
<path d="M186.112 530.504C186.433 530.012 187.065 529.842 187.583 530.087L187.721 530.164L213.909 547.163C214.447 547.512 214.6 548.232 214.25 548.769C213.929 549.262 213.297 549.431 212.779 549.187L212.641 549.11L186.454 532.111C185.915 531.761 185.762 531.042 186.112 530.504Z" fill="#253368"/>
<path d="M174.674 526.238C175.17 525.92 175.815 526.025 176.187 526.46L176.281 526.587L188.067 544.892C188.414 545.431 188.258 546.15 187.717 546.496C187.222 546.814 186.576 546.71 186.205 546.274L186.11 546.148L174.325 527.843C173.978 527.304 174.134 526.585 174.674 526.238Z" fill="#253368"/>
<path fill-rule="evenodd" clip-rule="evenodd" d="M9.28671 586.605L6.0047 485.182C5.8994 481.931 8.37381 479.174 11.6206 478.92L145.977 467.172C149.42 466.904 152.398 469.544 152.539 472.99L156.988 581.975C157.126 585.364 154.464 588.21 151.07 588.305L15.5449 592.492C12.1928 592.582 9.39411 589.953 9.28671 586.605Z" fill="#FFC2BD"/>
<path fill-rule="evenodd" clip-rule="evenodd" d="M3.34876 587.749L0.00276145 484.352C-0.0860386 481.642 1.97727 479.342 4.68307 479.132L141.055 467.227C143.926 467.004 146.409 469.203 146.527 472.076L151.06 583.138C151.176 585.961 148.955 588.335 146.126 588.413L8.56396 592.654C5.76946 592.732 3.43966 590.54 3.34876 587.749Z" fill="#5736FF"/>
<path fill-rule="evenodd" clip-rule="evenodd" d="M43.0499 193.785C43.0499 193.785 19.481 199.015 9.00517 239.114C-1.47073 279.211 2.45777 315.825 5.07667 366.385C7.69567 416.943 26.0284 505.422 33.8853 537.676C41.7399 569.929 44.6169 580.695 52.6519 592.156C57.2349 598.695 64.8729 600.221 70.1129 598.259C77.0939 605.233 88.2249 600.44 88.2249 600.44C88.2249 600.44 105.029 604.798 108.522 595.209C122.269 597.17 116.379 578.21 118.124 571.237C119.869 564.261 112.669 550.315 93.4629 531.137C81.2419 509.345 92.1529 314.952 97.3909 290.545C102.629 266.137 102.41 199.015 43.0499 193.785Z" fill="#FFC2BD"/>
<path fill-rule="evenodd" clip-rule="evenodd" d="M94.1179 321.927C94.1179 321.927 106.775 243.471 94.5539 219.063C82.3319 194.656 62.7479 176.133 31.7024 199.014C-4.96311 226.037 2.458 304.927 2.458 304.927C2.458 304.927 43.0499 314.081 94.1179 321.927Z" fill="#5736FF"/>
<path d="M61.9358 208.646C64.0218 208.516 66.3758 208.65 69.1078 209.276C73.1088 210.192 77.0308 212.015 80.6978 214.958C91.6738 223.768 98.6108 240.966 99.6748 268.741L99.7088 269.692L94.9068 324.611C94.8688 325.046 94.4848 325.368 94.0488 325.33C93.6558 325.296 93.3558 324.981 93.3278 324.602L93.3288 324.473L98.1278 269.65C97.1988 241.833 90.4028 224.777 79.7048 216.191C76.2318 213.403 72.5288 211.682 68.7538 210.818C66.3988 210.279 64.3488 210.128 62.5258 210.2L61.9728 210.23C61.8078 210.242 61.3768 210.271 61.2898 210.261C60.8558 210.21 60.5448 209.817 60.5958 209.383C60.6468 208.949 61.0408 208.638 61.4748 208.689C61.4078 208.682 61.6198 208.665 61.9358 208.646Z" fill="#253368"/>
<path d="M110.396 172.593C110.531 172.224 110.912 172.015 111.287 172.086L111.411 172.12L140.218 182.581C140.629 182.73 140.841 183.184 140.692 183.595C140.557 183.964 140.175 184.173 139.801 184.102L139.676 184.068L110.87 173.607C110.459 173.458 110.247 173.004 110.396 172.593Z" fill="#253368"/>
<path d="M175.804 192.146C176.224 192.024 176.664 192.265 176.786 192.685L176.936 193.218L177.31 194.602C177.4 194.944 177.494 195.305 177.591 195.684L177.738 196.264C178.45 199.09 179.162 202.216 179.827 205.553C181.395 213.431 182.454 221.235 182.77 228.537C182.981 233.397 182.852 237.898 182.342 241.969C182.288 242.403 181.892 242.71 181.458 242.656C181.024 242.602 180.716 242.207 180.77 241.773C181.268 237.797 181.395 233.382 181.188 228.605C180.876 221.394 179.827 213.666 178.273 205.862C177.614 202.552 176.908 199.452 176.202 196.65L175.778 195.006L175.291 193.218C175.281 193.183 175.272 193.152 175.264 193.126C175.142 192.706 175.384 192.267 175.804 192.146Z" fill="#253368"/>
<path fill-rule="evenodd" clip-rule="evenodd" d="M565.883 242.506C565.883 242.506 588.507 239.218 594.487 263.169C616.41 271.151 610.431 295.099 610.431 295.099C610.431 295.099 621.443 313.912 599.569 323.552C597.819 342.825 575.945 339.323 575.945 339.323C575.945 339.323 570.696 354.217 554.07 348.083C536.132 362.053 502.329 359.25 490.328 342.171C466.528 359.962 425.116 338.246 430.312 322.006C402.516 320.32 389.041 290.801 405.325 265.725C392.816 245.89 407.077 234.183 407.077 234.183C407.077 234.183 403.141 188.623 434.64 182.489C450.824 157.956 485.824 177.67 485.824 177.67C485.824 177.67 509.009 172.852 517.323 193.004C543.232 196.993 542.015 211.256 544.009 223.231C567.194 224.546 565.883 242.506 565.883 242.506Z" fill="#253368"/>
<path fill-rule="evenodd" clip-rule="evenodd" d="M557.635 459.024L559.196 458.46C570.707 454.313 576.68 441.606 572.536 430.082L533.101 320.374C528.959 308.847 516.272 302.868 504.761 307.015L503.198 307.579C491.689 311.727 485.718 324.433 489.862 335.958L529.295 445.666C533.437 457.193 546.126 463.174 557.635 459.024Z" fill="#FFC999"/>
<path fill-rule="evenodd" clip-rule="evenodd" d="M506.489 381.938L489.423 334.458C485.309 323.013 491.672 310.142 503.564 305.855C515.456 301.568 528.552 307.427 532.666 318.872L549.57 365.902L506.489 381.938Z" fill="#5736FF"/>
<path d="M489.412 334.462C489.29 334.123 488.916 333.947 488.577 334.069C488.276 334.178 488.104 334.485 488.155 334.791L488.185 334.905L505.253 382.385C505.362 382.689 505.673 382.861 505.98 382.807L506.094 382.776L549.172 366.739C549.51 366.613 549.682 366.237 549.556 365.899C549.445 365.599 549.136 365.429 548.831 365.484L548.718 365.515L506.258 381.321L489.412 334.462Z" fill="#4E5C93"/>
<path fill-rule="evenodd" clip-rule="evenodd" d="M515.763 522.464C533.091 522.871 546.684 537.486 545.865 554.823L537.051 741.221C536.374 755.579 524.377 766.769 510.028 766.432C495.679 766.093 484.222 754.35 484.219 739.977L484.172 553.369C484.168 536.013 498.433 522.056 515.763 522.464Z" fill="#FFC999"/>
<path fill-rule="evenodd" clip-rule="evenodd" d="M443.256 528.581C426.057 526.449 410.472 538.916 408.755 556.188L390.264 741.872C388.84 756.174 399.073 769 413.319 770.767C427.562 772.532 440.611 762.592 442.712 748.374L469.996 563.779C472.534 546.608 460.457 530.713 443.256 528.581Z" fill="#FFC999"/>
<path fill-rule="evenodd" clip-rule="evenodd" d="M493.991 220.26C475.826 223.453 470.301 209.687 470.301 209.687C470.301 209.687 462.808 190.301 460.887 202.203C459.867 208.527 450.102 200.133 445.611 206.878C442.591 211.416 450.142 217.264 440.325 229.363C434.639 236.372 457.077 241.965 443.233 254.885C443.233 254.885 453.076 270.656 436.17 275.799L434.378 294.291C433.337 305.054 441.792 314.368 452.59 314.351C462.887 314.336 471.134 305.807 470.822 295.503L470.136 272.955C496.386 272.955 497.669 236.831 493.991 220.26Z" fill="#FFC999"/>
<path d="M462.122 239.518C461.682 239.077 460.969 239.077 460.529 239.518C460.089 239.958 460.089 240.673 460.529 241.113C461.118 241.703 462.185 242.547 463.686 243.383C466.646 245.031 470.041 245.889 473.779 245.526C474.398 245.466 474.851 244.914 474.791 244.294C474.731 243.674 474.18 243.22 473.561 243.28C470.315 243.595 467.365 242.851 464.781 241.411C464.019 240.987 463.348 240.533 462.777 240.081L462.362 239.738C462.252 239.643 462.172 239.568 462.122 239.518Z" fill="#F5222D"/>
<path d="M475.609 222.254V222.104C475.576 221.743 475.315 221.442 474.963 221.358L474.827 221.337C474.408 221.307 474.039 221.589 473.945 221.985L473.922 222.157L473.921 222.194C473.892 222.995 474.036 224.217 474.495 225.806C475.109 227.932 476.172 230.257 477.776 232.748L478.054 233.172L477.609 233.448C476.069 234.396 474.714 235.19 473.54 235.844L472.5 236.411C472.215 236.563 471.959 236.695 471.733 236.81L471.299 237.023C470.876 237.219 470.691 237.722 470.886 238.146C471.082 238.57 471.584 238.755 472.007 238.559L472.36 238.388L473.006 238.057C473.281 237.912 473.586 237.749 473.919 237.566L474.816 237.067C476.212 236.279 477.837 235.31 479.696 234.142C480.105 233.885 480.217 233.337 479.94 232.941C478.001 230.159 476.775 227.609 476.118 225.336C475.71 223.922 475.587 222.88 475.609 222.254Z" fill="#DD936F"/>
<path d="M450.287 221.132C449.667 221.132 449.165 221.635 449.165 222.255C449.165 226.569 452.41 230.102 456.461 230.102C460.511 230.102 463.754 226.569 463.754 222.255C463.754 221.635 463.252 221.132 462.633 221.132C462.014 221.132 461.512 221.635 461.512 222.255C461.512 225.369 459.229 227.857 456.461 227.857C453.692 227.857 451.408 225.369 451.408 222.255C451.408 221.635 450.906 221.132 450.287 221.132Z" fill="#253368"/>
<path d="M479.811 221.904C479.223 221.904 478.747 222.381 478.747 222.969C478.747 227.231 481.66 230.759 485.364 230.759C489.069 230.759 491.983 227.232 491.983 222.969C491.983 222.381 491.506 221.904 490.919 221.904C490.332 221.904 489.856 222.381 489.856 222.969C489.856 226.135 487.796 228.629 485.364 228.629C482.934 228.629 480.874 226.135 480.874 222.969C480.874 222.381 480.398 221.904 479.811 221.904Z" fill="#253368"/>
<path d="M463.062 208.79C458.776 207.412 454.241 207.231 449.959 209.042C449.175 209.373 448.411 209.77 447.669 210.233C447.144 210.562 446.984 211.254 447.312 211.78C447.64 212.306 448.332 212.466 448.857 212.138C449.497 211.737 450.156 211.396 450.831 211.11C454.546 209.539 458.556 209.699 462.376 210.928C463.018 211.134 463.598 211.355 464.103 211.575L464.53 211.769C464.601 211.803 464.655 211.831 464.693 211.85C465.241 212.14 465.919 211.93 466.208 211.381C466.497 210.833 466.287 210.154 465.739 209.865L465.377 209.684C464.832 209.426 464.047 209.107 463.062 208.79Z" fill="#253368"/>
<path d="M454.458 268.135C454.048 267.912 453.535 268.063 453.312 268.474C453.089 268.884 453.241 269.398 453.651 269.621C458.979 272.524 464.527 273.989 470.102 274.067C470.569 274.073 470.952 273.7 470.959 273.232C470.965 272.765 470.592 272.381 470.126 272.375C464.825 272.301 459.547 270.907 454.458 268.135Z" fill="#DD936F"/>
<path fill-rule="evenodd" clip-rule="evenodd" d="M431.241 456.486C412.907 457.923 369.394 573.937 352.955 615.421C355.144 623.776 368.514 638.516 368.514 638.516C368.514 638.516 367.083 645.168 366.203 649.163C381.849 662.048 412.104 669.048 412.104 669.048L412.172 674.763C460.549 697.068 525.33 675.691 525.33 675.691C525.33 675.691 526.538 674.452 525.671 669.97C547.637 669.714 594.667 641.81 594.667 641.81L587.981 628.003L607.326 608.179C607.326 608.179 555.088 511.95 539.009 485.034C524.893 461.403 511.654 454.601 511.654 454.601C511.654 454.601 463.77 453.934 431.241 456.486Z" fill="#4E5C93"/>
<path d="M514.736 477.323C514.538 476.918 514.05 476.751 513.646 476.949C513.282 477.127 513.11 477.541 513.224 477.917L513.272 478.041L592.814 640.756L592.069 641.305L591.447 641.752C589.876 642.869 588.024 644.114 585.903 645.456C579.837 649.295 572.837 653.134 564.997 656.719C552.808 662.291 539.729 666.719 525.918 669.575C525.477 669.667 525.194 670.098 525.285 670.54C525.376 670.981 525.807 671.265 526.248 671.174C540.184 668.291 553.378 663.824 565.674 658.203C573.584 654.587 580.648 650.712 586.773 646.836C588.681 645.629 590.375 644.498 591.848 643.465L592.39 643.083C592.837 642.765 593.237 642.475 593.588 642.215L594.343 641.646C594.608 641.438 594.715 641.092 594.624 640.777L594.573 640.644L514.736 477.323Z" fill="#253368"/>
<path d="M418.094 510.392C417.715 510.248 417.296 510.406 417.1 510.746L417.043 510.866L364.634 649.701C364.499 650.059 364.63 650.462 364.949 650.672L365.324 650.913C365.629 651.106 365.988 651.33 366.4 651.582L367.454 652.217C368.369 652.762 369.38 653.345 370.48 653.96C374.878 656.416 379.802 658.872 385.139 661.164C393.844 664.903 402.782 667.833 411.735 669.646C412.177 669.736 412.606 669.45 412.696 669.008C412.785 668.566 412.5 668.136 412.058 668.047C403.223 666.258 394.39 663.362 385.781 659.664C380.499 657.396 375.624 654.965 371.274 652.535C369.753 651.685 368.406 650.896 367.249 650.189L366.394 649.658L418.568 511.443C418.711 511.064 418.553 510.645 418.214 510.448L418.094 510.392Z" fill="#253368"/>
<path d="M452.147 459.588C451.749 459.509 451.362 459.733 451.224 460.101L451.18 460.269L447.465 479.065C446.364 484.667 445.195 490.645 443.968 496.943L441.649 508.889C437.401 530.835 433.184 552.972 429.174 574.488L428.086 580.341C427.314 584.502 426.555 588.611 425.81 592.663L422.961 608.282C418.274 634.156 414.356 656.807 411.374 675.45C411.311 675.843 411.54 676.224 411.916 676.352C414.291 677.16 416.695 677.908 419.127 678.598C448.422 686.903 479.673 686.433 509.185 680.657C513.478 679.817 517.387 678.921 520.858 678.021L521.794 677.775C522.72 677.529 523.565 677.296 524.327 677.078L526.169 676.53C526.26 676.502 526.335 676.478 526.395 676.459C526.745 676.345 526.97 676.015 526.959 675.657L526.943 675.522L490.467 492.459C490.379 492.017 489.95 491.73 489.509 491.818C489.112 491.898 488.84 492.254 488.854 492.646L488.869 492.778L525.201 675.119L524.738 675.258C523.918 675.501 522.975 675.768 521.915 676.053L521.376 676.198C517.71 677.171 513.519 678.146 508.872 679.055C479.59 684.786 448.583 685.253 419.571 677.028C417.767 676.516 415.979 675.972 414.207 675.395L413.094 675.023L414.277 667.725C417.506 648.043 421.644 624.479 426.523 597.814L427.974 589.909C428.538 586.85 429.109 583.759 429.688 580.639L431.875 568.906C435.92 547.287 440.156 525.122 444.408 503.221L449.362 477.862L452.786 460.548C452.874 460.106 452.588 459.677 452.147 459.588Z" fill="#253368"/>
<path d="M471.568 462.716C471.163 462.74 470.845 463.055 470.803 463.445L470.8 463.578L479.373 615.827C479.398 616.277 479.783 616.621 480.232 616.597C480.637 616.573 480.956 616.258 480.997 615.868L481 615.735L472.427 463.486C472.402 463.036 472.017 462.692 471.568 462.716Z" fill="#253368"/>
<path d="M494.372 459.359C494.239 458.929 493.782 458.688 493.352 458.822C492.966 458.942 492.732 459.325 492.787 459.714L492.816 459.843L525.002 563.611C525.136 564.041 525.592 564.282 526.022 564.148C526.409 564.028 526.642 563.645 526.587 563.256L526.558 563.127L494.372 459.359Z" fill="#253368"/>
<path fill-rule="evenodd" clip-rule="evenodd" d="M515.156 456.483L513.773 445.99C513.773 445.99 472.397 446.238 431.816 444.201C430.79 448.861 429.614 457.242 429.614 457.242C433.024 454.437 469.885 462.633 515.156 456.483Z" fill="#4E5C93"/>
<path d="M433.969 456.428C433.519 456.407 433.138 456.755 433.117 457.205C433.096 457.655 433.443 458.037 433.893 458.058L438.259 458.254C454.951 458.972 471.099 459.299 485.611 459.299L489.358 459.292C495.351 459.268 500.686 459.186 504.772 459.067L507.207 458.986C507.758 458.965 508.255 458.943 508.694 458.922L509.581 458.873C509.954 458.85 510.251 458.828 510.471 458.806L510.621 458.789C510.766 458.772 510.871 458.754 510.965 458.726L511.029 458.718C511.105 458.7 511.172 458.628 511.505 458.271L511.381 457.603C511.289 457.168 511.231 457.162 511.014 457.141C510.843 457.082 510.667 457.083 510.507 457.132L510.408 457.17L510.047 457.205L508.923 457.276C508.419 457.302 507.821 457.329 507.14 457.355L505.356 457.417C501.625 457.533 496.744 457.617 491.218 457.651L489.352 457.66C472.687 457.725 453.637 457.349 433.969 456.428Z" fill="#253368"/>
<path fill-rule="evenodd" clip-rule="evenodd" d="M513.226 333.795C517.734 343.632 526.084 360.563 527.123 371.749C528.808 389.883 517.017 403.379 517.017 403.379C517.017 403.379 516.899 398.043 515.753 445.03C461.742 454.517 427.307 444.43 427.307 444.43L428.359 431.974L419.587 402.534C419.587 402.534 414.258 391.569 403.31 367.111C395.697 350.107 396.226 329.024 397.258 317.754C397.697 312.925 394.153 309.624 398.815 308.312C415.102 303.727 428.174 302.824 428.174 302.824L429.71 292.065C429.971 290.223 431.547 288.852 433.406 288.852H473.11C474.812 288.852 476.303 290.01 476.727 291.664L479.635 303.026L510.703 304.846C514.56 305.603 510.973 311.801 511.376 315.717L513.226 333.795Z" fill="#5736FF"/>
<path d="M439.295 302.703C438.919 302.703 438.614 303.009 438.614 303.385C438.614 303.72 438.855 303.999 439.173 304.056L439.295 304.067H475.043C475.419 304.067 475.724 303.762 475.724 303.385C475.724 303.051 475.483 302.772 475.165 302.714L475.043 302.703H439.295Z" fill="#4E5C93"/>
<path d="M428.429 299.957C428.129 299.578 427.579 299.515 427.201 299.815C426.861 300.085 426.775 300.558 426.98 300.926L427.059 301.044L465.803 349.963C466.206 350.472 466.986 350.372 467.266 349.819L467.318 349.694L482.472 303.706C482.623 303.248 482.374 302.753 481.916 302.601C481.503 302.465 481.062 302.653 480.867 303.027L480.812 303.158L466.167 347.603L428.429 299.957Z" fill="#CCD7EE"/>
<path fill-rule="evenodd" clip-rule="evenodd" d="M477.306 353.119C481.27 359.814 479.484 368.21 473.316 371.873C467.149 375.536 458.933 373.076 454.969 366.381C451.005 359.688 452.791 351.29 458.959 347.627C465.127 343.964 473.34 346.424 477.306 353.119Z" fill="#CCD7EE"/>
<path fill-rule="evenodd" clip-rule="evenodd" d="M478.731 353.086C482.695 359.781 480.909 368.177 474.741 371.84C468.573 375.502 460.358 373.045 456.392 366.35C452.43 359.654 454.216 351.256 460.383 347.593C466.551 343.933 474.764 346.39 478.731 353.086Z" fill="#E4EBF7"/>
<path fill-rule="evenodd" clip-rule="evenodd" d="M476.212 354.253C479.29 359.451 477.904 365.971 473.116 368.814C468.325 371.658 461.947 369.749 458.87 364.551C455.792 359.351 457.178 352.833 461.969 349.99C466.757 347.146 473.135 349.055 476.212 354.253Z" fill="#FAAD14"/>
<path d="M512.78 323.836C512.446 323.848 512.178 324.1 512.132 324.42L512.125 324.543L512.545 335.718L512.629 336.021L518.744 347.101C518.911 347.409 519.053 347.671 519.162 347.876L519.891 349.259C521.522 352.393 522.684 354.914 523.603 357.36C525.568 362.594 526.444 367.668 526.444 374.279C526.444 376.921 526.003 379.933 525.176 383.244C524.32 386.669 523.077 390.316 521.548 394.063C520.473 396.699 519.32 399.228 518.168 401.56L517.699 402.498C517.472 402.946 517.256 403.363 517.055 403.746L516.637 404.528L516.552 404.832L515.687 428.843C515.465 435.222 515.309 439.969 515.237 442.643L515.198 444.291L514.104 444.491C488.362 449.086 463.357 449.167 441.158 446.484L439.745 446.309C436.441 445.89 433.504 445.441 430.97 444.993L429.499 444.723L428.465 444.52L429.668 432.259L429.636 431.975L415.471 389.687C415.352 389.33 414.966 389.138 414.609 389.257C414.292 389.364 414.105 389.681 414.151 390.001L414.18 390.121L428.299 432.271L427.049 444.997C427.019 445.297 427.19 445.576 427.459 445.691L427.58 445.729L428.392 445.897L429.245 446.063C429.547 446.121 429.869 446.18 430.209 446.242L430.733 446.336C433.288 446.788 436.247 447.24 439.574 447.662C462.722 450.597 488.975 450.552 515.997 445.532C516.32 445.472 516.554 445.191 516.554 444.862L516.575 443.618C516.608 442.191 516.681 439.775 516.789 436.516L517.309 421.507L517.908 405.042L518.26 404.381L518.687 403.559C518.909 403.126 519.144 402.66 519.389 402.165C520.555 399.805 521.721 397.247 522.809 394.579C524.361 390.776 525.624 387.07 526.497 383.575C527.35 380.164 527.806 377.044 527.806 374.279C527.806 367.508 526.902 362.272 524.878 356.88C523.871 354.198 522.585 351.445 520.74 347.944L519.96 346.485C518.995 344.708 517.155 341.38 515.74 338.823L513.901 335.502L513.487 324.492C513.474 324.157 513.223 323.888 512.903 323.842L512.78 323.836Z" fill="#4E5C93"/>
<path fill-rule="evenodd" clip-rule="evenodd" d="M559.787 431.219C560.074 438.278 554.879 444.309 547.991 444.911L415.062 456.543C402.81 457.2 392.38 447.498 391.871 434.969C391.357 422.33 401.131 411.759 413.505 411.57L547.505 418.551C554.185 418.898 559.509 424.39 559.787 431.219Z" fill="#FFC999"/>
<path fill-rule="evenodd" clip-rule="evenodd" d="M418.793 456.12L417.855 456.256C405.971 457.967 395.147 450.187 393.68 438.876L379.803 331.92C378.336 320.61 386.78 310.054 398.664 308.341L399.602 308.206C411.486 306.494 422.309 314.273 423.774 325.585L437.654 432.541C439.119 443.852 430.676 454.409 418.793 456.12Z" fill="#FFC999"/>
<path fill-rule="evenodd" clip-rule="evenodd" d="M431.377 381.977L425.288 328.302C424.164 315.653 412.745 306.408 399.912 307.755C387.08 309.102 377.5 320.551 378.625 333.2L383.244 385.168L431.377 381.977Z" fill="#5736FF"/>
<path d="M426.015 327.559L425.894 327.56C425.566 327.594 425.317 327.859 425.292 328.177L425.293 328.298L430.638 380.756L383.868 384.425C383.539 384.451 383.284 384.71 383.251 385.028L383.25 385.149C383.276 385.479 383.534 385.734 383.852 385.767L383.973 385.768L431.429 382.045C431.763 382.019 432.02 381.752 432.047 381.429L432.045 381.305L426.631 328.162C426.598 327.833 426.333 327.584 426.015 327.559Z" fill="#4E5C93"/>
<path fill-rule="evenodd" clip-rule="evenodd" d="M421.647 431.7C421.183 438.994 425.723 445.309 431.953 446.034L550.482 460.411C561.58 461.273 573.069 451.02 573.894 438.074C574.727 425.014 566.161 413.937 554.939 413.558L433.156 418.784C427.087 419.043 422.097 424.645 421.647 431.7Z" fill="#FFC999"/>
<path fill-rule="evenodd" clip-rule="evenodd" d="M392.002 427.682C387.873 432.911 395.722 436.75 395.722 436.75C395.722 436.75 392.816 440.807 399.414 441.999C405.273 443.059 441.606 447.337 441.606 447.337L442.308 419.81L428.458 417.936C428.458 417.936 420.594 410.524 416.532 407.625C412.474 404.727 401.95 405.637 396.499 402.973C391.049 400.308 393.741 410.977 406.708 412.711C386.28 412.883 383.626 407.445 383.138 412.791C382.712 417.477 387.894 417.706 387.894 417.706C387.894 417.706 382.084 422.744 392.002 427.682Z" fill="#FFC999"/>
<path d="M397.185 402.738C395.567 401.947 394.2 402.077 393.642 403.246C393.183 404.207 393.501 405.606 394.41 407.044C395.653 409.011 397.729 410.765 400.433 412.038L400.964 412.276L400.555 412.257C397.673 412.094 395.063 411.802 392.582 411.399L391.841 411.274C391.536 411.221 386.089 410.115 385.227 410.121C383.59 410.132 382.932 411.041 382.738 413.168C382.513 415.626 383.616 417.292 385.529 418.211C385.864 418.372 386.197 418.5 386.518 418.6L386.805 418.683L386.772 418.731C384.719 421.802 385.586 425.268 391.055 428.301L391.241 428.4L391.198 428.467C389.57 431.151 390.448 433.716 392.875 435.902L393.122 436.12C393.551 436.485 394 436.819 394.455 437.12L394.91 437.41L395.069 437.505L395.041 437.57C394.756 438.262 394.605 438.974 394.663 439.677L394.7 439.978C394.992 441.701 396.507 442.83 399.323 443.162L402.988 443.548C408.272 444.128 419.345 445.385 435.214 447.205L504.334 455.171L552.953 460.801C553.368 460.849 553.744 460.551 553.792 460.135C553.84 459.719 553.542 459.343 553.127 459.294L418.384 443.755C408.041 442.578 401.707 441.871 400.036 441.709L399.833 441.69C397.396 441.472 396.366 440.748 396.193 439.725C396.113 439.249 396.214 438.699 396.441 438.147C396.547 437.89 396.65 437.699 396.71 437.605C396.955 437.223 396.813 436.713 396.406 436.514L396.193 436.403C396.061 436.331 395.894 436.235 395.699 436.116C395.155 435.784 394.61 435.398 394.105 434.966C391.784 432.983 391.134 430.896 392.949 428.599C393.248 428.221 393.123 427.664 392.693 427.449L392.144 427.168C387.119 424.502 386.436 421.959 388.03 419.574C388.305 419.163 388.577 418.869 388.741 418.727C389.259 418.278 388.963 417.427 388.279 417.397L388.09 417.381C387.972 417.367 387.819 417.345 387.64 417.311C387.14 417.216 386.642 417.064 386.183 416.844C384.808 416.183 384.083 415.088 384.245 413.306C384.377 411.864 384.538 411.642 385.237 411.637C385.915 411.633 391.068 412.679 391.583 412.768C396.093 413.549 400.977 413.968 407.068 413.918C408.009 413.91 408.094 412.533 407.162 412.408C401.675 411.673 397.554 409.184 395.69 406.234C395.03 405.19 394.824 404.284 395.008 403.9C395.108 403.691 395.495 403.639 396.308 404.001L396.521 404.1C398.486 405.061 400.757 405.568 404.814 406.101L407.979 406.495C412.842 407.117 414.944 407.617 416.446 408.69L417.026 409.115C418.142 409.952 419.546 411.104 421.171 412.507L422.001 413.229C423.072 414.165 424.175 415.151 425.274 416.151L426.745 417.498L428.291 418.935C428.409 419.046 428.558 419.116 428.716 419.136L428.836 419.141L536.13 415.444C536.548 415.43 536.875 415.079 536.861 414.66C536.848 414.288 536.57 413.988 536.214 413.936L536.078 413.929L429.099 417.613L427.394 416.036C426.296 415.026 425.18 414.017 424.085 413.045L422.575 411.718L421.28 410.606C419.71 409.273 418.373 408.203 417.325 407.455C415.48 406.137 413.188 405.615 407.66 404.927L406.098 404.736C401.695 404.192 399.311 403.721 397.419 402.849L397.185 402.738Z" fill="#DD936F"/>
<path fill-rule="evenodd" clip-rule="evenodd" d="M512.868 415.046C512.868 415.046 531.845 389.088 538.897 388.492C545.95 387.896 558.437 390.025 560.513 393.733C565.398 402.483 565.691 414.447 565.691 414.447L541.915 414.057L512.868 415.046Z" fill="#FFC999"/>
<path d="M561.213 393.34C562.22 395.143 563.078 397.15 563.802 399.327C564.9 402.634 565.639 406.167 566.088 409.7C566.214 410.688 566.309 411.621 566.378 412.482L566.425 413.115C566.468 413.737 566.488 414.184 566.495 414.427C566.505 414.884 566.134 415.259 565.678 415.251L541.902 414.861L512.896 415.849C512.226 415.872 511.825 415.112 512.221 414.57L513.074 413.421L514.554 411.468C514.819 411.122 515.093 410.767 515.375 410.402C517.793 407.279 520.318 404.156 522.826 401.239C524.121 399.733 525.38 398.32 526.594 397.015L527.476 396.077C532.408 390.893 536.236 387.91 538.83 387.691C547.123 386.99 559.109 389.58 561.213 393.34ZM538.965 389.293C536.794 389.477 532.818 392.685 527.77 398.111C526.571 399.4 525.325 400.798 524.043 402.288C521.555 405.182 519.046 408.285 516.645 411.388L515.441 412.955L514.512 414.184L541.888 413.253L564.849 413.627L564.823 413.225C564.754 412.223 564.648 411.106 564.495 409.903C564.058 406.467 563.34 403.032 562.277 399.835C561.585 397.749 560.765 395.834 559.812 394.126C558.129 391.118 546.671 388.642 538.965 389.293Z" fill="#DD936F"/>
<path d="M549.535 395.199C547.671 395.117 545.951 395.124 544.402 395.232C544.054 395.257 543.791 395.56 543.815 395.909C543.84 396.258 544.142 396.521 544.491 396.497C545.987 396.392 547.66 396.385 549.479 396.466C552.01 396.578 554.72 396.853 557.47 397.242C558.499 397.388 559.48 397.542 560.394 397.697L562.18 398.019C562.287 398.04 562.377 398.058 562.449 398.073C562.792 398.142 563.126 397.921 563.195 397.578C563.265 397.235 563.044 396.9 562.701 396.831L561.562 396.615L561.287 396.566C560.175 396.369 558.949 396.171 557.646 395.987C554.86 395.593 552.11 395.314 549.535 395.199Z" fill="#DD936F"/>
<path d="M553.548 401.422L552.362 401.387C549.48 401.319 547.223 401.401 545.769 401.671C545.426 401.735 545.199 402.065 545.262 402.409C545.326 402.754 545.656 402.981 546 402.917C547.529 402.633 550.141 402.571 553.504 402.689C554.81 402.734 556.185 402.806 557.594 402.897L558.657 402.969C559.437 403.025 560.189 403.083 560.898 403.142L562.741 403.306C563.089 403.341 563.399 403.086 563.433 402.738C563.467 402.39 563.213 402.079 562.865 402.045L561.702 401.939L560.275 401.82C559.781 401.781 559.27 401.742 558.746 401.705C556.952 401.578 555.197 401.48 553.548 401.422Z" fill="#DD936F"/>
<path d="M564.992 407.95L545.908 408.029C545.559 408.031 545.277 408.316 545.278 408.666C545.279 408.977 545.504 409.235 545.8 409.287L545.914 409.297L564.997 409.217C565.347 409.216 565.629 408.931 565.628 408.581C565.626 408.27 565.401 408.012 565.106 407.96L564.992 407.95Z" fill="#DD936F"/>
<path fill-rule="evenodd" clip-rule="evenodd" d="M768.583 435.897L793.592 374.845L746.591 347.05C746.591 347.05 698.451 431.092 708.28 449.9C720.683 473.631 748.633 473.701 768.583 435.897Z" fill="#FFC999"/>
<path fill-rule="evenodd" clip-rule="evenodd" d="M915.637 459.5C915.637 459.5 929.457 392.589 935.536 367.874C941.626 343.161 951.006 283.958 940.806 279.455C930.612 274.953 906.188 265.37 906.188 265.37C906.188 265.37 886.697 264.544 864.727 269.074C847.332 272.661 847.535 262.426 826.454 265.771C817.528 267.186 782.546 277.881 775.74 283.168C768.937 288.454 780.313 462.207 780.313 462.207C780.313 462.207 771.926 470.716 781.953 481.887C786.925 487.118 808.61 485.496 836.351 485.747C867.931 486.029 905.048 490.234 911.978 484.276C924.997 473.08 915.637 459.5 915.637 459.5Z" fill="#5736FF"/>
<path fill-rule="evenodd" clip-rule="evenodd" d="M836.577 253.793L856.615 271.054L833.795 294.303L822.602 266.29L836.577 253.793Z" fill="#5736FF"/>
<path fill-rule="evenodd" clip-rule="evenodd" d="M919.235 472.248L922.194 502.436C922.194 502.436 1002.41 459.771 1018.33 435.063C1032.46 413.125 999.006 359.424 999.006 359.424C999.006 359.424 965.586 382.691 959.336 397.343L964.826 413.842L919.235 472.248Z" fill="#FFC999"/>
<path fill-rule="evenodd" clip-rule="evenodd" d="M775.247 420.683C775.247 420.683 808.681 363.436 811.273 330.099C813.818 297.407 785.058 272.904 770.176 287.143C748.491 307.89 725.278 377.505 725.278 377.505C725.278 377.505 749.639 408.783 775.247 420.683Z" fill="#5736FF"/>
<path d="M734.957 383.541C734.608 383.025 733.907 382.889 733.391 383.238C732.875 383.587 732.739 384.289 733.088 384.805C736.48 389.82 740.248 394.468 744.327 398.759C750.805 405.573 757.745 411.176 764.687 415.649C767.12 417.216 769.381 418.531 771.413 419.604C771.841 419.83 772.241 420.035 772.611 420.221L773.663 420.732C773.814 420.803 773.929 420.855 774.004 420.888C774.574 421.139 775.24 420.881 775.491 420.31C775.742 419.74 775.484 419.075 774.914 418.824L774.464 418.615L774.29 418.532C773.87 418.33 773.396 418.093 772.87 417.82L772.466 417.609C770.49 416.566 768.285 415.284 765.909 413.752C759.11 409.372 752.309 403.881 745.962 397.204C741.967 393.002 738.277 388.451 734.957 383.541Z" fill="#253368"/>
<path fill-rule="evenodd" clip-rule="evenodd" d="M1013.35 386.406C1013.35 386.406 974.606 303.472 953.736 287.241C932.866 271.01 923.556 279.542 915.126 291.103C909.816 298.38 897.603 319.033 924.54 362.596C944.826 395.398 953.326 407.557 955.746 413.03C989.766 410.751 1013.35 386.406 1013.35 386.406Z" fill="#5736FF"/>
<path fill-rule="evenodd" clip-rule="evenodd" d="M856.185 274.123L836.668 254.301L840.167 186.629L892.863 189.639L894.995 256.401L856.185 274.123Z" fill="#FFC999"/>
<path fill-rule="evenodd" clip-rule="evenodd" d="M826.505 180.451C826.505 180.451 818.399 172.154 815.038 177.787C811.679 183.418 817.725 203.454 826.462 203.928C838.129 204.557 826.505 180.451 826.505 180.451Z" fill="#FFC999"/>
<path fill-rule="evenodd" clip-rule="evenodd" d="M877.601 231.584C877.601 231.584 860.54 245.708 837.769 231.916C821.378 221.988 819.176 185.754 822.19 159.135C823.896 144.072 830.794 135.938 845.448 131.41C860.104 126.883 899.902 126.538 900.374 170.834C900.899 220.172 877.601 231.584 877.601 231.584Z" fill="#FFC999"/>
<path d="M847.691 166.008C847.307 166.108 847.059 166.467 847.087 166.849L847.111 166.992L849.482 176.169L844.623 201.267C844.536 201.719 844.842 202.142 845.278 202.216L845.413 202.228L856.027 202.266C856.473 202.268 856.836 201.907 856.838 201.461C856.839 201.06 856.547 200.726 856.164 200.662L856.033 200.651L846.395 200.615L851.102 176.297C851.117 176.218 851.121 176.138 851.112 176.059L851.091 175.941L848.675 166.588C848.576 166.205 848.217 165.957 847.835 165.985L847.691 166.008Z" fill="#DD936F"/>
<path d="M857.949 163.507C857.825 164.69 858.684 165.748 859.867 165.872L867.862 166.744L869.866 166.946C875.637 167.502 879.275 167.617 881.523 167.16C882.688 166.923 883.441 165.787 883.205 164.622C882.968 163.456 881.832 162.703 880.666 162.94C878.785 163.322 874.734 163.131 868.309 162.461L860.314 161.589C859.131 161.465 858.072 162.324 857.949 163.507Z" fill="#253368"/>
<path d="M864.821 208.422C864.663 207.82 864.046 207.46 863.443 207.618L863.103 207.699L862.728 207.779C862.115 207.906 861.392 208.033 860.567 208.152C856.248 208.776 851.111 208.929 845.358 208.318C844.739 208.252 844.183 208.701 844.117 209.321C844.052 209.94 844.5 210.496 845.12 210.562C851.068 211.193 856.392 211.034 860.89 210.385C861.586 210.284 862.216 210.178 862.777 210.07L863.184 209.989C863.585 209.906 863.865 209.84 864.017 209.8C864.62 209.641 864.98 209.024 864.821 208.422Z" fill="#FF7946"/>
<path fill-rule="evenodd" clip-rule="evenodd" d="M895.436 189.849L903.97 172.733C903.97 172.733 909.294 148.095 903.534 137.547C894.597 121.178 874.368 121.74 862.336 117.431C850.301 113.122 850.389 109.08 845.523 109.781C840.657 110.483 821.877 123.75 819.842 137.517C818.053 149.618 821.32 180.406 821.32 180.406C821.32 180.406 824.552 153.105 827.14 145.884C836.63 141.853 871.206 141.447 885.666 145.81C885.666 145.81 886.972 155.088 887.734 161.626C895.495 167.107 895.436 189.849 895.436 189.849Z" fill="#253368"/>
<path d="M837.437 230.379C837.134 230.052 836.623 230.031 836.295 230.334C835.968 230.637 835.947 231.147 836.25 231.475C836.466 231.709 836.876 232.095 837.482 232.583C838.479 233.383 839.676 234.181 841.077 234.923C849.157 239.207 859.874 239.864 873.252 234.632C873.667 234.47 873.872 234.001 873.71 233.586C873.547 233.171 873.079 232.966 872.663 233.128C859.726 238.187 849.5 237.561 841.833 233.496C840.525 232.803 839.413 232.062 838.494 231.323L838.123 231.017C837.788 230.732 837.559 230.512 837.437 230.379Z" fill="#DD936F"/>
<path d="M848.496 174.606C847.605 174.575 846.857 175.272 846.825 176.164C846.796 176.996 847.402 177.703 848.208 177.819L848.383 177.834L856.191 178.107C857.082 178.138 857.83 177.441 857.861 176.549C857.891 175.717 857.285 175.01 856.479 174.894L856.304 174.879L848.496 174.606Z" fill="#253368"/>
<path d="M855.539 179.813C853.961 179.134 852.346 178.772 850.763 178.917C849.261 179.055 847.904 179.654 846.796 180.764C846.166 181.396 846.167 182.418 846.798 183.048C847.385 183.633 848.308 183.674 848.942 183.172L849.083 183.046C849.636 182.491 850.284 182.205 851.058 182.134C852.021 182.045 853.135 182.295 854.261 182.78C854.687 182.964 855.039 183.145 855.288 183.289L855.536 183.44C856.28 183.932 857.282 183.727 857.774 182.982C858.265 182.238 858.06 181.236 857.316 180.744C856.94 180.497 856.328 180.153 855.539 179.813Z" fill="#253368"/>
<path d="M842.962 161.47C839.322 160.121 835.632 159.394 832.105 159.635C829.351 159.824 826.828 160.608 824.627 162.076C823.638 162.735 823.371 164.072 824.03 165.062C824.69 166.051 826.027 166.318 827.017 165.658C828.557 164.631 830.359 164.071 832.399 163.932C835.228 163.738 838.349 164.353 841.466 165.508C842.237 165.794 842.96 166.096 843.624 166.4L844.11 166.629C844.575 166.852 844.895 167.021 845.047 167.108C846.082 167.694 847.396 167.33 847.982 166.295C848.568 165.261 848.205 163.947 847.17 163.361C846.306 162.871 844.847 162.168 842.962 161.47Z" fill="#253368"/>
<path d="M849.941 216.316C849.495 216.307 849.125 216.66 849.116 217.106C849.107 217.507 849.392 217.847 849.775 217.918L849.905 217.931L856.269 218.071C856.715 218.081 857.084 217.727 857.094 217.281C857.103 216.88 856.817 216.541 856.435 216.47L856.305 216.456L849.941 216.316Z" fill="#DD936F"/>
<path d="M885.212 175.456C884.32 175.441 883.585 176.153 883.571 177.044C883.557 177.877 884.175 178.573 884.983 178.674L885.159 178.686L897.968 178.898C898.859 178.913 899.595 178.202 899.609 177.31C899.623 176.478 899.005 175.782 898.197 175.681L898.021 175.668L885.212 175.456Z" fill="#253368"/>
<path fill-rule="evenodd" clip-rule="evenodd" d="M884.282 174.521L859.831 173.979C858.123 173.941 856.709 175.29 856.684 176.998C856.637 180.183 856.702 185.295 857.435 189.685C858.295 194.862 862.865 198.122 868.101 198.48C874.645 198.929 880.522 199.065 883.57 195.733C888.21 190.652 887.289 182.105 887.294 177.586C887.294 175.931 885.94 174.557 884.282 174.521Z" fill="white"/>
<path d="M859.604 173.444L859.843 173.441L884.294 173.983C886.245 174.025 887.832 175.639 887.832 177.586L887.842 178.597L887.891 180.94C887.932 183.615 887.872 185.326 887.614 187.27C887.132 190.921 885.997 193.872 883.967 196.095C881.2 199.12 877.019 199.631 868.064 199.017C862.347 198.625 857.773 195.007 856.904 189.773C856.282 186.043 856.078 181.596 856.146 176.99C856.174 175.065 857.705 173.524 859.604 173.444ZM884.271 175.059L859.819 174.517C858.406 174.486 857.242 175.6 857.222 177.005C857.154 181.553 857.356 185.943 857.966 189.596C858.748 194.306 862.89 197.584 868.138 197.943L869.873 198.051C877.293 198.455 880.894 197.86 883.172 195.369C885.034 193.331 886.091 190.58 886.548 187.129C886.797 185.248 886.856 183.576 886.815 180.945L886.757 177.937C886.756 177.821 886.756 177.709 886.756 177.586C886.756 176.225 885.638 175.088 884.271 175.059Z" fill="#253368"/>
<path d="M867.416 180.175C866.821 180.163 866.328 180.634 866.315 181.229C866.242 184.609 868.62 187.457 871.707 187.525C874.795 187.593 877.295 184.852 877.369 181.472C877.381 180.877 876.91 180.385 876.315 180.372C875.72 180.359 875.228 180.831 875.215 181.425C875.166 183.676 873.583 185.411 871.754 185.371C869.927 185.33 868.42 183.526 868.469 181.276C868.482 180.681 868.01 180.188 867.416 180.175Z" fill="#253368"/>
<path fill-rule="evenodd" clip-rule="evenodd" d="M846.151 173.405L818.469 172.794C817.355 176.816 817.998 192.481 822.674 195.939C828.964 199.413 841.851 198.254 843.924 194.901C847.067 189.817 848.409 180.013 848.45 175.781C848.461 174.49 847.441 173.435 846.151 173.405Z" fill="white"/>
<path d="M818.481 172.256L846.163 172.868C847.747 172.904 849.001 174.2 848.988 175.785C848.93 181.78 847.105 190.779 844.382 195.184C842.023 198.999 828.658 199.859 822.414 196.41C818.178 193.283 816.331 178.497 817.951 172.65C818.016 172.413 818.235 172.251 818.481 172.256ZM818.887 173.34L818.828 173.607C817.614 179.49 819.409 192.855 822.994 195.507C828.734 198.672 841.467 197.852 843.467 194.618C846.066 190.412 847.856 181.591 847.912 175.776C847.92 174.779 847.134 173.966 846.139 173.943L818.887 173.34Z" fill="#253368"/>
<path d="M832.864 179.412C832.269 179.399 831.776 179.871 831.764 180.465C831.69 183.846 834.067 186.693 837.155 186.761C840.242 186.829 842.744 184.088 842.817 180.708C842.83 180.113 842.358 179.621 841.763 179.608C841.168 179.595 840.676 180.067 840.663 180.662C840.614 182.911 839.03 184.647 837.202 184.607C835.374 184.567 833.869 182.764 833.917 180.512C833.93 179.917 833.459 179.425 832.864 179.412Z" fill="#253368"/>
<path d="M886.926 173.132L856.6 173.256C855.708 173.26 854.988 173.986 854.992 174.878C854.995 175.71 855.628 176.393 856.437 176.477L856.613 176.486L886.939 176.362C887.831 176.358 888.551 175.632 888.547 174.74C888.544 173.908 887.911 173.225 887.102 173.141L886.926 173.132Z" fill="#253368"/>
<path d="M818.286 171.785C817.395 171.753 816.646 172.45 816.614 173.341C816.584 174.173 817.189 174.881 817.994 174.998L818.17 175.014L847.864 176.087C848.755 176.12 849.504 175.423 849.536 174.532C849.566 173.7 848.961 172.992 848.156 172.875L847.98 172.859L818.286 171.785Z" fill="#253368"/>
<path fill-rule="evenodd" clip-rule="evenodd" d="M899.236 176.036C902.304 172.762 907.139 171.786 910.635 175.438C916.266 181.326 911.533 203.661 896.644 204.857C890.969 204.173 894.445 181.145 899.236 176.036Z" fill="#FFC999"/>
<path fill-rule="evenodd" clip-rule="evenodd" d="M759.6 433.268C759.6 433.268 749.924 467.821 719.339 461.47C698.455 457.132 678.102 348.219 676.492 335.569C675.341 326.525 702.605 325.038 702.605 325.038L759.6 433.268Z" fill="#FFC999"/>
<path fill-rule="evenodd" clip-rule="evenodd" d="M702.974 326.664C702.974 326.664 701.898 320.576 699.748 308.396C697.596 296.219 674.266 269.706 672.755 268.366C667.6 263.802 663.413 270.177 674.363 286.598C660.909 282.655 652.558 276.401 647.9 267.804C643.241 259.209 633.807 265.264 636.729 279.077C639.652 292.889 640.158 304.074 649.073 314.329C661.841 329.012 672.489 333.86 678.494 336.421C683.375 338.503 699.119 336.281 702.974 326.664Z" fill="#FFC999"/>
<path fill-rule="evenodd" clip-rule="evenodd" d="M911.048 1020.32L848.863 598.627L844.839 597.729L811.797 1018.11C811.797 1018.11 776.901 1028.21 758.566 1017.04C758.383 935.004 763.023 668.809 771.988 547.162C773.432 527.576 779.626 500.982 780.881 493.587C836.86 484.501 913.052 497.871 913.052 497.871L964.616 1014.25C964.616 1014.25 936.876 1028.79 911.048 1020.32Z" fill="#ADC6FF"/>
<path fill-rule="evenodd" clip-rule="evenodd" d="M912.32 484.102C912.32 484.102 841.184 473.114 781.924 483.098C781.403 488.343 780.855 494.8 780.855 494.8C780.855 494.8 828.821 483.349 912.55 499.794C912.412 485.553 912.32 484.102 912.32 484.102Z" fill="#ADC6FF"/>
<path d="M887.945 498.888C862.284 496.677 836.057 495.744 811.57 496.816C801.18 497.272 791.373 498.086 782.244 499.29C781.802 499.348 781.491 499.754 781.549 500.196C781.608 500.638 782.013 500.949 782.456 500.891C791.535 499.694 801.295 498.883 811.641 498.43C836.049 497.361 862.21 498.292 887.806 500.498C893.185 500.961 898.18 501.452 902.716 501.948L905.145 502.219C906.177 502.336 907.14 502.449 908.031 502.555L911.579 503C912.021 503.06 912.428 502.75 912.488 502.308C912.548 501.866 912.238 501.459 911.796 501.399L909.51 501.108L906.828 500.787L905.327 500.614C900.152 500.026 894.316 499.437 887.945 498.888Z" fill="#5736FF"/>
<path d="M888.37 480.788C862.699 478.576 836.462 477.642 811.962 478.714C801.562 479.169 791.745 479.984 782.606 481.189C781.988 481.27 781.553 481.837 781.635 482.455C781.716 483.072 782.283 483.507 782.901 483.426C791.971 482.23 801.723 481.42 812.061 480.968C835.547 479.94 860.661 480.765 885.332 482.796L888.176 483.035C894.041 483.541 899.451 484.08 904.306 484.621L907.003 484.928L910.619 485.366L911.937 485.536C912.554 485.62 913.123 485.187 913.206 484.57C913.29 483.953 912.857 483.384 912.24 483.301L910.553 483.084C909.571 482.961 908.474 482.829 907.266 482.688L905.763 482.515C900.584 481.926 894.745 481.337 888.37 480.788Z" fill="#253368"/>
<path d="M840.963 482.006C840.562 482.006 840.228 482.298 840.166 482.682L840.155 482.813L840.173 488.681C840.196 493.142 840.238 498.092 840.302 503.407C840.486 518.499 840.817 533.572 841.334 547.644L841.493 551.788C842.147 568.146 843.027 581.865 844.164 592.16C844.213 592.603 844.612 592.923 845.056 592.874C845.499 592.825 845.819 592.426 845.77 591.983L845.499 589.416C844.405 578.589 843.565 564.378 842.948 547.585C842.469 534.532 842.149 520.613 841.959 506.618L841.87 499.126C841.841 496.343 841.819 493.678 841.803 491.152L841.77 482.822C841.77 482.368 841.409 482.006 840.963 482.006Z" fill="#5736FF"/>
<path fill-rule="evenodd" clip-rule="evenodd" d="M827.104 487.757C827.059 489.765 828.288 491.423 829.851 491.459C831.412 491.493 832.716 489.893 832.764 487.886C832.807 485.876 831.577 484.22 830.016 484.184C828.455 484.148 827.151 485.749 827.104 487.757Z" fill="white"/>
<path d="M675.119 286.311C674.961 285.894 674.495 285.683 674.078 285.841C673.707 285.982 673.5 286.366 673.569 286.742L673.609 286.883L676.796 295.301L676.795 295.351C676.782 296.447 676.802 297.872 676.877 299.524L676.908 300.153C677.062 303.056 677.357 305.926 677.829 308.615C679.097 315.836 681.414 320.716 685.214 322.172C685.631 322.332 686.098 322.123 686.258 321.707C686.417 321.29 686.209 320.823 685.792 320.664C682.709 319.483 680.596 315.029 679.42 308.336C678.96 305.717 678.671 302.91 678.521 300.068L678.465 298.855C678.427 297.879 678.41 296.995 678.407 296.23L678.413 295.178L678.361 294.874L675.119 286.311Z" fill="#DD936F"/>
<path d="M642.585 291.245C641.352 290.981 640.228 291.44 639.391 292.638C639.135 293.004 639.225 293.507 639.59 293.763C639.956 294.018 640.459 293.929 640.715 293.563C641.185 292.891 641.657 292.698 642.246 292.824C642.922 292.969 643.734 293.534 644.57 294.391C644.816 294.644 645.054 294.911 645.278 295.182L645.604 295.59C645.792 295.834 645.925 296.022 645.934 296.019L646.1 296.347C646.15 296.442 646.209 296.551 646.276 296.673C646.554 297.175 646.889 297.731 647.285 298.329C648.413 300.033 649.797 301.736 651.453 303.326C654.398 306.155 657.873 308.315 661.904 309.534C662.331 309.663 662.782 309.421 662.911 308.995C663.04 308.568 662.798 308.117 662.371 307.988C658.6 306.848 655.342 304.823 652.572 302.161C651.007 300.659 649.697 299.048 648.632 297.438C648.354 297.017 648.107 296.619 647.893 296.25L647.69 295.891C647.538 295.617 647.44 295.425 647.336 295.226L647.11 294.905C647.044 294.815 646.969 294.715 646.884 294.605C646.533 294.149 646.144 293.692 645.726 293.264C644.688 292.199 643.643 291.472 642.585 291.245Z" fill="#DD936F"/>
<path d="M642.263 280.774C640.054 279.767 638.277 280.734 637.646 283.804C637.557 284.241 637.838 284.668 638.275 284.757C638.712 284.847 639.139 284.566 639.229 284.129C639.655 282.054 640.349 281.676 641.594 282.243C642.168 282.505 642.812 282.966 643.477 283.569C643.882 283.935 644.27 284.33 644.625 284.725L644.934 285.078C644.985 285.138 645.023 285.184 645.046 285.213C649.22 290.956 653.188 294.811 656.828 297.127C659.061 298.548 660.72 299.136 661.674 299.245C662.117 299.295 662.517 298.976 662.568 298.533C662.613 298.134 662.36 297.77 661.985 297.665L661.683 297.609C661.5 297.57 661.22 297.492 660.848 297.36C659.942 297.04 658.887 296.523 657.695 295.764C654.234 293.562 650.413 289.849 646.331 284.235L646.179 284.05C646.086 283.939 645.967 283.802 645.826 283.645C645.436 283.212 645.011 282.778 644.561 282.371C643.783 281.667 643.014 281.116 642.263 280.774Z" fill="#DD936F"/>
<path d="M640.556 269.911C639.296 269.688 638.093 270.131 636.941 271.232C636.618 271.54 636.607 272.051 636.915 272.373C637.223 272.696 637.734 272.708 638.057 272.399C638.859 271.633 639.56 271.375 640.274 271.501C641.262 271.676 642.394 272.565 643.974 274.37L644.275 274.719C644.64 275.146 648.216 279.623 649.691 281.322L649.841 281.494C650.308 282.022 650.769 282.525 651.231 283.008C654.132 286.041 657.034 288.366 659.802 290.073C660.614 290.574 661.367 290.992 662.052 291.333L662.454 291.529C662.936 291.757 663.282 291.9 663.475 291.969C663.895 292.12 664.358 291.902 664.508 291.482C664.659 291.062 664.44 290.6 664.021 290.449L663.826 290.373C663.663 290.306 663.434 290.206 663.146 290.069C662.411 289.721 661.573 289.268 660.65 288.699C657.997 287.062 655.202 284.823 652.398 281.892C652.1 281.58 651.803 281.26 651.503 280.929L651.052 280.424C649.719 278.915 645.908 274.145 645.505 273.671C643.531 271.356 642.099 270.184 640.556 269.911Z" fill="#DD936F"/>
<path d="M726.941 370.459C726.722 370.07 726.229 369.933 725.841 370.152C725.496 370.347 725.349 370.758 725.474 371.119L725.534 371.252L749.444 413.64C749.663 414.028 750.156 414.166 750.544 413.946C750.89 413.752 751.036 413.341 750.911 412.979L750.851 412.846L726.941 370.459Z" fill="#DD936F"/>
<path fill-rule="evenodd" clip-rule="evenodd" d="M856.397 273.723L875.824 299.634L905.324 265.42L894.692 251.945L856.397 273.723Z" fill="#5736FF"/>
<path d="M855.509 275.112C854.952 274.903 854.331 275.185 854.122 275.742L853.899 276.389L853.679 277.083C853.562 277.46 853.437 277.884 853.302 278.354L852.883 279.869C852.359 281.826 851.794 284.167 851.196 286.919C849.026 296.903 846.859 310.237 844.838 327.38C842.808 344.596 841.037 364.768 839.597 388.13L839.384 391.711C837.436 425.559 837.725 454.629 839.223 476.605C839.264 477.198 839.778 477.646 840.371 477.606C840.965 477.566 841.413 477.052 841.373 476.458L841.22 474.128C839.813 451.744 839.647 422.35 841.748 388.263L842.005 384.18C843.35 363.256 844.967 344.973 846.8 329.155L847.288 325.035C849.16 309.632 851.147 297.454 853.135 288.146L853.301 287.377C854.052 283.918 854.749 281.126 855.373 278.947L855.621 278.1C855.7 277.838 855.774 277.597 855.845 277.376L856.047 276.759C856.09 276.634 856.12 276.548 856.139 276.499C856.348 275.943 856.066 275.322 855.509 275.112Z" fill="#253368"/>
<path d="M774.819 288.341C774.197 288.316 773.671 288.8 773.645 289.422L773.601 290.867C773.458 296.907 773.616 303.822 774.31 310.399C774.743 314.501 775.362 318.148 776.194 321.234L776.376 321.887L776.313 322.003L776.242 322.154C776.06 322.564 775.893 323.16 775.728 323.957C775.405 325.512 775.088 327.859 774.802 330.837L774.67 332.271C774.094 338.892 773.709 347.721 773.606 357.889C773.325 385.627 775.088 419.108 779.311 455.582L779.528 457.437L779.238 458.178L779.146 458.424C778.777 459.414 778.409 460.508 778.066 461.677C777.241 464.485 776.687 467.272 776.53 469.897C776.268 474.275 777.131 477.848 779.454 480.278C779.885 480.728 780.599 480.744 781.049 480.314C781.499 479.883 781.515 479.169 781.085 478.719C779.274 476.825 778.554 473.843 778.782 470.031C778.927 467.597 779.449 464.97 780.23 462.313C780.492 461.421 780.769 460.574 781.049 459.789L781.26 459.211C781.469 458.65 781.63 458.251 781.719 458.044C781.797 457.862 781.826 457.663 781.802 457.466C777.494 420.97 775.648 387.412 775.847 359.544L775.861 357.911C775.964 347.8 776.347 339.03 776.917 332.473L777.047 331.053C777.326 328.149 777.634 325.876 777.937 324.415C778.014 324.042 778.09 323.731 778.159 323.489L778.231 323.265C778.622 323.035 778.877 322.597 778.783 322.092L778.749 321.953C777.762 318.754 777.039 314.762 776.554 310.162C775.92 304.16 775.74 297.845 775.831 292.209L775.889 289.786C775.892 289.678 775.896 289.588 775.899 289.517C775.925 288.895 775.442 288.369 774.819 288.341Z" fill="#253368"/>
<path d="M829.883 308.392L830.114 308.391C830.77 308.389 831.289 308.945 831.242 309.6L828.375 349.767C828.348 350.149 828.129 350.49 827.794 350.675L805.944 362.715C805.569 362.921 805.11 362.898 804.758 362.654L788.017 351.063C787.743 350.874 787.567 350.573 787.536 350.241L787.429 348.866L787.341 347.489C787.302 346.834 787.263 346.12 787.226 345.347L787.129 343.149C786.836 335.776 786.759 326.458 787.015 315.142C787.025 314.708 787.283 314.318 787.679 314.14C793.074 311.709 801.684 310.132 812.347 309.215C816.184 308.885 820.065 308.662 823.835 308.527L826.176 308.454C827.636 308.416 828.887 308.397 829.883 308.392ZM826.169 348.995L828.906 310.656L827.086 310.689C826.132 310.71 825.07 310.74 823.916 310.782C820.181 310.915 816.337 311.136 812.541 311.462L811.599 311.546L809.749 311.723C801.223 312.584 794.23 313.916 789.569 315.787L789.256 315.916L789.219 317.665C789.02 328.231 789.12 336.947 789.416 343.863L789.507 345.799C789.535 346.35 789.564 346.868 789.592 347.353L789.74 349.511L805.466 360.401L826.169 348.995Z" fill="#253368"/>
<path fill-rule="evenodd" clip-rule="evenodd" d="M898.899 459.66C898.899 459.66 916.876 442.788 922.802 443.514C931.988 444.638 925.417 462.373 925.417 462.373C925.417 462.373 933.184 467.699 927.83 476.678C930.971 485.541 926.026 489.678 926.026 489.678C926.026 489.678 931.031 496.459 923.637 501.754C916.24 507.048 899.693 505.165 902.378 493.7C895.849 487.19 901.453 480.944 901.453 480.944C901.453 480.944 896.742 474.776 902.33 468.834C897.541 465.998 897.04 461.437 898.899 459.66Z" fill="#FFC999"/>
<path d="M920.849 458.534C920.657 458.188 920.247 458.038 919.884 458.162L919.751 458.221L901.939 468.129C901.549 468.345 901.409 468.837 901.626 469.227C901.818 469.573 902.228 469.723 902.591 469.599L902.724 469.54L920.536 459.632C920.926 459.416 921.066 458.924 920.849 458.534Z" fill="#DD936F"/>
<path d="M925.968 461.783C925.642 461.478 925.131 461.495 924.827 461.821C924.522 462.147 924.539 462.658 924.865 462.962L925.107 463.205C925.21 463.312 925.334 463.446 925.474 463.604C925.946 464.139 926.42 464.748 926.861 465.42C929.23 469.03 929.705 472.729 927.177 476.204C927.012 476.432 926.977 476.73 927.085 476.99C929.007 481.597 928.649 485.051 926.932 487.549C926.623 487.998 926.294 488.374 925.967 488.68C925.779 488.856 925.64 488.965 925.576 489.008C925.393 489.132 925.27 489.324 925.233 489.538L925.22 489.668L925.128 497.864C925.123 498.31 925.48 498.675 925.926 498.681C926.328 498.685 926.664 498.396 926.731 498.013L926.743 497.882L926.832 490.081L927.007 489.928C927.326 489.638 927.684 489.253 928.046 488.767L928.263 488.464C930.156 485.71 930.646 482.014 928.969 477.376L928.743 476.782L928.975 476.426C931.326 472.648 930.79 468.663 928.444 464.898L928.211 464.534C927.725 463.794 927.205 463.124 926.684 462.535L926.391 462.212C926.213 462.021 926.068 461.876 925.968 461.783Z" fill="#DD936F"/>
<path d="M918.33 475.696L901.249 480.163C900.817 480.276 900.559 480.717 900.672 481.149C900.772 481.532 901.132 481.779 901.514 481.75L901.658 481.726L918.739 477.259C919.17 477.146 919.429 476.705 919.316 476.273C919.216 475.89 918.856 475.643 918.474 475.672L918.33 475.696Z" fill="#DD936F"/>
<path d="M918.683 490.243L902.249 492.905C901.809 492.976 901.51 493.391 901.581 493.831C901.645 494.227 901.987 494.509 902.376 494.509L902.507 494.499L918.941 491.837C919.381 491.766 919.681 491.351 919.609 490.911C919.545 490.514 919.203 490.233 918.814 490.232L918.683 490.243Z" fill="#DD936F"/>
<path fill-rule="evenodd" clip-rule="evenodd" d="M854.747 293.094C854.699 295.101 856.021 296.762 857.695 296.8C859.369 296.836 860.763 295.239 860.808 293.231C860.853 291.221 859.534 289.563 857.86 289.525C856.186 289.487 854.792 291.084 854.747 293.094Z" fill="white"/>
<path fill-rule="evenodd" clip-rule="evenodd" d="M849.669 329.974C849.621 331.982 850.943 333.643 852.617 333.681C854.291 333.717 855.685 332.12 855.733 330.112C855.775 328.102 854.456 326.444 852.782 326.406C851.108 326.367 849.714 327.967 849.669 329.974Z" fill="white"/>
<path fill-rule="evenodd" clip-rule="evenodd" d="M846.341 369.927C846.295 371.935 847.615 373.595 849.291 373.634C850.965 373.67 852.357 372.073 852.404 370.065C852.449 368.055 851.127 366.397 849.454 366.359C847.782 366.32 846.388 367.917 846.341 369.927Z" fill="white"/>
<path fill-rule="evenodd" clip-rule="evenodd" d="M844.886 407.496C844.841 409.506 846.161 411.164 847.837 411.202C849.511 411.238 850.902 409.641 850.95 407.634C850.993 405.624 849.673 403.966 847.999 403.927C846.325 403.889 844.933 405.488 844.886 407.496Z" fill="white"/>
<path fill-rule="evenodd" clip-rule="evenodd" d="M844.371 457.216C844.326 459.224 845.645 460.884 847.322 460.923C848.995 460.959 850.387 459.362 850.435 457.354C850.478 455.344 849.158 453.686 847.484 453.648C845.81 453.609 844.418 455.206 844.371 457.216Z" fill="white"/>
<path d="M905.644 265.652C905.234 265.3 904.635 265.31 904.238 265.654L904.125 265.767L876.436 297.988L856.969 275.042C856.619 274.629 856.026 274.546 855.58 274.823L855.451 274.917C855.039 275.267 854.955 275.86 855.232 276.306L855.326 276.435L875.609 300.345C876.001 300.808 876.688 300.849 877.132 300.465L877.247 300.35L905.759 267.171C906.147 266.72 906.095 266.04 905.644 265.652Z" fill="#253368"/>
<path d="M823.611 266.557C823.423 265.992 822.814 265.686 822.249 265.874C821.732 266.046 821.431 266.572 821.529 267.094L821.566 267.235L831.977 298.603C832.214 299.319 833.08 299.562 833.653 299.121L833.771 299.016L856.122 276.069C856.537 275.643 856.528 274.961 856.102 274.546C855.718 274.172 855.128 274.142 854.711 274.45L854.579 274.566L833.464 296.242L823.611 266.557Z" fill="#253368"/>
<path d="M823.17 497.455C822.73 497.386 822.317 497.688 822.248 498.129L822.169 498.659C822.108 499.089 822.039 499.591 821.965 500.159L821.784 501.599C821.634 502.84 821.486 504.183 821.345 505.615C820.489 514.314 820.168 523.254 820.696 531.611L820.794 533.039C822.218 551.912 827.881 563.874 839.221 565.494C839.663 565.557 840.072 565.251 840.135 564.809C840.198 564.368 839.891 563.958 839.45 563.895C828.871 562.384 823.506 550.51 822.308 531.509C821.787 523.251 822.104 514.393 822.952 505.773L823.123 504.113C823.238 503.036 823.357 502.019 823.477 501.068L823.672 499.577L823.844 498.377C823.913 497.937 823.611 497.524 823.17 497.455Z" fill="#5736FF"/>
<path d="M953.716 294.738C953.406 294.199 952.716 294.017 952.176 294.33L951.966 294.457C951.766 294.584 951.486 294.768 951.146 295.009C950.356 295.561 949.476 296.237 948.536 297.042C945.856 299.329 943.186 302.196 940.696 305.683C931 319.265 926.743 337.974 930.949 362.454C931.054 363.068 931.638 363.481 932.252 363.375C932.866 363.27 933.278 362.686 933.172 362.073C929.068 338.185 933.187 320.085 942.536 306.994C944.916 303.661 947.456 300.929 949.996 298.756C950.736 298.126 951.426 297.583 952.066 297.123L952.436 296.857C952.866 296.557 953.166 296.366 953.316 296.28C953.846 295.966 954.036 295.276 953.716 294.738Z" fill="#253368"/>
<path d="M1014.13 385.596C1013.69 385.163 1012.97 385.174 1012.54 385.622L1012.11 386.051C1011.92 386.237 1011.69 386.465 1011.4 386.733L1010.56 387.527C1009.82 388.209 1009 388.94 1008.1 389.711C1004.51 392.799 1000.43 395.888 995.936 398.771C982.986 407.096 969.366 412.034 955.756 411.902C955.136 411.896 954.626 412.396 954.616 413.019C954.616 413.642 955.116 414.152 955.736 414.158C969.846 414.295 983.866 409.212 997.156 400.668C1001.74 397.726 1005.9 394.575 1009.57 391.422L1010.63 390.495C1011.32 389.89 1011.95 389.314 1012.53 388.77L1013.21 388.131L1014.16 387.191C1014.59 386.743 1014.58 386.029 1014.13 385.596Z" fill="#DD936F"/>
<path d="M906.598 178.414C906.434 178 905.964 177.797 905.55 177.961L905.264 178.085C905.095 178.164 904.887 178.267 904.649 178.396C903.996 178.751 903.342 179.182 902.729 179.694C900.487 181.567 899.355 184.003 900.025 186.964C900.279 188.087 900.791 188.69 901.746 189.267L902.159 189.503C902.978 189.958 903.182 190.183 903.253 190.883C903.39 192.222 902.776 193.22 901.604 193.981C901.211 194.235 900.786 194.441 900.36 194.601L900.089 194.697C899.97 194.736 899.878 194.762 899.82 194.775C899.386 194.879 899.118 195.314 899.221 195.748C899.325 196.182 899.76 196.45 900.194 196.347C900.785 196.206 901.629 195.89 902.483 195.335C904.12 194.273 905.066 192.736 904.86 190.72C904.733 189.468 904.249 188.86 903.182 188.227L902.784 188.002C902.028 187.579 901.756 187.294 901.6 186.608C901.082 184.314 901.947 182.452 903.764 180.934C904.289 180.495 904.855 180.122 905.42 179.815L905.782 179.628C905.941 179.55 906.065 179.495 906.145 179.463C906.56 179.298 906.763 178.829 906.598 178.414Z" fill="#DD936F"/>
<path fill-rule="evenodd" clip-rule="evenodd" d="M1181.26 574.255C1181.26 574.255 1220.06 464.495 1266.63 520.934C1315.28 662.328 1357.03 951.554 1385.85 1094.3C1362.47 1105.47 1325.52 1101.29 1325.52 1101.29C1325.52 1101.29 1196.7 663.139 1181.26 574.255Z" fill="#4E5C93"/>
<path fill-rule="evenodd" clip-rule="evenodd" d="M1185.1 584.814C1185.1 584.814 1174.88 586.771 1164.91 582.734C1138.52 572.06 1089.9 546.28 1083.55 534.831C1080.5 508.884 1090.39 445.226 1099.53 445.163C1117.09 445.043 1176.49 456.225 1201.21 451.379C1220.45 447.607 1244.71 442.995 1244.71 442.995C1244.71 442.995 1251.41 454.145 1256.23 464.61C1267.91 489.987 1267.39 523.139 1267.39 523.139C1267.39 523.139 1198.1 587.608 1185.1 584.814Z" fill="#4E5C93"/>
<path fill-rule="evenodd" clip-rule="evenodd" d="M1090.87 399.794C1090.87 399.794 1047.05 268.284 1061.97 196.208C1088.45 181.303 1111.31 163.822 1165.1 160.915C1225.67 157.645 1283.44 193.024 1283.44 193.024L1275.36 301.332L1246.11 388.858C1246.11 388.858 1273.59 425.553 1218.81 433.584C1180.66 439.181 1122.05 444.447 1097.71 430.688C1087.11 424.695 1085.81 413.461 1090.87 399.794Z" fill="#ADC6FF"/>
<path fill-rule="evenodd" clip-rule="evenodd" d="M1061.24 197.686C1061.24 197.686 1012.25 268.446 986.276 357.73C978.486 384.522 1006.56 403.291 1031.49 391.612C1056.43 379.936 1113.48 246.975 1116.84 232.683C1123.39 204.809 1088.03 176.397 1061.24 197.686Z" fill="#ADC6FF"/>
<path fill-rule="evenodd" clip-rule="evenodd" d="M1135.44 158.283L1137.34 118.681L1197.58 99.8163L1203.95 155.68C1203.95 155.68 1174.58 224.01 1135.44 158.283Z" fill="#997C79"/>
<path fill-rule="evenodd" clip-rule="evenodd" d="M1219.04 71.8453C1212.12 117.236 1180.47 137.588 1150.22 138.993C1114.16 140.667 1106.21 109.704 1108.38 64.8863C1110.58 19.3743 1130.22 3.92026 1164.12 2.98126C1199.46 2.00326 1226.05 25.8683 1219.04 71.8453Z" fill="#997C79"/>
<path fill-rule="evenodd" clip-rule="evenodd" d="M1194.1 78.4423C1195.17 74.9003 1196.2 68.9613 1201.9 66.6063C1209.76 63.3623 1216.66 72.2313 1215.53 81.7413C1214.17 93.2653 1203.96 100.232 1198.18 100.269C1198.75 111.561 1199.62 117.557 1199.62 117.557C1199.62 117.557 1212.35 105.057 1219.44 85.5763C1230.5 55.1813 1223.66 12.6183 1189.43 2.84427C1135.93 -10.8047 1116.02 29.1033 1116.02 29.1033L1182.32 28.2113L1180.61 50.3203C1180.61 50.3203 1192.43 50.9803 1190.02 77.1473L1194.1 78.4423Z" fill="#604346"/>
<path d="M1145.61 54.3963L1166.22 54.8523L1166.58 54.9103L1173.2 56.9503C1173.89 57.1643 1174.27 57.8963 1174.06 58.5873C1173.86 59.2193 1173.23 59.5973 1172.59 59.4913L1172.42 59.4503L1165.98 57.4633L1145.55 57.0123C1144.89 56.9973 1144.35 56.4933 1144.28 55.8533L1144.27 55.6753C1144.29 55.0133 1144.79 54.4773 1145.43 54.4043L1145.61 54.3963Z" fill="#604346"/>
<path fill-rule="evenodd" clip-rule="evenodd" d="M1176.37 113.424C1168.77 102.698 1169.45 93.1173 1138.08 93.6903C1122.81 93.9683 1117.44 98.9803 1111.98 111.169C1116.17 129.927 1131.53 141.753 1151.91 140.18C1194.73 136.879 1196.67 94.1403 1196.67 94.1403C1196.67 94.1403 1190.63 95.6813 1188.68 98.8863C1183.3 107.747 1179.79 109.966 1176.37 113.424Z" fill="#7C5B4D"/>
<path fill-rule="evenodd" clip-rule="evenodd" d="M1127.43 102.56C1127.43 102.56 1138.51 103.225 1155.48 101.642C1155.48 101.642 1152.99 108.656 1140.76 108.734C1131.17 108.797 1127.43 102.56 1127.43 102.56Z" fill="white"/>
<path d="M1155.39 100.665C1145.28 101.608 1136.63 101.845 1129.96 101.672L1127.92 101.603C1127.74 101.595 1127.59 101.587 1127.49 101.581C1126.7 101.533 1126.18 102.386 1126.59 103.063C1127.11 103.94 1128.19 105.196 1129.88 106.439C1132.72 108.513 1136.33 109.744 1140.77 109.715C1146.31 109.68 1150.42 108.281 1153.29 105.949C1155.08 104.495 1156.04 103.015 1156.41 101.969C1156.65 101.294 1156.1 100.598 1155.39 100.665ZM1153.66 102.788L1153.61 102.859C1153.19 103.393 1152.67 103.922 1152.05 104.428C1149.54 106.47 1145.86 107.72 1140.76 107.753C1136.76 107.779 1133.55 106.688 1131.05 104.856L1130.55 104.474C1130.23 104.217 1129.93 103.954 1129.66 103.688L1129.59 103.624L1130.76 103.653C1136.52 103.77 1143.64 103.59 1151.82 102.942L1153.66 102.788Z" fill="#604346"/>
<path d="M1129.22 54.5883C1129.69 54.4593 1130.18 54.6963 1130.37 55.1253L1130.43 55.2753L1132.44 62.6293C1132.47 62.7273 1132.48 62.8273 1132.48 62.9273L1132.46 63.0763L1127.2 89.9473C1126.96 91.1703 1127.83 92.3163 1129.04 92.4513L1129.26 92.4653L1145.84 92.6583C1146.38 92.6653 1146.82 93.1093 1146.81 93.6513C1146.81 94.1383 1146.45 94.5392 1145.98 94.6092L1145.82 94.6203L1129.24 94.4273C1126.78 94.4003 1124.92 92.2332 1125.23 89.8382L1125.27 89.5723L1130.49 62.9263L1128.53 55.7933C1128.4 55.3233 1128.64 54.8393 1129.07 54.6423L1129.22 54.5883Z" fill="#604346"/>
<path fill-rule="evenodd" clip-rule="evenodd" d="M1134.81 154.448L1123.01 169.64L1140.63 201.958L1167.4 174.899L1134.81 154.448Z" fill="#ADC6FF"/>
<path fill-rule="evenodd" clip-rule="evenodd" d="M1167.4 174.897L1203.94 153.123L1216.41 167.593L1192.19 199.508L1167.4 174.897Z" fill="#ADC6FF"/>
<path fill-rule="evenodd" clip-rule="evenodd" d="M1146.99 196.117L1167.41 175.111L1188.1 196.219L1176.32 219.401L1155.77 219.265L1146.99 196.117Z" fill="#253368"/>
<path fill-rule="evenodd" clip-rule="evenodd" d="M1156.14 218.894L1176.44 218.764L1195.95 361.839C1196.11 363.066 1195.8 364.309 1195.07 365.308L1166.83 403.798C1164.8 406.566 1160.6 406.364 1158.84 403.413L1135.06 363.416C1134.49 362.464 1134.27 361.347 1134.44 360.251L1156.14 218.894Z" fill="#253368"/>
<path fill-rule="evenodd" clip-rule="evenodd" d="M1096.23 429.224L1096.35 446.902C1096.35 446.902 1117.06 454.133 1166.54 455.287C1214.13 456.396 1245.45 442.988 1245.45 442.988L1244.16 424.379C1244.16 424.379 1184.2 446.332 1096.23 429.224Z" fill="black"/>
<path fill-rule="evenodd" clip-rule="evenodd" d="M1083.49 526.193C1083.49 526.193 1146.92 521.052 1171.67 555.442C1176.28 598.599 1172.69 672.196 1169.02 769.83C1165.55 862.004 1143.85 1092.16 1143.85 1092.16C1143.85 1092.16 1114.38 1101.19 1084.26 1087.62C1089.76 1045.84 1082.67 842.904 1079.35 776.708C1076.03 710.508 1083.49 526.193 1083.49 526.193Z" fill="#4E5C93"/>
<path d="M1065.48 222.57C1066.2 222.593 1066.77 223.196 1066.75 223.918C1066.36 236.47 1066.79 250.118 1067.95 264.695C1069.82 288.189 1073.5 313.287 1078.48 338.846C1080.91 351.361 1083.51 363.238 1086.11 374.151L1087.21 378.683C1087.68 380.609 1088.14 382.425 1088.57 384.126L1089.49 387.699L1090.34 390.893C1090.53 391.59 1090.12 392.31 1089.42 392.501C1088.72 392.693 1088 392.283 1087.81 391.586L1086.79 387.718L1086.29 385.781C1085.6 383.123 1084.87 380.166 1084.09 376.934C1081.3 365.395 1078.51 352.734 1075.9 339.345C1070.91 313.695 1067.21 288.504 1065.34 264.902C1064.17 250.235 1063.74 236.492 1064.13 223.838C1064.15 223.116 1064.75 222.549 1065.48 222.57Z" fill="#5736FF"/>
<path d="M1137.48 116.016L1145.41 116.144C1145.95 116.153 1146.39 116.599 1146.38 117.141C1146.37 117.628 1146.01 118.027 1145.54 118.095L1145.38 118.106L1137.45 117.978C1136.9 117.969 1136.47 117.522 1136.48 116.981C1136.49 116.493 1136.85 116.094 1137.32 116.026L1137.48 116.016Z" fill="#604346"/>
<path d="M1215.37 166.804C1215.81 166.228 1216.63 166.115 1217.21 166.551C1217.73 166.948 1217.87 167.662 1217.57 168.221L1217.46 168.384L1193.23 200.299C1192.79 200.876 1191.98 200.98 1191.41 200.566L1191.27 200.44L1167.41 176.942L1141.43 202.253C1140.86 202.814 1139.93 202.723 1139.47 202.102L1139.37 201.949L1121.86 170.272C1121.51 169.639 1121.74 168.843 1122.37 168.495C1122.95 168.175 1123.67 168.341 1124.06 168.859L1124.15 169.008L1140.83 199.18L1166.5 174.175C1166.96 173.722 1167.68 173.682 1168.19 174.055L1168.33 174.179L1192.04 197.53L1215.37 166.804Z" fill="#5736FF"/>
<path d="M1173.48 218.128C1173.84 218.125 1174.14 218.416 1174.14 218.778C1174.14 219.094 1173.92 219.359 1173.62 219.422L1173.49 219.436L1156.14 219.548C1155.78 219.551 1155.48 219.26 1155.48 218.899C1155.48 218.583 1155.7 218.317 1156 218.254L1156.13 218.24L1173.48 218.128Z" fill="#5736FF"/>
<path fill-rule="evenodd" clip-rule="evenodd" d="M1141.51 452.205L1141.04 439.37C1140.91 435.754 1143.74 432.793 1147.21 432.939C1155.53 433.29 1170.22 433.661 1180.84 432.541C1184.32 432.178 1187.32 435.037 1187.35 438.679L1187.43 451.799C1187.45 454.868 1185.32 457.474 1182.42 457.968C1175.52 459.143 1162.19 460.595 1146.61 458.128C1143.77 457.678 1141.62 455.195 1141.51 452.205Z" fill="#E4EBF7"/>
<path fill-rule="evenodd" clip-rule="evenodd" d="M1146.82 450.412L1146.47 441.334C1146.37 438.775 1148.55 436.677 1151.23 436.782C1157.64 437.025 1168.98 437.282 1177.18 436.486C1179.86 436.227 1182.17 438.25 1182.19 440.824L1182.25 450.106C1182.27 452.278 1180.62 454.122 1178.38 454.473C1173.06 455.305 1162.78 456.338 1150.76 454.601C1148.57 454.284 1146.91 452.529 1146.82 450.412Z" fill="black"/>
<path d="M1111.03 53.7543L1128.53 54.2333C1129.25 54.2523 1129.82 54.8543 1129.8 55.5763C1129.79 56.2383 1129.28 56.7723 1128.64 56.8413L1128.46 56.8483L1110.96 56.3693C1110.24 56.3493 1109.67 55.7483 1109.69 55.0263C1109.7 54.3643 1110.21 53.8303 1110.86 53.7613L1111.03 53.7543Z" fill="#604346"/>
<path d="M1175.27 132.464C1175.74 132.196 1176.34 132.36 1176.61 132.831C1176.88 133.301 1176.72 133.901 1176.25 134.169C1163.79 141.249 1151.18 142.598 1140.22 140.665C1139.29 140.502 1138.47 140.326 1137.76 140.15L1137.13 139.983C1137.02 139.953 1136.93 139.927 1136.86 139.906C1136.34 139.744 1136.06 139.194 1136.22 138.677C1136.38 138.16 1136.93 137.872 1137.45 138.034L1137.83 138.14C1137.94 138.171 1138.08 138.207 1138.24 138.246C1138.9 138.411 1139.68 138.578 1140.56 138.733C1151.11 140.592 1163.26 139.292 1175.27 132.464Z" fill="#604346"/>
<path d="M1202.23 72.1522C1203.72 71.3832 1205.27 71.2333 1206.65 71.4323L1206.99 71.4892C1207.03 71.4982 1207.07 71.5072 1207.1 71.5152C1207.63 71.6472 1207.95 72.1803 1207.82 72.7053C1207.7 73.1783 1207.25 73.4843 1206.78 73.4443L1206.37 73.3743C1205.36 73.2293 1204.21 73.3402 1203.14 73.8942C1201.3 74.8462 1200.02 76.9492 1199.62 80.6222L1199.6 80.8013L1199.89 80.8713C1202.39 81.5123 1203.9 82.8993 1204.25 84.7933L1204.29 85.0813C1204.52 87.0383 1203.47 89.2022 1201.7 90.6872C1201.29 91.0362 1200.67 90.9842 1200.32 90.5702C1199.97 90.1562 1200.02 89.5373 1200.44 89.1883C1201.73 88.0973 1202.48 86.5503 1202.34 85.3113C1202.18 83.9563 1200.96 82.9502 1198.41 82.5752C1197.9 82.5012 1197.54 82.0542 1197.57 81.5452C1197.87 76.5792 1199.56 73.5362 1202.23 72.1522Z" fill="#604346"/>
<path fill-rule="evenodd" clip-rule="evenodd" d="M1346.16 610.57L1228.08 623.597C1223.05 624.154 1218.57 620.389 1218.27 615.345L1210.56 487.674C1210.26 482.601 1214.29 478.318 1219.38 478.303L1333.74 477.955C1339.67 477.936 1344.66 482.415 1345.25 488.307L1356.38 597.968C1357.01 604.252 1352.45 609.877 1346.16 610.57Z" fill="#FAAD14"/>
<path fill-rule="evenodd" clip-rule="evenodd" d="M1216 478.293L1216.88 478.287C1219.92 478.267 1222.43 480.629 1222.59 483.653L1229.84 618.37C1230.01 621.507 1227.59 624.183 1224.45 624.337C1221.33 624.494 1218.67 622.119 1218.49 619.016L1210.36 484.305C1210.16 481.058 1212.74 478.314 1216 478.293Z" fill="#FF7A46"/>
<path d="M1347.11 521.714C1347.47 521.714 1347.77 522.006 1347.77 522.367C1347.77 522.683 1347.55 522.947 1347.25 523.009L1347.11 523.023L1225.3 523.331L1214.64 523.399C1214.27 523.402 1213.98 523.111 1213.98 522.749C1213.98 522.433 1214.2 522.168 1214.5 522.105L1214.63 522.091L1225.3 522.023L1347.11 521.714Z" fill="#FF7A46"/>
<path fill-rule="evenodd" clip-rule="evenodd" d="M1332.22 618.019C1328.81 623.934 1325.36 622.974 1320.94 623.986C1316.52 624.996 1311.14 631.414 1311.14 631.414C1299.62 638.119 1302.45 619.685 1300.23 618.225C1299.12 617.498 1298.51 623.052 1293.89 626.616C1289.26 630.181 1284.29 628.303 1285.51 625.198C1288.41 617.812 1294.04 599.781 1295.13 590.266C1296.52 577.98 1303.58 566.639 1303.58 566.639C1312.13 549.309 1339.71 558.547 1339.71 558.547C1339.71 558.547 1347.93 612.022 1341.55 614.029C1341.55 614.029 1333.65 615.536 1332.22 618.019Z" fill="#997C79"/>
<path fill-rule="evenodd" clip-rule="evenodd" d="M1250.88 268.068C1250.88 268.068 1235.8 208.801 1277.05 193.064C1309.7 180.606 1355.87 320.264 1356.51 417.496C1356.92 480.834 1344.93 567.844 1344.93 567.844C1344.93 567.844 1316.24 574.408 1296.94 564.935C1299.37 521.951 1295.68 428.931 1289.71 398.259C1283.73 367.586 1250.88 268.068 1250.88 268.068Z" fill="#ADC6FF"/>
<path d="M1252.07 278.178C1252.69 277.955 1253.37 278.235 1253.67 278.807L1253.74 278.97L1269.53 323.066C1269.78 323.746 1269.42 324.495 1268.74 324.738C1268.11 324.961 1267.43 324.682 1267.13 324.109L1267.06 323.946L1251.27 279.85C1251.03 279.17 1251.38 278.421 1252.07 278.178Z" fill="#5736FF"/>
<path d="M1278.16 193.275C1278.85 193.067 1279.58 193.46 1279.79 194.152C1280 194.844 1279.6 195.573 1278.91 195.781C1267.31 199.252 1258.87 209.132 1253.14 223.511C1250.57 229.964 1248.73 236.892 1247.5 243.822C1247.13 245.901 1246.83 247.853 1246.61 249.64L1246.51 250.519C1246.44 251.048 1246.39 251.531 1246.35 251.966L1246.26 253.029C1246.21 253.75 1245.58 254.294 1244.86 254.245C1244.14 254.196 1243.59 253.572 1243.64 252.851L1243.7 252.151L1243.79 251.248C1243.8 251.087 1243.82 250.921 1243.84 250.75L1243.9 250.22C1244.14 248.149 1244.47 245.845 1244.91 243.364C1246.18 236.272 1248.07 229.179 1250.71 222.545C1256.7 207.496 1265.65 197.017 1278.16 193.275Z" fill="#5736FF"/>
<path d="M1303.67 545.185L1305.22 545.409L1306.22 545.547C1308.23 545.819 1310.42 546.092 1312.72 546.346C1316.54 546.768 1320.27 547.096 1323.76 547.296L1325.47 547.383C1331.05 547.638 1335.58 547.51 1338.67 546.927C1339.38 546.793 1340.07 547.26 1340.2 547.97C1340.34 548.68 1339.87 549.364 1339.16 549.498C1335.49 550.188 1330.18 550.282 1323.61 549.908C1320.07 549.705 1316.29 549.373 1312.43 548.947L1310.15 548.684C1309.03 548.551 1307.94 548.414 1306.89 548.277L1304.85 548L1303.27 547.771C1302.55 547.661 1302.06 546.993 1302.17 546.279C1302.27 545.625 1302.84 545.158 1303.49 545.17L1303.67 545.185Z" fill="#5736FF"/>
<path d="M1161.53 66.9433C1162.26 66.9393 1162.85 67.5213 1162.85 68.2433C1162.87 71.9993 1159.95 75.0853 1156.29 75.1083C1152.63 75.1313 1149.67 72.0843 1149.65 68.3283C1149.64 67.6063 1150.22 67.0163 1150.95 67.0113C1151.67 67.0063 1152.26 67.5883 1152.27 68.3103C1152.28 70.6473 1154.09 72.5063 1156.28 72.4923C1158.46 72.4793 1160.24 70.5953 1160.23 68.2593C1160.22 67.5373 1160.81 66.9483 1161.53 66.9433Z" fill="#604346"/>
<path d="M1124.98 67.1803C1125.71 67.1753 1126.3 67.7573 1126.3 68.4793C1126.33 72.2353 1123.41 75.3233 1119.75 75.3453C1116.09 75.3683 1113.13 72.3203 1113.1 68.5653C1113.1 67.8433 1113.68 67.2533 1114.4 67.2483C1115.13 67.2433 1115.72 67.8253 1115.72 68.5473C1115.74 70.8843 1117.55 72.7433 1119.73 72.7293C1121.91 72.7163 1123.7 70.8323 1123.68 68.4973C1123.68 67.7753 1124.26 67.1853 1124.98 67.1803Z" fill="#604346"/>
<path fill-rule="evenodd" clip-rule="evenodd" d="M1107.04 278.173C1107.04 278.173 1142.29 235.523 1151.06 234.67C1161.88 233.619 1173.61 233.702 1178.2 234.202C1179.63 234.356 1180.78 235.408 1181.08 236.805L1185.4 257.282C1185.89 259.624 1185.37 262.067 1183.95 264.001L1171.49 279.073C1170.87 279.829 1170.11 280.457 1169.24 280.922L1125.68 304.542C1125.68 304.542 1107.84 288.418 1107.04 278.173Z" fill="#997C79"/>
<path d="M1181.53 240.862C1182.07 240.813 1182.55 241.21 1182.6 241.75C1182.64 242.235 1182.32 242.671 1181.87 242.789L1181.71 242.816L1158.59 244.93C1158.05 244.98 1157.57 244.582 1157.52 244.043C1157.48 243.557 1157.79 243.122 1158.25 243.004L1158.41 242.976L1181.53 240.862Z" fill="#604346"/>
<path d="M1181.79 247.801C1182.29 247.597 1182.86 247.838 1183.07 248.339C1183.25 248.791 1183.08 249.3 1182.67 249.546L1182.53 249.618L1165.35 256.606C1164.84 256.811 1164.27 256.57 1164.06 256.068C1163.88 255.616 1164.06 255.107 1164.46 254.861L1164.6 254.789L1181.79 247.801Z" fill="#604346"/>
<path d="M1182.51 253.875C1182.91 253.508 1183.53 253.534 1183.9 253.932C1184.23 254.287 1184.24 254.816 1183.96 255.187L1183.84 255.319L1173.08 265.21C1172.68 265.578 1172.06 265.552 1171.69 265.154C1171.36 264.799 1171.35 264.269 1171.63 263.898L1171.75 263.767L1182.51 253.875Z" fill="#604346"/>
<path fill-rule="evenodd" clip-rule="evenodd" d="M995.486 343.354L1108.51 274.451L1129.4 308.2C1129.4 308.2 1050.27 390.169 1021.46 398.035C992.646 405.9 969.716 373.273 995.486 343.354Z" fill="#ADC6FF"/>
<path d="M1108.76 273.599L1108.88 273.752L1130.51 307.496C1130.84 308.013 1130.76 308.69 1130.33 309.124L1126.89 312.53L1123.37 315.984C1121.31 317.988 1119.12 320.112 1116.81 322.336L1115.65 323.456C1104.45 334.201 1092.89 344.947 1081.58 354.979C1078.27 357.912 1075.03 360.745 1071.86 363.467L1069.97 365.087C1049.13 382.868 1032.63 394.855 1021.96 399.243C1021.29 399.518 1020.52 399.2 1020.25 398.532C1019.97 397.864 1020.29 397.1 1020.96 396.824C1031.12 392.646 1047.11 381.081 1067.27 363.946L1068.26 363.099C1072.02 359.897 1075.88 356.532 1079.84 353.023C1089.99 344.018 1100.35 334.431 1110.47 324.787L1113.83 321.571C1116.17 319.319 1118.4 317.163 1120.5 315.124L1126.55 309.184L1127.73 308.018L1107.36 276.243L1092.07 285.603C1082.86 291.25 1073.64 296.905 1064.77 302.357L1033.06 321.906C1023.35 327.915 1015.75 332.654 1010.68 335.863C1010.06 336.25 1009.25 336.069 1008.87 335.458C1008.48 334.848 1008.66 334.04 1009.27 333.653L1017.43 328.53C1020.41 326.672 1023.78 324.574 1027.53 322.255L1054.65 305.507L1075.4 292.758L1107.09 273.342C1107.64 273.003 1108.35 273.123 1108.76 273.599Z" fill="#5736FF"/>
<path fill-rule="evenodd" clip-rule="evenodd" d="M1119.59 305.708C1119.6 307.958 1117.78 309.795 1115.53 309.808C1113.28 309.824 1111.44 308.011 1111.42 305.761C1111.41 303.511 1113.22 301.677 1115.48 301.661C1117.73 301.648 1119.57 303.458 1119.59 305.708Z" fill="white"/>
<path d="M1093.94 292.566C1094.51 292.231 1095.24 292.378 1095.64 292.884L1095.74 293.031L1112.16 320.917C1112.53 321.54 1112.32 322.342 1111.7 322.708C1111.12 323.043 1110.4 322.896 1110 322.39L1109.9 322.243L1093.48 294.357C1093.11 293.734 1093.32 292.932 1093.94 292.566Z" fill="#5736FF"/>
</svg>
