<svg width="1141" height="1018" viewBox="0 0 1141 1018" fill="none" xmlns="http://www.w3.org/2000/svg">
<path d="M960.212 127.273H804.11C799.227 127.273 795.269 131.219 795.269 136.086V376.607C795.269 381.475 799.227 385.42 804.11 385.42H998.252C1003.14 385.42 1007.09 381.475 1007.09 376.607V174.364L960.212 127.273Z" fill="#5736FF"/>
<path d="M960.212 126.906L960.286 165.57C960.286 170.437 964.245 174.383 969.127 174.383H1007.09" fill="#E4EBF7"/>
<path d="M889.492 150.841H733.748C728.865 150.841 724.906 154.787 724.906 159.654V400.175C724.906 405.042 728.865 408.988 733.748 408.988H928.258C933.141 408.988 937.099 405.042 937.099 400.175V202.334H903.123C898.242 202.334 889.492 198.391 889.492 193.521V150.841Z" fill="#E4EBF7"/>
<path d="M789.202 174.316H754.174C750.825 174.316 748.111 177.031 748.111 180.379V215.256C748.111 218.605 750.825 221.319 754.174 221.319H789.202C792.551 221.319 795.265 218.605 795.265 215.256V180.379C795.265 177.031 792.551 174.316 789.202 174.316Z" fill="#5736FF"/>
<path d="M910.949 244.82H750.313C749.097 244.82 748.111 245.806 748.111 247.022V254.37C748.111 255.585 749.097 256.571 750.313 256.571H910.949C912.165 256.571 913.15 255.585 913.15 254.37V247.022C913.15 245.806 912.165 244.82 910.949 244.82Z" fill="#5736FF"/>
<path d="M910.949 280.032H750.313C749.097 280.032 748.111 281.018 748.111 282.233V289.581C748.111 290.797 749.097 291.783 750.313 291.783H910.949C912.165 291.783 913.15 290.797 913.15 289.581V282.233C913.15 281.018 912.165 280.032 910.949 280.032Z" fill="#FF7946"/>
<path d="M910.949 315.284H750.313C749.097 315.284 748.111 316.269 748.111 317.485V324.833C748.111 326.049 749.097 327.034 750.313 327.034H910.949C912.165 327.034 913.15 326.049 913.15 324.833V317.485C913.15 316.269 912.165 315.284 910.949 315.284Z" fill="#FAAD14"/>
<path d="M889.492 150.841V193.521C889.492 198.389 893.451 202.334 898.334 202.334H937.099" fill="white"/>
<path fill-rule="evenodd" clip-rule="evenodd" d="M330.531 144.628H74.031V124.068C74.031 119.608 77.6608 115.992 82.1376 115.992H322.424C326.902 115.992 330.531 119.608 330.531 124.068V144.628Z" fill="#253368"/>
<path fill-rule="evenodd" clip-rule="evenodd" d="M321.503 342.191H83.0591C78.0735 342.191 74.0312 338.58 74.0312 334.126V142.095H330.531V334.126C330.531 338.58 326.489 342.191 321.503 342.191Z" fill="#E4EBF7"/>
<path fill-rule="evenodd" clip-rule="evenodd" d="M92.6327 129.319C92.6327 132.118 90.3689 134.388 87.5764 134.388C84.7842 134.388 82.5208 132.118 82.5208 129.319C82.5208 126.52 84.7842 124.251 87.5764 124.251C90.3689 124.251 92.6327 126.52 92.6327 129.319Z" fill="#FF7946"/>
<path fill-rule="evenodd" clip-rule="evenodd" d="M111.514 129.319C111.514 132.118 109.251 134.388 106.458 134.388C103.666 134.388 101.403 132.118 101.403 129.319C101.403 126.52 103.666 124.251 106.458 124.251C109.251 124.251 111.514 126.52 111.514 129.319Z" fill="#FAAD14"/>
<path fill-rule="evenodd" clip-rule="evenodd" d="M130.396 129.319C130.396 132.118 128.133 134.388 125.34 134.388C122.548 134.388 120.284 132.118 120.284 129.319C120.284 126.52 122.548 124.251 125.34 124.251C128.133 124.251 130.396 126.52 130.396 129.319Z" fill="#7CB305"/>
<path d="M307.758 160.004H96.8046C94.1568 160.004 92.0103 162.151 92.0103 164.799V183.976C92.0103 186.624 94.1568 188.771 96.8046 188.771H307.758C310.406 188.771 312.552 186.624 312.552 183.976V164.799C312.552 162.151 310.406 160.004 307.758 160.004Z" fill="white"/>
<path d="M261.012 160.004H308.956C311.604 160.004 313.751 162.151 313.751 164.799V183.976C313.751 186.624 311.604 188.771 308.956 188.771H261.012V160.004Z" fill="#5736FF"/>
<path d="M139.954 203.154H96.8046C94.1568 203.154 92.0103 205.3 92.0103 207.948V294.247C92.0103 296.895 94.1568 299.042 96.8046 299.042H139.954C142.602 299.042 144.749 296.895 144.749 294.247V207.948C144.749 205.3 142.602 203.154 139.954 203.154Z" fill="#5736FF"/>
<path d="M307.758 203.154H161.529C158.881 203.154 156.734 205.3 156.734 207.948V294.247C156.734 296.895 158.881 299.042 161.529 299.042H307.758C310.406 299.042 312.552 296.895 312.552 294.247V207.948C312.552 205.3 310.406 203.154 307.758 203.154Z" fill="white"/>
<path d="M287.973 222.332H174.122C172.463 222.332 171.118 223.677 171.118 225.336C171.118 226.995 172.463 228.34 174.122 228.34H287.973C289.632 228.34 290.978 226.995 290.978 225.336C290.978 223.677 289.632 222.332 287.973 222.332Z" fill="#E4EBF7"/>
<path d="M287.973 258.289H174.122C172.463 258.289 171.118 259.635 171.118 261.294C171.118 262.953 172.463 264.298 174.122 264.298H287.973C289.632 264.298 290.978 262.953 290.978 261.294C290.978 259.635 289.632 258.289 287.973 258.289Z" fill="#E4EBF7"/>
<path d="M252.015 240.311H174.122C172.463 240.311 171.118 241.656 171.118 243.315C171.118 244.974 172.463 246.319 174.122 246.319H252.015C253.674 246.319 255.02 244.974 255.02 243.315C255.02 241.656 253.674 240.311 252.015 240.311Z" fill="#E4EBF7"/>
<path d="M252.015 276.268H174.122C172.463 276.268 171.118 277.614 171.118 279.273C171.118 280.932 172.463 282.277 174.122 282.277H252.015C253.674 282.277 255.02 280.932 255.02 279.273C255.02 277.614 253.674 276.268 252.015 276.268Z" fill="#E4EBF7"/>
<path d="M112.386 309.829H94.4075C93.0835 309.829 92.0103 310.902 92.0103 312.226V322.454C92.0103 323.778 93.0835 324.851 94.4075 324.851H112.386C113.71 324.851 114.784 323.778 114.784 322.454V312.226C114.784 310.902 113.71 309.829 112.386 309.829Z" fill="#CCD7EE"/>
<path d="M307.159 309.829H299.368C297.382 309.829 295.772 311.439 295.772 313.425V321.255C295.772 323.241 297.382 324.851 299.368 324.851H307.159C309.145 324.851 310.754 323.241 310.754 321.255V313.425C310.754 311.439 309.145 309.829 307.159 309.829Z" fill="#5736FF"/>
<path d="M286.782 309.829H278.992C277.006 309.829 275.396 311.439 275.396 313.425V321.255C275.396 323.241 277.006 324.851 278.992 324.851H286.782C288.768 324.851 290.378 323.241 290.378 321.255V313.425C290.378 311.439 288.768 309.829 286.782 309.829Z" fill="#CCD7EE"/>
<path d="M265.207 309.829H257.417C255.431 309.829 253.821 311.439 253.821 313.425V321.255C253.821 323.241 255.431 324.851 257.417 324.851H265.207C267.193 324.851 268.803 323.241 268.803 321.255V313.425C268.803 311.439 267.193 309.829 265.207 309.829Z" fill="#CCD7EE"/>
<path d="M132.944 222.332H103.429C102.418 222.332 101.599 223.151 101.599 224.162V228.688C101.599 229.699 102.418 230.518 103.429 230.518H132.944C133.955 230.518 134.774 229.699 134.774 228.688V224.162C134.774 223.151 133.955 222.332 132.944 222.332Z" fill="#E4EBF7"/>
<path d="M132.972 237.913H103.401C102.406 237.913 101.599 238.72 101.599 239.716V244.05C101.599 245.045 102.406 245.852 103.401 245.852H132.972C133.967 245.852 134.774 245.045 134.774 244.05V239.716C134.774 238.72 133.967 237.913 132.972 237.913Z" fill="#E4EBF7"/>
<path d="M132.972 253.495H103.401C102.406 253.495 101.599 254.302 101.599 255.297V259.631C101.599 260.627 102.406 261.434 103.401 261.434H132.972C133.967 261.434 134.774 260.627 134.774 259.631V255.297C134.774 254.302 133.967 253.495 132.972 253.495Z" fill="#E4EBF7"/>
<path d="M132.972 269.077H103.401C102.406 269.077 101.599 269.884 101.599 270.879V275.213C101.599 276.209 102.406 277.015 103.401 277.015H132.972C133.967 277.015 134.774 276.209 134.774 275.213V270.879C134.774 269.884 133.967 269.077 132.972 269.077Z" fill="#E4EBF7"/>
<g clip-path="url(#clip0)">
<path fill-rule="evenodd" clip-rule="evenodd" d="M372 1457.56C372 1457.56 296.242 920.077 338.967 894.746C381.688 869.415 513.703 905.581 528.243 982.447C542.784 1059.31 530.133 1459.02 530.133 1459.02C530.133 1459.02 546.545 1505.01 527.789 1520.68C501.249 1534.67 469.456 1488.79 390.685 1506.93C352.142 1492.18 372 1457.56 372 1457.56Z" fill="#4E5C93"/>
<path fill-rule="evenodd" clip-rule="evenodd" d="M511.334 1005.86L635.36 1462.16C635.36 1462.16 622.453 1527.76 667.217 1537.54C681.136 1540.59 706.34 1523.2 735.931 1518.73C765.521 1514.26 799.502 1522.7 806.416 1510.46C820.234 1485.98 803.082 1449.56 803.082 1449.56C803.082 1449.56 744.187 1059.98 723.887 914.898C715.634 855.913 519.382 920.252 511.334 1005.86Z" fill="#4E5C93"/>
<path d="M480.239 821.953C479.297 821.956 478.521 822.658 478.401 823.567L478.385 823.819L478.578 884.616C478.581 885.643 479.417 886.473 480.444 886.47C481.386 886.467 482.162 885.765 482.283 884.856L482.299 884.604L482.105 823.808C482.102 822.78 481.267 821.95 480.239 821.953Z" fill="#253368"/>
<path fill-rule="evenodd" clip-rule="evenodd" d="M340.556 817.343C340.556 817.343 321.975 934.445 326.815 980.712C331.652 1026.98 457.65 1076.75 528.85 1078.98C567.069 1080.18 705.832 1037.5 719.193 981.538C736.082 910.796 724.737 888.933 714.877 858.412C707.771 836.408 698.097 808.112 698.097 808.112C698.097 808.112 371.966 818.325 340.556 817.343Z" fill="#4E5C93"/>
<path d="M481.359 898.576C480.337 898.475 479.426 899.222 479.325 900.244L479.168 902.081L479.052 903.65C478.976 904.751 478.9 905.959 478.828 907.27C476.906 942.229 479.678 982.889 490.901 1021.64C493.719 1031.38 497.021 1040.69 500.836 1049.54C501.243 1050.49 502.337 1050.92 503.281 1050.51C504.224 1050.11 504.659 1049.01 504.253 1048.07C500.501 1039.37 497.251 1030.2 494.475 1020.61C483.624 983.137 480.762 943.764 482.428 909.689L482.543 907.474C482.632 905.859 482.726 904.405 482.821 903.121L483.028 900.61C483.129 899.588 482.382 898.677 481.359 898.576Z" fill="#253368"/>
<path d="M709.606 851.039C709.25 850.075 708.18 849.583 707.216 849.939C634.201 876.924 567.533 890.909 507.369 894.131C461.741 896.575 422.94 892.728 391.128 884.825C382.909 882.783 375.763 880.607 369.698 878.425L368.415 877.957C366.522 877.258 364.861 876.603 363.431 876.004L362.736 875.71C361.8 875.308 361.184 875.026 360.888 874.881C359.965 874.431 358.851 874.814 358.4 875.738C357.95 876.661 358.333 877.775 359.257 878.225L359.635 878.405C359.94 878.546 360.35 878.73 360.864 878.954L361.269 879.129C362.905 879.83 364.858 880.61 367.126 881.448C373.585 883.833 381.291 886.215 390.231 888.436C422.397 896.427 461.566 900.31 507.568 897.846C568.108 894.604 635.145 880.543 708.506 853.429C709.47 853.073 709.962 852.003 709.606 851.039Z" fill="#253368"/>
<path d="M342.143 815.53C341.116 815.502 340.261 816.312 340.232 817.339C340.207 818.28 340.886 819.077 341.79 819.225L342.042 819.249L699.174 828.942C700.201 828.969 701.056 828.159 701.085 827.132C701.109 826.191 700.431 825.394 699.527 825.246L699.275 825.222L342.143 815.53Z" fill="#253368"/>
<path fill-rule="evenodd" clip-rule="evenodd" d="M603.563 270.269L609.68 365.85C612.444 409.025 578.374 445.663 535.113 446.038C492.031 446.41 457.406 410.662 459.147 367.617L463.058 270.983L603.563 270.269Z" fill="#9E7D6C"/>
<path fill-rule="evenodd" clip-rule="evenodd" d="M418.966 279.973C422.758 295.075 434.456 305.154 445.104 302.483C455.753 299.811 461.312 285.401 457.52 270.299C453.733 255.197 442.027 245.117 431.382 247.789C420.734 250.46 415.175 264.867 418.966 279.973Z" fill="#9E7D6C"/>
<path fill-rule="evenodd" clip-rule="evenodd" d="M641.282 281.318C636.438 296.119 624.051 305.346 613.619 301.931C603.189 298.519 598.658 283.751 603.502 268.954C608.343 254.153 620.733 244.926 631.162 248.338C641.595 251.753 646.126 266.517 641.282 281.318Z" fill="#9E7D6C"/>
<path fill-rule="evenodd" clip-rule="evenodd" d="M621.211 268.39C621.211 337.301 603.054 357.556 534.954 359.298C476.651 360.786 442.42 343.589 442.42 268.39C442.42 208.099 482.444 168.987 531.817 168.987C581.188 168.987 621.211 214.384 621.211 268.39Z" fill="#B0927B"/>
<path fill-rule="evenodd" clip-rule="evenodd" d="M611.432 244.416C619.391 250.927 612.831 277.939 619.115 280.734C623.305 280.034 623.305 254.89 626.099 223.465C627.945 202.692 621.712 185.469 614.926 178.068C607.243 169.686 600.025 170.884 582.102 155.718C554.863 132.672 498.989 137.561 480.832 165.496C450.802 162.006 420.073 186.447 434.04 243.021C440.466 269.04 440.831 281.586 443.818 280.734C448.707 279.335 441.024 252.795 451.502 244.416C464.613 233.927 457.265 211.741 465.469 201.814C465.469 201.814 527.627 164.797 596.069 201.814C603.053 212.288 596.069 231.844 611.432 244.416Z" fill="#4A3D39"/>
<path d="M486.489 228.44C494.078 224.935 503.192 223.528 513.616 225.39C515.639 225.752 516.986 227.685 516.625 229.707C516.263 231.73 514.33 233.077 512.307 232.716C503.453 231.134 495.87 232.304 489.61 235.196C488.129 235.88 486.854 236.606 485.79 237.323L485.266 237.687C485.116 237.795 484.992 237.887 484.894 237.963L484.679 238.138C483.132 239.491 480.781 239.334 479.428 237.787C478.075 236.241 478.232 233.89 479.779 232.537C481.038 231.436 483.288 229.919 486.489 228.44Z" fill="#4A3D39"/>
<path d="M551.433 225.385C560.073 223.882 568.23 224.973 575.519 227.706C578.539 228.838 580.753 229.991 582.028 230.816C583.753 231.933 584.246 234.236 583.13 235.961C582.013 237.687 579.71 238.18 577.985 237.064L577.734 236.911C577.514 236.782 577.19 236.601 576.766 236.38C575.658 235.803 574.365 235.22 572.907 234.674C566.779 232.376 559.93 231.46 552.709 232.717C550.684 233.069 548.758 231.713 548.406 229.689C548.053 227.664 549.409 225.738 551.433 225.385Z" fill="#4A3D39"/>
<path d="M517.957 234.073C518.585 233.78 519.321 233.996 519.699 234.551L519.811 234.748L525.749 247.492C525.921 247.861 525.923 248.286 525.755 248.657L525.437 249.385C525.306 249.691 525.153 250.059 524.98 250.484L524.801 250.927C524.078 252.729 523.354 254.697 522.679 256.764C521.547 260.233 520.67 263.621 520.147 266.785C518.222 278.432 521.185 284.515 530.979 283.535C531.746 283.459 532.43 284.018 532.507 284.785C532.583 285.551 532.024 286.235 531.257 286.312C519.115 287.526 515.214 279.519 517.394 266.33C517.942 263.012 518.854 259.492 520.027 255.898C520.722 253.769 521.466 251.744 522.211 249.888L522.707 248.678L522.952 248.099L517.281 235.927C516.988 235.298 517.204 234.563 517.759 234.185L517.957 234.073Z" fill="#7C5B4D"/>
<path fill-rule="evenodd" clip-rule="evenodd" d="M503.932 252.982C503.932 258.009 500.78 262.086 496.896 262.086C493.008 262.086 489.864 258.009 489.864 252.982C489.864 247.952 493.008 243.877 496.896 243.877C500.78 243.877 503.932 247.952 503.932 252.982Z" fill="#4A3D39"/>
<path fill-rule="evenodd" clip-rule="evenodd" d="M572.376 252.982C572.376 258.009 569.225 262.086 565.34 262.086C561.452 262.086 558.304 258.009 558.304 252.982C558.304 247.952 561.452 243.877 565.34 243.877C569.225 243.877 572.376 247.952 572.376 252.982Z" fill="#4A3D39"/>
<path fill-rule="evenodd" clip-rule="evenodd" d="M563.246 301.684C563.246 301.684 562.468 284.506 529.722 284.923C512.469 285.142 499.693 291.207 498.294 303.08C496.511 318.216 531.118 300.289 531.118 300.289C531.118 300.289 568.131 317.051 563.246 301.684Z" fill="#4A3D39"/>
<path d="M523.648 311.481L524.474 311.594C524.93 311.651 525.499 311.716 526.159 311.781C528.8 312.041 531.493 312.155 533.99 312.042C535.674 311.966 537.191 311.787 538.497 311.498C539.249 311.331 539.994 311.805 540.161 312.557C540.328 313.309 539.854 314.055 539.102 314.222C537.623 314.55 535.95 314.747 534.116 314.829C531.469 314.949 528.649 314.83 525.887 314.558L524.558 314.414L523.225 314.239C522.463 314.122 521.94 313.409 522.057 312.648C522.163 311.962 522.75 311.47 523.422 311.464L523.648 311.481Z" fill="#7C5B4D"/>
<path d="M483.855 350.507C484.277 349.862 485.141 349.681 485.786 350.103L486.351 350.447C486.753 350.681 487.3 350.983 487.989 351.337C489.847 352.29 492.032 353.247 494.525 354.141C504.793 357.825 516.779 359.334 530.157 357.442L531.596 357.226L532.025 357.225C547.246 359.546 559.748 358.198 569.578 354.552C571.803 353.726 573.702 352.845 575.273 351.967L575.986 351.557C576.514 351.242 576.877 351 577.075 350.852C577.692 350.391 578.567 350.517 579.028 351.135C579.489 351.752 579.363 352.626 578.745 353.088L578.344 353.37C577.942 353.639 577.372 353.991 576.633 354.404C574.939 355.35 572.911 356.292 570.548 357.168C560.61 360.854 548.134 362.284 533.114 360.203L531.821 360.014L530.544 360.205C517.19 362.094 505.148 360.705 494.733 357.169L493.583 356.768C490.973 355.831 488.678 354.827 486.715 353.819C486.196 353.553 485.727 353.3 485.31 353.064L484.367 352.507C484.325 352.481 484.289 352.458 484.259 352.438C483.614 352.017 483.433 351.152 483.855 350.507Z" fill="#7C5B4D"/>
<path d="M531.767 341.497C532.46 341.474 533.052 341.96 533.182 342.619L533.208 342.845L533.737 358.557C533.762 359.327 533.159 359.973 532.389 359.998C531.696 360.022 531.104 359.535 530.973 358.876L530.948 358.651L530.419 342.938C530.393 342.168 530.997 341.523 531.767 341.497Z" fill="#7C5B4D"/>
<path d="M425.561 263.281C427.437 259.7 429.372 257.701 431.798 258.431C434.574 259.268 436.322 264 437.519 273.576C437.555 273.864 437.501 274.155 437.363 274.411C435.008 278.785 435.255 281.604 436.931 283.429C437.398 283.937 437.854 284.238 438.1 284.347C438.805 284.66 439.122 285.484 438.809 286.189C438.496 286.893 437.671 287.21 436.967 286.897C436.398 286.644 435.632 286.139 434.876 285.316C432.46 282.686 432.035 278.777 434.597 273.681L434.694 273.493L434.644 273.097C433.637 265.529 432.26 261.722 431.115 261.152L430.993 261.103C430.487 260.951 429.278 262.2 428.033 264.576C427.572 265.457 427.142 266.408 426.757 267.361L426.418 268.232C426.36 268.388 426.314 268.517 426.281 268.614C426.031 269.343 425.237 269.731 424.508 269.48C423.779 269.23 423.392 268.436 423.642 267.707L423.904 266.991C423.981 266.79 424.07 266.564 424.17 266.316C424.586 265.284 425.053 264.252 425.561 263.281Z" fill="#7C5B4D"/>
<path d="M629.036 258.433C631.465 257.697 633.402 259.697 635.28 263.282C635.788 264.252 636.255 265.285 636.671 266.316L637.043 267.273C637.107 267.447 637.159 267.593 637.199 267.708C637.449 268.436 637.061 269.23 636.333 269.481C635.604 269.731 634.81 269.343 634.56 268.614L634.327 267.979C634.257 267.797 634.176 267.589 634.083 267.361C633.699 266.409 633.269 265.457 632.808 264.577C631.562 262.199 630.353 260.95 629.846 261.104C628.757 261.434 627.434 264.754 626.415 271.534L626.139 273.491L626.24 273.681C628.706 278.581 628.409 282.384 626.234 285.008L625.964 285.317C625.209 286.14 624.442 286.645 623.874 286.897C623.169 287.21 622.345 286.893 622.032 286.189C621.719 285.485 622.036 284.66 622.74 284.347C622.986 284.238 623.442 283.937 623.909 283.429C625.585 281.605 625.832 278.786 623.474 274.411C623.336 274.156 623.282 273.864 623.318 273.576L623.549 271.838C624.738 263.429 626.436 259.221 629.036 258.433Z" fill="#7C5B4D"/>
<path fill-rule="evenodd" clip-rule="evenodd" d="M147.461 469.705L118.548 371.799C118.548 371.799 70.0893 292.12 52.1332 296.815C35.4273 303.297 72.6715 326.332 79.819 348.782C64.0172 347.599 70.9079 369.15 70.9079 369.15C70.9079 369.15 58.3207 368.606 61.4684 386.146C49.6924 392.348 58.7859 412.529 58.7859 412.529C58.7859 412.529 81.5528 465.676 107.092 501.22C107.092 501.22 149.854 532.079 147.461 469.705Z" fill="#B0927B"/>
<path fill-rule="evenodd" clip-rule="evenodd" d="M141.19 436.658C141.19 436.658 137.134 403.138 133.994 386.049C130.854 368.964 139.162 338.238 125.432 346.271C116.198 351.67 117.545 370.006 117.686 383.519C117.831 397.037 93.4977 428.83 111.004 451.169C122.824 466.264 141.774 468.414 141.19 436.658Z" fill="#B0927B"/>
<path d="M78.8246 347.803C78.2845 348.352 78.2921 349.236 78.8418 349.776L79.7067 350.648L80.8076 351.789C81.193 352.193 81.596 352.621 82.014 353.07C84.4027 355.64 86.7913 358.386 89.0178 361.195C91.2238 363.977 93.1493 366.67 94.7133 369.214L95.4419 370.432C100.196 378.611 100.324 383.872 95.0377 385.825C94.3149 386.092 93.9453 386.894 94.2122 387.617C94.4792 388.34 95.2817 388.71 96.0045 388.443C103.896 385.528 103.346 377.926 97.0904 367.752C95.4629 365.105 93.4747 362.324 91.2045 359.461C88.9285 356.59 86.493 353.79 84.0577 351.17L82.8268 349.862C82.6301 349.656 82.4377 349.455 82.2501 349.261L80.7977 347.786C80.2481 347.245 79.3647 347.253 78.8246 347.803Z" fill="#7C5B4D"/>
<path d="M71.259 368.996C70.8103 369.623 70.9543 370.495 71.5807 370.943L72.4968 371.617L73.6639 372.501C74.0724 372.814 74.4995 373.146 74.9426 373.495C77.474 375.487 80.005 377.622 82.3632 379.811C84.8515 382.121 86.9989 384.356 88.7013 386.459C93.4167 392.282 94.1475 396.15 90.5438 398.119C89.0973 398.909 87.4782 399.102 85.668 398.748C82.9086 398.209 79.846 396.434 76.7266 393.804C75.3594 392.651 74.0746 391.413 72.9129 390.174L72.3674 389.584C71.955 389.129 71.6499 388.773 71.4661 388.547C70.9795 387.95 70.1007 387.86 69.5031 388.346C68.9056 388.833 68.8156 389.712 69.3021 390.309L69.7266 390.81C70.0608 391.196 70.4461 391.624 70.8777 392.084C72.1094 393.397 73.471 394.709 74.9279 395.938C78.3775 398.846 81.8163 400.839 85.1327 401.487C87.5516 401.96 89.8304 401.689 91.8817 400.568C97.6142 397.435 96.5288 391.691 90.8699 384.703C89.075 382.486 86.8396 380.159 84.2617 377.766C81.8427 375.521 79.2554 373.338 76.6684 371.302L75.3613 370.286L73.2058 368.675C72.5794 368.226 71.7078 368.37 71.259 368.996Z" fill="#7C5B4D"/>
<path d="M65.8745 386.083C65.1127 385.966 64.4009 386.49 64.2847 387.251C64.1684 388.013 64.6917 388.725 65.4534 388.841C68.1422 389.252 71.436 391.43 75.3284 395.712C83.4762 404.675 85.1238 410.453 82.3855 411.879C79.5396 413.361 73.3375 410.704 69.461 405.51C68.4274 404.125 66.2951 405.484 67.1143 407.006C72.0781 416.226 77.995 422.439 85.5555 427.271C87.4394 428.476 89.4052 429.587 91.6994 430.773L93.3888 431.631L97.5778 433.697C109.822 439.755 114.587 444.604 117.09 456.781C117.245 457.535 117.983 458.021 118.738 457.866C119.493 457.711 119.979 456.973 119.824 456.219C117.176 443.341 111.988 437.84 99.6487 431.612L92.3593 427.978C89.8666 426.705 89.056 426.197 87.0584 424.92C82.6198 422.083 78.7887 418.755 75.3913 414.546L74.4986 413.405L74.7497 413.535C77.8428 415.07 80.9689 415.522 83.2758 414.542L83.6743 414.354C88.8118 411.679 86.617 403.982 77.3933 393.835C73.1099 389.123 69.3047 386.606 65.8745 386.083Z" fill="#7C5B4D"/>
<path d="M117.652 365.241C116.962 365.169 116.337 365.612 116.16 366.26L116.119 366.483L113.467 391.844L113.24 392.188L112.718 393.015C112.535 393.31 112.344 393.625 112.147 393.958C111.021 395.854 109.896 397.966 108.845 400.242C105.819 406.798 104.002 413.373 104.013 419.57C104.021 424.263 105.095 428.554 107.384 432.32C107.785 432.979 108.643 433.188 109.301 432.788C109.96 432.388 110.169 431.53 109.769 430.871C107.76 427.566 106.811 423.773 106.803 419.565C106.794 413.835 108.508 407.631 111.379 401.411C112.387 399.228 113.467 397.2 114.546 395.382L115.205 394.298C115.532 393.772 115.791 393.379 115.963 393.129C116.052 393.001 116.119 392.859 116.161 392.709L116.204 392.48L118.894 366.774C118.974 366.007 118.418 365.321 117.652 365.241Z" fill="#7C5B4D"/>
<g clip-path="url(#clip1)">
<path fill-rule="evenodd" clip-rule="evenodd" d="M542.812 784.234L590.526 863.675C596.033 872.839 607.749 876.095 617.192 871.075L825.898 760.18C864.039 737.722 876.756 688.597 854.298 650.456C832.014 612.609 783.474 599.799 745.46 621.546C744.872 621.881 744.295 622.25 743.741 622.637L548.623 757.341C539.895 763.369 537.35 775.141 542.812 784.234Z" fill="#E4EBF7"/>
</g>
<path fill-rule="evenodd" clip-rule="evenodd" d="M814.393 760.473C856.076 744.913 877.105 698.378 861.237 656.814L798.092 491.41C782.391 450.278 736.448 429.516 695.2 444.912C653.517 460.472 632.488 507.007 648.357 548.575L711.501 713.975C727.202 755.107 773.145 775.869 814.393 760.473Z" fill="#E4EBF7"/>
<path fill-rule="evenodd" clip-rule="evenodd" d="M333.798 675.554C333.798 675.554 249.989 815.933 390.799 861.887C440.076 877.968 489.097 876.268 534.939 873.552C628.403 868.012 693.17 845.308 705.694 831.649C739.336 794.97 724.048 739.056 731.679 651.243C738.637 571.178 810.42 492.418 766.456 448.227C733.346 428.243 668.222 396.721 623.697 384.209C589.704 374.654 566.39 436.045 533.005 435.402C505.297 434.862 489.528 385.388 464.134 390.467C401.277 403.039 373.606 403.18 340.518 434.468C340.518 434.468 330.223 473.297 348.461 562.415C348.461 562.415 331.104 640.111 333.798 675.554Z" fill="#E4EBF7"/>
<path fill-rule="evenodd" clip-rule="evenodd" d="M466.286 404.739C466.286 404.739 469.37 516.177 507.087 605.225C583.879 473.471 623.166 389.324 625.249 389.1L530.714 429.113L466.286 404.739Z" fill="white"/>
<path fill-rule="evenodd" clip-rule="evenodd" d="M490.762 445.607L523.976 422.538L560.514 448.085L542.226 478.728L500.075 477.646L490.762 445.607Z" fill="#253368"/>
<path fill-rule="evenodd" clip-rule="evenodd" d="M480.668 524.54L500.826 477.25L542.71 478.56L555.852 518.509L509.131 611.843L480.668 524.54Z" fill="#253368"/>
<path fill-rule="evenodd" clip-rule="evenodd" d="M470.45 456.921L527.388 423.766L473.486 382.25L464.129 391.038L470.45 456.921Z" fill="white"/>
<path fill-rule="evenodd" clip-rule="evenodd" d="M527.387 423.767L575.116 461.596L626.298 389.131L616.219 376.239L527.387 423.767Z" fill="white"/>
<path fill-rule="evenodd" clip-rule="evenodd" d="M468.313 459.577L525.326 422.653L472.942 377.342L458.346 393.65L468.313 459.577Z" fill="white"/>
<path d="M474.159 375.935L526.543 421.246C527.48 422.057 527.377 423.541 526.337 424.215L469.325 461.139C468.19 461.874 466.676 461.192 466.474 459.856L456.506 393.928C456.423 393.38 456.589 392.823 456.959 392.41L471.556 376.102C472.233 375.345 473.391 375.271 474.159 375.935ZM473.11 379.945L460.318 394.238L469.721 456.448L522.238 422.438L473.11 379.945Z" fill="#E4EBF7"/>
<path fill-rule="evenodd" clip-rule="evenodd" d="M525.326 422.654L584.608 462.752L631.541 386.548L612.904 370.545L525.326 422.654Z" fill="white"/>
<path d="M521.858 422.553L613.102 368.262L633.959 386.171L585.175 465.38L521.858 422.553ZM612.708 372.825L528.796 422.752L584.044 460.123L629.126 386.924L612.708 372.825Z" fill="#E4EBF7"/>
<path d="M508.344 619.09C507.408 618.983 506.556 619.59 506.33 620.478L506.285 620.727L497.959 693.578L497.589 694.121L497.197 694.72C496.385 695.982 495.484 697.503 494.518 699.289C491.774 704.36 489.036 710.545 486.485 717.882C473.901 754.081 470.364 802.983 481.331 865.705C481.508 866.717 482.472 867.394 483.484 867.218C484.496 867.041 485.173 866.077 484.996 865.065C474.136 802.955 477.627 754.694 490 719.103C492.484 711.958 495.14 705.956 497.79 701.06C498.558 699.641 499.278 698.404 499.937 697.347L500.676 696.198C500.939 695.802 501.129 695.532 501.238 695.386C501.387 695.188 501.494 694.963 501.554 694.724L501.598 694.481L509.981 621.15C510.098 620.129 509.365 619.207 508.344 619.09Z" fill="#A3B5D6"/>
<path d="M332.655 476.763C331.637 476.622 330.697 477.332 330.556 478.35L330.318 480.209L330.173 481.417C329.888 483.858 329.603 486.607 329.337 489.607C328.281 501.53 327.826 513.705 328.315 525.087C328.826 536.971 330.344 547.113 333.068 555.011L333.33 555.743L331.943 677.182L331.137 678.771L330.306 680.465C329.733 681.65 329.123 682.947 328.483 684.35C325.744 690.353 323.007 697.065 320.452 704.324C312.348 727.349 307.864 750.528 308.9 772.22C310.722 810.386 329.47 839.398 369.056 855.191L370.004 855.62C370.321 855.761 370.697 855.925 371.133 856.111L372.645 856.748C373.7 857.185 374.849 857.647 376.089 858.129L377.037 858.495C383.454 860.952 390.821 863.408 399.029 865.698C410.406 868.874 422.49 871.473 435.148 873.298C517.35 885.144 631.45 872.523 703.363 837.511C704.287 837.061 704.672 835.947 704.222 835.024C703.772 834.1 702.659 833.716 701.735 834.165C630.55 868.823 517.191 881.362 435.679 869.615C423.185 867.814 411.257 865.248 400.029 862.115C391.936 859.856 384.679 857.437 378.367 855.02L376.546 854.312C375.377 853.85 374.3 853.411 373.317 852.997L371.221 852.09C370.946 851.967 370.721 851.865 370.537 851.78C332.27 836.509 314.372 808.814 312.616 772.042C311.606 750.899 316.003 728.169 323.961 705.559C326.478 698.41 329.173 691.801 331.868 685.894L332.786 683.909C333.084 683.275 333.374 682.667 333.654 682.087L334.467 680.431C334.934 679.493 335.265 678.853 335.438 678.531C335.532 678.355 335.597 678.165 335.631 677.97L335.658 677.674L337.053 555.452C337.056 555.226 337.017 555 336.939 554.788C334.132 547.17 332.551 537 332.032 524.927C331.551 513.729 332 501.709 333.044 489.936L333.273 487.457C333.428 485.847 333.588 484.324 333.748 482.899L334.011 480.662L334.241 478.862C334.383 477.844 333.672 476.905 332.655 476.763Z" fill="#A3B5D6"/>
<path d="M633.754 385.132C632.954 384.488 631.783 384.614 631.139 385.415C618.574 401.021 602.439 427.418 583.545 462.432C578.305 472.142 572.898 482.433 567.353 493.232C554.433 518.392 541.304 545.225 528.566 572.17L523.677 582.558C521.185 587.877 518.813 592.977 516.576 597.818L510.619 610.803L509.952 612.27L508.813 608.998C501.512 587.722 493.989 560.106 486.394 527.597L485.838 525.207C479.59 498.278 473.634 469.54 468.14 440.689L466.127 430C465.07 424.329 464.077 418.893 463.15 413.732L461.423 403.999L459.684 393.881C459.515 392.868 458.557 392.183 457.543 392.351C456.614 392.506 455.961 393.324 455.988 394.24L456.106 395.042L457.962 405.804L459.487 414.389C460.548 420.297 461.697 426.563 462.926 433.13L463.391 435.606C469.193 466.436 475.536 497.267 482.213 526.048L483.33 530.828C491.702 566.419 499.989 596.053 508.01 617.859C508.552 619.331 510.519 619.485 511.318 618.23L511.617 617.615L516.26 607.409L519.005 601.435C522.141 594.633 525.557 587.294 529.21 579.529C542.778 550.687 556.842 521.846 570.663 494.932C575.582 485.352 580.391 476.174 585.071 467.449L586.819 464.199C605.613 429.372 621.652 403.13 634.037 387.748C634.681 386.948 634.555 385.777 633.754 385.132Z" fill="#A3B5D6"/>
<path d="M569.105 698.708C527.371 693.9 491.514 693.422 463.128 695.492L459.531 695.774C458.013 695.902 456.605 696.033 455.307 696.164L452.592 696.459L451.311 696.618C450.293 696.757 449.581 697.695 449.721 698.713C449.86 699.731 450.798 700.444 451.816 700.304L453.556 700.093L454.747 699.963C457.191 699.704 460.08 699.445 463.399 699.203L467.035 698.955C494.604 697.197 528.953 697.827 568.679 702.404C569.7 702.521 570.623 701.789 570.741 700.769C570.858 699.748 570.126 698.825 569.105 698.708Z" fill="#A3B5D6"/>
<path d="M536.449 663.965L534.243 664.097C529.178 664.365 521.219 664.589 511.087 664.773L508.614 664.816C503.627 664.9 498.384 664.971 493.069 665.03L476.692 665.173C475.665 665.179 474.837 666.016 474.842 667.044C474.847 667.986 475.552 668.76 476.46 668.878L476.939 668.892L486.702 668.816L496.294 668.714C499.465 668.675 502.597 668.632 505.651 668.585L516.106 668.396C525.459 668.2 532.547 667.961 536.703 667.677C537.728 667.606 538.502 666.718 538.432 665.693C538.362 664.668 537.474 663.894 536.449 663.965Z" fill="#A3B5D6"/>
<path fill-rule="evenodd" clip-rule="evenodd" d="M127.622 437.239L77.5902 472.612C62.9306 482.974 59.2248 503.147 69.252 518.045L179.712 682.225C206.204 717.683 256.422 724.953 291.88 698.462C326.688 672.462 334.334 623.594 309.55 588.266C308.62 586.945 307.563 585.706 306.451 584.534L170.671 441.473C159.367 429.563 141.032 427.758 127.622 437.239Z" fill="#E4EBF7"/>
<path d="M174.158 441.862C173.451 441.117 172.274 441.086 171.528 441.793C170.851 442.436 170.764 443.468 171.285 444.21L171.46 444.423L307.239 587.484C308.383 588.689 309.348 589.845 310.161 591.004C310.751 591.845 311.911 592.049 312.752 591.459C313.594 590.869 313.797 589.708 313.207 588.867C312.466 587.811 311.626 586.771 310.674 585.717L309.938 584.923L174.158 441.862Z" fill="#A3B5D6"/>
<path d="M709.962 562.649C709.021 562.612 708.215 563.279 708.055 564.182L708.028 564.433L704.054 661.86C704.044 662.103 704.082 662.346 704.166 662.575L704.987 664.918L705.875 667.556C706.183 668.49 706.505 669.478 706.837 670.517L707.173 671.574C709.437 678.738 711.701 686.683 713.815 695.19C719.094 716.436 722.546 737.527 723.31 757.197C724.58 789.875 718.3 815.56 702.823 831.657C702.111 832.398 702.134 833.576 702.875 834.288C703.616 835 704.793 834.977 705.505 834.236C721.825 817.262 728.334 790.643 727.028 757.052C726.253 737.098 722.761 715.767 717.426 694.293C715.486 686.488 713.421 679.15 711.344 672.445L710.72 670.453C710.263 669.004 709.824 667.647 709.407 666.386L707.991 662.224L707.787 661.645L711.745 564.585C711.784 563.644 711.116 562.838 710.214 562.678L709.962 562.649Z" fill="#A3B5D6"/>
<path fill-rule="evenodd" clip-rule="evenodd" d="M187.716 689.649C219.041 721.375 270.238 721.435 301.637 689.783L440.017 550.275C470.955 519.084 471.015 468.803 440.148 437.538C408.823 405.811 357.626 405.752 326.227 437.407L187.847 576.911C156.909 608.102 156.85 658.387 187.716 689.649Z" fill="#E4EBF7"/>
</g>
<path fill-rule="evenodd" clip-rule="evenodd" d="M962.006 722.762H904.231V524.82C904.231 509.064 917.097 496.292 932.967 496.292H933.269C949.14 496.292 962.006 509.064 962.006 524.82V722.762Z" fill="#7CB305"/>
<path fill-rule="evenodd" clip-rule="evenodd" d="M990.735 771.214H932.793V667.852C932.793 652.513 945.374 640.078 960.895 640.078H962.634C978.154 640.078 990.735 652.513 990.735 667.852V771.214Z" fill="#5B8C00"/>
<path fill-rule="evenodd" clip-rule="evenodd" d="M912.706 722.659H854.377V610.279C854.377 594.853 866.991 582.348 882.552 582.348H884.53C900.091 582.348 912.706 594.853 912.706 610.279V722.659Z" fill="#7CB305"/>
<path fill-rule="evenodd" clip-rule="evenodd" d="M994.182 886.833H842.445C836.448 886.833 831.586 882.021 831.586 876.086V726.821C831.586 720.885 836.448 716.074 842.445 716.074H994.182C1000.18 716.074 1005.04 720.885 1005.04 726.821V876.086C1005.04 882.021 1000.18 886.833 994.182 886.833Z" fill="#253368"/>
<path fill-rule="evenodd" clip-rule="evenodd" d="M209.968 728.68L176.992 832.273H196.929L229.905 728.68H209.968Z" fill="#5736FF"/>
<path fill-rule="evenodd" clip-rule="evenodd" d="M162.945 740.457H141.781H128.439C127.398 740.457 126.555 741.301 126.555 742.342V755.683V805.269V818.611C126.555 819.652 127.398 820.495 128.439 820.495H141.781H162.945C163.986 820.495 164.829 819.652 164.829 818.611V807.153C164.829 806.113 163.986 805.269 162.945 805.269H141.781V755.683H162.945C163.986 755.683 164.829 754.84 164.829 753.799V742.342C164.829 741.301 163.986 740.457 162.945 740.457Z" fill="#CCD7EE"/>
<path fill-rule="evenodd" clip-rule="evenodd" d="M278.458 740.457H265.116H243.952C242.911 740.457 242.067 741.301 242.067 742.342V753.799C242.067 754.84 242.911 755.683 243.952 755.683H265.116V805.269H243.952C242.911 805.269 242.067 806.113 242.067 807.153V818.611C242.067 819.652 242.911 820.495 243.952 820.495H265.116H278.458C279.499 820.495 280.342 819.652 280.342 818.611V807.153V753.799V742.342C280.342 741.301 279.499 740.457 278.458 740.457Z" fill="#CCD7EE"/>
<defs>
<clipPath id="clip0">
<rect width="1109" height="1018" rx="460" fill="white"/>
</clipPath>
<clipPath id="clip1">
<rect width="324.941" height="248.047" fill="white" transform="matrix(-1 0 0 1 865.914 611.804)"/>
</clipPath>
</defs>
</svg>
