<svg width="634" height="552" viewBox="0 0 634 552" fill="none" xmlns="http://www.w3.org/2000/svg">
<path d="M541.152 497.144C417.355 570.284 216.642 570.287 92.8482 497.145C-30.9494 424.004 -30.9494 305.42 92.8482 232.278C216.644 159.137 417.357 159.137 541.153 232.277C664.949 305.417 664.949 424.004 541.152 497.144Z" fill="#FAFAFA"/>
<path d="M353.155 364.714C327.142 349.268 284.969 349.268 258.956 364.714C236.907 377.808 233.556 397.794 248.889 412.99C248.004 413.249 247.157 413.583 246.41 414.026L164.233 462.823C160.744 464.896 160.744 468.253 164.233 470.325L169.377 473.38C172.865 475.451 178.426 475.291 181.796 473.023L258.331 421.505C258.664 421.281 258.94 421.037 259.211 420.793C285.241 436.092 327.224 436.047 353.155 420.65C379.166 405.204 379.166 380.16 353.155 364.714Z" fill="#E6E6E6"/>
<path d="M536.004 308.531L431.323 370.835C428.998 372.216 425.23 372.216 422.906 370.835L240.8 262.689C238.476 261.31 238.476 259.071 240.8 257.691L345.482 195.386C347.806 194.006 351.576 194.006 353.9 195.386L536.004 303.533C538.33 304.913 538.33 307.151 536.004 308.531Z" fill="#E6E6E6"/>
<path d="M69.8595 426.35L41.8582 409.722C38.4708 407.712 38.4708 404.45 41.8582 402.439L236.679 286.752C240.067 284.74 245.557 284.74 248.943 286.752L276.946 303.381C280.333 305.391 280.333 308.652 276.946 310.663L82.1233 426.35C78.7373 428.362 73.2455 428.362 69.8595 426.35Z" fill="#E6E6E6"/>
<path d="M499.706 450.908C519.909 462.265 552.663 462.265 572.864 450.908C593.068 439.556 593.068 421.146 572.864 409.791C552.663 398.438 519.909 398.438 499.706 409.791C479.502 421.146 479.502 439.556 499.706 450.908Z" fill="#E6E6E6"/>
<path d="M558.932 401.47C559.436 395.024 565.014 382.046 572.173 374.213C579.332 366.38 590.036 361.106 597.101 364.262C603.681 367.202 602.233 376.271 593.553 381.641C584.87 387.012 571.938 393.591 567.51 403.748L558.932 415.952V401.47Z" fill="#0084CF"/>
<g opacity="0.100006">
<g opacity="0.100006">
<path opacity="0.100006" d="M558.932 401.47C559.436 395.024 565.014 382.046 572.173 374.213C579.332 366.38 590.036 361.106 597.101 364.262C603.681 367.202 602.233 376.271 593.553 381.641C584.87 387.012 571.938 393.591 567.51 403.748L558.932 415.952V401.47Z" fill="black"/>
</g>
</g>
<path d="M557.78 410.254C557.981 410.254 558.165 410.117 558.222 409.909C564.14 388.251 582.847 371.794 593.516 368.699C593.76 368.627 593.903 368.367 593.835 368.116C593.766 367.865 593.518 367.714 593.269 367.79C582.396 370.943 563.346 387.667 557.338 409.654C557.269 409.905 557.411 410.164 557.656 410.235C557.697 410.248 557.739 410.254 557.78 410.254Z" fill="white"/>
<path d="M559.87 424.604C561.16 421.064 565.931 415.44 573.278 411.075C581.405 406.248 591.348 404.541 593.925 400.473C597.024 395.588 593.214 390.413 585.224 390.768C577.237 391.124 562.461 401.072 558.932 417.599L559.87 424.604Z" fill="#0084CF"/>
<path d="M558.636 420.675C558.812 420.675 558.978 420.572 559.055 420.397C567.092 402.086 581.593 396.625 588.139 396.296C588.392 396.283 588.588 396.062 588.576 395.801C588.564 395.54 588.357 395.339 588.095 395.352C580.856 395.716 566.419 401.318 558.217 420.008C558.114 420.246 558.217 420.525 558.448 420.633C558.509 420.662 558.574 420.675 558.636 420.675Z" fill="white"/>
<path d="M44.1658 365.514C44.1658 365.514 42.6859 352.126 36.2099 341.734C29.7339 331.343 20.8363 324.857 12.5348 324.182C4.23342 323.507 -2.472 331.362 6.41003 336.757C15.2935 342.152 31.075 347.657 38.3383 367.834L44.1658 365.514Z" fill="#0084CF"/>
<g opacity="0.100006">
<g opacity="0.100006">
<path opacity="0.100006" d="M44.1658 365.514C44.1658 365.514 42.6859 352.126 36.2099 341.734C29.7339 331.343 20.8363 324.857 12.5348 324.182C4.23342 323.507 -2.472 331.362 6.41003 336.757C15.2935 342.152 31.075 347.657 38.3383 367.834L44.1658 365.514Z" fill="black"/>
</g>
</g>
<path d="M41.7317 362.037C41.7614 362.031 41.7912 362.023 41.8195 362.01C42.0461 361.916 42.1551 361.65 42.0631 361.417C33.3028 339.225 16.6249 329.959 9.02874 328.16C8.79083 328.102 8.55292 328.258 8.49628 328.503C8.44246 328.749 8.58974 328.994 8.82907 329.05C16.2695 330.811 32.6174 339.917 41.2417 361.761C41.3224 361.964 41.5292 362.075 41.7317 362.037Z" fill="white"/>
<path d="M1.91735 361.95C2.71606 363.803 4.68308 364.769 6.51415 365.526C8.33389 366.278 10.3278 367.098 11.3177 368.85C13.3088 372.389 10.0389 377.365 12.1773 380.811C13.0737 382.254 14.7433 383.016 16.3846 383.319C17.7484 383.581 19.1362 383.58 20.5184 383.699C21.1839 383.684 21.8425 383.635 22.484 383.542C24.3816 383.258 26.4392 383.167 28.1769 384.165C30.9114 385.745 31.7512 389.298 33.4123 392.036C35.4034 395.315 38.9239 397.461 42.6243 397.979C43.8521 398.146 46.1392 398.373 47.3896 397.655C47.4888 397.6 47.5695 397.547 47.6488 397.486C47.6573 397.483 47.6644 397.473 47.6714 397.463C47.8428 397.263 48.0595 397.01 48.1515 396.872C48.1756 396.848 48.1883 396.818 48.2011 396.789C48.6854 394.953 47.8938 393.044 47.8626 391.148C47.8584 391.028 47.857 390.917 47.864 390.805C47.9419 388.602 48.0014 386.41 48.051 384.212C48.1515 380.168 48.1954 376.116 48.1685 372.067C48.1416 369.44 48.4489 366.562 47.3684 364.084C46.1703 361.362 43.1922 361.301 42.0678 358.63C41.616 357.563 41.3767 356.422 40.9405 355.345C39.6391 352.186 36.4839 349.915 33.1447 349.748C27.946 349.475 23.2798 353.806 18.0883 353.411C16.7429 353.303 15.433 352.882 14.1075 352.632C9.89589 351.82 5.03003 353.054 2.66224 356.719C1.67236 358.249 1.19371 360.27 1.91735 361.95Z" fill="#0084CF"/>
<path d="M48.6265 388.366L48.6619 388.357C48.897 388.293 49.04 388.043 48.9749 387.799C41.7922 360.081 13.3972 356.075 6.75404 356.568C6.51329 356.588 6.32636 356.805 6.34336 357.056C6.36035 357.308 6.57277 357.497 6.81776 357.478C13.3164 356.996 41.0898 360.915 48.1195 388.034C48.179 388.267 48.4013 388.408 48.6265 388.366Z" fill="white"/>
<path d="M17.0773 374.32C17.1636 374.304 17.2458 374.26 17.3123 374.193C17.3832 374.119 24.6239 366.775 36.6356 368.595C36.8763 368.628 37.1043 368.459 37.1397 368.21C37.1751 367.96 37.0066 367.728 36.7645 367.692C24.2897 365.805 16.7558 373.472 16.6807 373.551C16.5094 373.73 16.5108 374.019 16.685 374.196C16.7912 374.304 16.9385 374.346 17.0773 374.32Z" fill="white"/>
<path d="M532.118 288.356L430.969 348.556C428.723 349.89 425.081 349.89 422.835 348.556L246.875 244.06C244.629 242.726 244.629 240.563 246.875 239.229L348.026 179.027C350.272 177.695 353.912 177.695 356.16 179.027L532.118 283.526C534.364 284.86 534.364 287.022 532.118 288.356Z" fill="#37474F"/>
<path d="M478.074 315.966C474.954 317.819 469.896 317.819 466.774 315.966C463.655 314.113 463.655 311.111 466.774 309.259C469.896 307.405 474.954 307.405 478.074 309.259C481.194 311.111 481.194 314.115 478.074 315.966Z" fill="#263238"/>
<path d="M430.969 348.556L532.118 288.356C534.127 287.163 534.333 285.31 532.75 283.976C534.693 285.494 536.186 288.36 536.186 290.771V294.703C536.186 297.371 534.364 300.615 532.118 301.949L430.969 362.15C429.846 362.817 428.373 363.15 426.902 363.15V349.557C428.373 349.557 429.846 349.223 430.969 348.556" fill="#455A64"/>
<path d="M246.876 257.652C244.63 256.32 242.809 253.075 242.809 250.408V246.474C242.809 244.063 244.303 241.194 246.248 239.678C244.66 241.012 244.866 242.867 246.876 244.06L422.835 348.556C423.958 349.223 425.431 349.558 426.902 349.558V363.15C425.431 363.15 423.958 362.816 422.835 362.149L246.876 257.652Z" fill="#263238"/>
<path d="M414.078 335.944L509.48 279.149C510.827 278.349 510.827 277.052 509.48 276.252L368.468 192.369C367.12 191.568 364.935 191.568 363.588 192.369L268.15 249.154C266.804 249.955 266.804 251.253 268.15 252.051L409.198 335.944C410.545 336.745 412.73 336.745 414.078 335.944Z" fill="#FAFAFA"/>
<path d="M282.893 251.718L328.515 278.827C330.207 279.833 332.953 279.833 334.647 278.827L414.801 231.234C416.494 230.228 416.494 228.598 414.801 227.593L369.18 200.481C367.486 199.476 364.74 199.476 363.048 200.481L282.893 248.077C281.199 249.082 281.199 250.713 282.893 251.718Z" fill="#EBEBEB"/>
<path d="M316.404 238.761L328.111 241.118C328.848 241.266 329.664 241.191 330.288 240.914L340.195 236.523C341.769 235.826 344.005 236.504 343.981 237.669L343.822 245.008C343.812 245.471 344.186 245.907 344.822 246.175L354.915 250.413C356.518 251.086 356.127 252.559 354.252 252.904L342.447 255.084C341.702 255.221 341.119 255.568 340.888 256.009L337.219 263.019C336.635 264.132 334.156 264.365 333.021 263.414L325.884 257.421C325.435 257.042 324.7 256.82 323.921 256.826L311.561 256.919C309.597 256.936 308.457 255.606 309.632 254.672L317.025 248.789C317.49 248.418 317.619 247.934 317.37 247.496L313.399 240.545C312.769 239.441 314.545 238.387 316.404 238.761Z" fill="#FAFAFA"/>
<path d="M342.441 223.412L367.525 208.517C368.542 207.914 370.012 207.81 370.809 208.284C371.608 208.759 371.432 209.633 370.416 210.236L345.331 225.13C344.316 225.735 342.845 225.838 342.047 225.363C341.249 224.889 341.426 224.015 342.441 223.412Z" fill="#FAFAFA"/>
<path d="M348.761 227.169L373.845 212.273C374.862 211.67 376.332 211.567 377.129 212.042C377.928 212.515 377.752 213.39 376.736 213.993L351.652 228.888C350.636 229.491 349.165 229.595 348.367 229.121C347.569 228.646 347.746 227.772 348.761 227.169Z" fill="#FAFAFA"/>
<path d="M355.081 230.925L380.165 216.03C381.182 215.427 382.652 215.323 383.449 215.798C384.248 216.273 384.073 217.147 383.056 217.75L357.973 232.644C356.956 233.247 355.485 233.352 354.688 232.877C353.889 232.402 354.066 231.528 355.081 230.925Z" fill="#FAFAFA"/>
<path d="M361.401 234.682L386.485 219.788C387.502 219.185 388.972 219.08 389.769 219.555C390.568 220.029 390.392 220.903 389.376 221.506L364.293 236.4C363.276 237.005 361.806 237.108 361.008 236.634C360.209 236.159 360.386 235.286 361.401 234.682Z" fill="#FAFAFA"/>
<path d="M367.721 238.439L392.805 223.543C393.822 222.94 395.292 222.837 396.089 223.312C396.89 223.785 396.713 224.66 395.696 225.263L370.613 240.158C369.596 240.761 368.126 240.866 367.328 240.391C366.529 239.916 366.706 239.042 367.721 238.439Z" fill="#FAFAFA"/>
<path d="M374.043 242.196L399.126 227.301C400.142 226.697 401.612 226.593 402.411 227.068C403.21 227.543 403.033 228.417 402.016 229.02L376.933 243.914C375.916 244.517 374.446 244.622 373.649 244.147C372.849 243.672 373.026 242.799 374.043 242.196Z" fill="#FAFAFA"/>
<path d="M339.173 285.158L341.252 286.393C342.269 286.996 343.916 286.994 344.931 286.391L393.019 257.832C394.036 257.228 394.036 256.25 393.019 255.646L390.943 254.414C389.926 253.811 388.279 253.811 387.264 254.414L339.172 282.973C338.156 283.577 338.156 284.555 339.173 285.158Z" fill="#E0E0E0"/>
<path d="M425.461 233.92L427.534 235.152C428.551 235.755 428.551 236.733 427.534 237.336L408.201 248.815C407.187 249.418 405.539 249.418 404.523 248.815L402.449 247.583C401.432 246.979 401.432 246.001 402.449 245.397L421.78 233.92C422.797 233.317 424.444 233.317 425.461 233.92Z" fill="#E0E0E0"/>
<path d="M351.967 292.719L397.589 319.827C399.281 320.832 402.029 320.832 403.721 319.827L483.875 272.233C485.568 271.228 485.568 269.597 483.875 268.592L438.255 241.482C436.56 240.475 433.815 240.475 432.122 241.482L351.967 289.078C350.274 290.083 350.274 291.714 351.967 292.719Z" fill="#EBEBEB"/>
<path d="M385.48 279.761L397.186 282.118C397.924 282.268 398.738 282.19 399.364 281.914L409.271 277.522C410.843 276.826 413.08 277.503 413.055 278.669L412.896 286.008C412.888 286.471 413.262 286.907 413.898 287.175L423.99 291.413C425.593 292.086 425.201 293.558 423.326 293.905L411.521 296.084C410.776 296.221 410.194 296.568 409.962 297.009L406.293 304.019C405.711 305.132 403.231 305.365 402.097 304.414L394.96 298.42C394.509 298.042 393.774 297.82 392.997 297.826L380.635 297.921C378.671 297.935 377.533 296.605 378.706 295.672L386.099 289.789C386.566 289.418 386.694 288.934 386.446 288.497L382.475 281.545C381.845 280.441 383.621 279.387 385.48 279.761Z" fill="#FAFAFA"/>
<path d="M411.517 264.412L436.599 249.517C437.616 248.914 439.087 248.81 439.885 249.284C440.683 249.759 440.506 250.633 439.49 251.236L414.407 266.132C413.39 266.735 411.92 266.838 411.122 266.363C410.323 265.889 410.5 265.016 411.517 264.412Z" fill="#FAFAFA"/>
<path d="M417.837 268.169L442.919 253.273C443.936 252.67 445.408 252.567 446.205 253.041C447.004 253.515 446.827 254.39 445.81 254.993L420.727 269.887C419.71 270.49 418.24 270.595 417.443 270.12C416.643 269.646 416.82 268.772 417.837 268.169Z" fill="#FAFAFA"/>
<path d="M424.157 271.925L449.241 257.031C450.256 256.426 451.728 256.323 452.525 256.798C453.324 257.273 453.147 258.147 452.13 258.75L427.047 273.644C426.03 274.247 424.56 274.352 423.763 273.877C422.963 273.402 423.14 272.528 424.157 271.925Z" fill="#FAFAFA"/>
<path d="M430.477 275.682L455.561 260.787C456.576 260.184 458.048 260.08 458.845 260.554C459.644 261.029 459.467 261.903 458.45 262.506L433.367 277.402C432.35 278.005 430.88 278.108 430.083 277.633C429.285 277.158 429.46 276.286 430.477 275.682Z" fill="#FAFAFA"/>
<path d="M436.797 279.439L461.881 264.543C462.896 263.94 464.368 263.837 465.165 264.312C465.964 264.785 465.787 265.66 464.771 266.263L439.687 281.157C438.671 281.76 437.201 281.865 436.403 281.391C435.605 280.916 435.78 280.042 436.797 279.439Z" fill="#FAFAFA"/>
<path d="M443.117 283.195L468.201 268.301C469.217 267.697 470.688 267.593 471.485 268.068C472.284 268.543 472.107 269.417 471.092 270.02L446.007 284.914C444.992 285.518 443.521 285.622 442.723 285.147C441.925 284.672 442.1 283.798 443.117 283.195Z" fill="#FAFAFA"/>
<path d="M408.247 326.158L410.328 327.392C411.343 327.995 412.991 327.995 414.005 327.392L462.093 298.831C463.11 298.228 463.11 297.249 462.093 296.646L460.017 295.413C459.002 294.81 457.355 294.81 456.338 295.413L408.247 323.973C407.23 324.576 407.23 325.554 408.247 326.158Z" fill="#E0E0E0"/>
<path d="M494.535 274.92L496.61 276.151C497.625 276.755 497.625 277.733 496.608 278.336L477.277 289.814C476.261 290.419 474.614 290.419 473.598 289.814L471.523 288.582C470.508 287.979 470.507 287 471.524 286.397L490.856 274.92C491.873 274.316 493.52 274.316 494.535 274.92Z" fill="#E0E0E0"/>
<path d="M306.003 213.632C305.315 214.041 304.199 214.041 303.511 213.632C302.821 213.224 302.821 212.56 303.511 212.152C304.199 211.742 305.315 211.742 306.003 212.152C306.691 212.56 306.691 213.224 306.003 213.632Z" fill="#263238"/>
<path d="M302.019 225.259C300.642 226.078 298.409 226.078 297.033 225.259C295.655 224.441 295.655 223.115 297.033 222.298C298.409 221.481 300.642 221.481 302.019 222.298C303.397 223.115 303.397 224.441 302.019 225.259Z" fill="#263238"/>
<path d="M305.535 220.107C304.616 219.561 304.665 218.65 305.644 218.068L322.047 208.328C323.024 207.747 324.562 207.718 325.48 208.263C326.398 208.809 326.349 209.721 325.371 210.302L308.968 220.041C307.989 220.623 306.451 220.653 305.535 220.107Z" fill="#263238"/>
<path d="M265.826 77.6168V81.0396L254.327 87.8706H254.313L237.064 98.1244L84.8152 188.53C83.9655 189.04 83.215 189.884 82.6485 190.875C82.082 191.865 81.7422 192.987 81.7422 193.992V402.126C81.7422 413.443 74.0101 418.031 64.4936 412.366C54.963 406.714 47.2308 392.95 47.2308 381.633V173.499C47.2308 172.494 47.5707 171.372 48.1372 170.382C48.7036 169.391 49.4542 168.532 50.3039 168.037L219.802 67.3776L236.186 57.6481C236.739 58.624 237.064 59.76 237.064 60.7796L237.079 63.9548L56.0392 171.678C55.2462 172.144 54.524 172.945 53.9858 173.863C53.3627 174.882 52.9804 176.077 52.9804 177.14V385.056C52.9804 392.601 58.1351 401.762 64.4936 405.535C70.8379 409.307 75.9926 406.248 75.9926 398.703V190.569C75.9926 189.564 76.3325 188.457 76.8848 187.466C77.4513 186.476 78.216 185.602 79.0657 185.107L264.977 74.7038C265.501 75.636 265.826 76.6846 265.826 77.6168Z" fill="#E0E0E0"/>
<path d="M248.563 67.5963V77.617L73.3014 181.699C72.4518 182.194 71.7012 183.053 71.1348 184.044C70.5697 185.034 70.2284 186.156 70.2284 187.161V395.295C70.2284 399.068 67.6652 400.597 64.4931 398.704C61.3067 396.825 58.7435 392.237 58.7435 388.464V180.33C58.7435 179.325 59.0834 178.203 59.6357 177.213C60.2163 176.222 60.9669 175.378 61.8024 174.868L247.699 64.4793C248.237 65.4552 248.563 66.5767 248.563 67.5963Z" fill="#E0E0E0"/>
<path d="M88.3835 194.297C87.8312 195.273 87.4913 196.395 87.4913 197.4V403.743C87.4913 405.33 87.3922 406.816 87.2081 408.229C87.1515 408.622 87.0948 409.001 87.0382 409.365C86.9674 409.715 86.9107 410.05 86.8399 410.399C86.7691 410.705 86.6983 411.011 86.6133 411.302C86.5425 411.593 86.4717 411.87 86.3867 412.147C85.1405 416.123 83.0022 419.036 80.2124 420.682C76.0914 423.114 70.5685 422.823 64.4932 419.211C51.7763 411.666 41.4809 392.499 41.4809 376.419V170.076C41.4809 169.071 41.8208 167.949 42.3731 166.973L48.1368 170.382C47.5703 171.372 47.2305 172.493 47.2305 173.498V381.633C47.2305 392.95 54.9626 406.714 64.4932 412.365C74.0097 418.031 81.7418 413.443 81.7418 402.126V193.991C81.7418 192.987 82.0817 191.865 82.6481 190.875L88.3835 194.297Z" fill="#EBEBEB"/>
<path d="M76.8843 187.466C76.332 188.457 75.9921 189.564 75.9921 190.569V398.703C75.9921 406.248 70.8374 409.307 64.4931 405.534C58.1346 401.762 52.9799 392.601 52.9799 385.056V177.14C52.9799 176.076 53.3636 174.882 53.9853 173.863L59.6357 177.213C59.0834 178.203 58.7435 179.325 58.7435 180.329V388.464C58.7435 392.237 61.3068 396.824 64.4931 398.703C67.6652 400.597 70.2285 399.068 70.2285 395.295V187.16C70.2285 186.155 70.5697 185.034 71.1348 184.044L76.8843 187.466Z" fill="#EBEBEB"/>
<path d="M236.186 57.6475L219.801 67.377L50.3036 168.038C49.4539 168.531 48.7034 169.391 48.1369 170.381L42.3732 166.973C42.9255 165.982 43.6902 165.125 44.5399 164.613C64.0543 153.034 171.61 89.1517 214.052 63.9557L217.323 62.0025L220.566 60.0799L223.413 58.3903L225.098 57.3854L228.228 55.5356C229.927 54.5306 232.589 54.4723 234.175 55.4191C234.968 55.8866 235.662 56.7008 236.186 57.6475Z" fill="#FAFAFA"/>
<path d="M276.447 81.5489V81.5635L260.063 91.2929L231.301 108.363L90.5648 191.937C89.7151 192.447 88.9504 193.307 88.3839 194.297L82.6485 190.874C83.215 189.884 83.9655 189.039 84.8152 188.529L237.065 98.1239L254.313 87.8701H254.327L265.826 81.0391L268.503 79.4515L268.715 79.3204C270.4 78.432 272.865 78.4174 274.38 79.2913C274.408 79.3059 274.422 79.3059 274.436 79.3204C274.536 79.3787 274.635 79.437 274.734 79.5098C275.399 79.9904 275.994 80.7187 276.447 81.5489Z" fill="#FAFAFA"/>
<path d="M247.699 64.4791L61.8026 174.868C60.967 175.377 60.2165 176.222 59.6359 177.213L53.9855 173.863C54.5236 172.945 55.2458 172.144 56.0389 171.678L237.078 63.9548L239.741 62.3672C241.44 61.3622 244.102 61.3039 245.688 62.2507C246.467 62.7167 247.175 63.5324 247.699 64.4791Z" fill="#FAFAFA"/>
<path d="M264.977 74.7038L79.0656 185.107C78.2159 185.602 77.4511 186.476 76.8847 187.466L71.1352 184.044C71.7016 183.053 72.4522 182.194 73.3019 181.699L248.563 77.6168L257.004 72.6064C258.703 71.6014 261.351 71.5577 262.951 72.5045C263.744 72.9705 264.467 73.7716 264.977 74.7038Z" fill="#FAFAFA"/>
<path d="M277.326 84.6803V291.023C277.326 299.486 274.479 305.414 269.919 308.035L79.941 420.837C82.9418 419.046 85.4668 415.919 86.6139 411.302C86.6988 411.01 86.7682 410.705 86.8405 410.399C86.9113 410.049 86.9679 409.714 87.0387 409.365C87.0954 409 87.1506 408.622 87.2086 408.228C87.3927 406.816 87.4919 405.33 87.4919 403.742V197.399C87.4919 196.394 87.8303 195.273 88.384 194.297C88.9491 193.306 89.7152 192.447 90.5649 191.937L231.301 108.363L260.063 91.2928L276.448 81.5633C277 82.5392 277.326 83.6607 277.326 84.6803Z" fill="#F5F5F5"/>
<path d="M107.82 195.36L136.202 178.507C137.896 177.5 139.268 178.316 139.268 180.327V220.863C139.27 222.875 137.896 225.319 136.202 226.325L107.82 243.178C106.126 244.183 104.754 243.369 104.754 241.358V200.822C104.754 198.81 106.126 196.365 107.82 195.36Z" fill="#455A64"/>
<path d="M104.754 258.662L260.068 166.435L260.069 173.267L104.754 265.493V258.662Z" fill="#0084CF"/>
<g opacity="0.399994">
<g opacity="0.399994">
<path opacity="0.399994" d="M104.754 258.662L260.068 166.435L260.069 173.267L104.754 265.493V258.662Z" fill="white"/>
</g>
</g>
<path d="M106.594 278.065L137.429 259.755C138.446 259.152 139.269 259.64 139.269 260.848V324.794C139.269 326 138.446 327.468 137.429 328.071L106.594 346.381C105.579 346.984 104.755 346.496 104.755 345.288V281.342C104.755 280.135 105.579 278.668 106.594 278.065Z" fill="#F0F0F0"/>
<path d="M106.594 353.214L137.429 334.904C138.446 334.301 139.269 334.789 139.269 335.996V386.036L104.755 406.53V356.491C104.755 355.283 105.579 353.817 106.594 353.214Z" fill="#F0F0F0"/>
<path d="M146.861 254.154L177.697 235.845C178.712 235.24 179.536 235.729 179.536 236.937V321.379C179.536 322.585 178.712 324.053 177.697 324.656L146.861 342.966C145.846 343.569 145.022 343.081 145.022 341.874V257.431C145.022 256.224 145.845 254.757 146.861 254.154Z" fill="#F0F0F0"/>
<path d="M187.129 230.243L217.964 211.933C218.981 211.33 219.804 211.818 219.804 213.025V276.973C219.804 278.179 218.981 279.646 217.964 280.25L187.129 298.56C186.114 299.163 185.289 298.674 185.289 297.468V233.52C185.289 232.312 186.114 230.846 187.129 230.243Z" fill="#F0F0F0"/>
<path d="M227.396 206.332L258.231 188.022C259.247 187.418 260.071 187.907 260.071 189.115V273.558C260.071 274.764 259.247 276.233 258.231 276.836L227.396 295.145C226.381 295.748 225.557 295.26 225.557 294.053V209.609C225.557 208.402 226.379 206.935 227.396 206.332Z" fill="#F0F0F0"/>
<path d="M146.861 349.798L177.697 331.488C178.713 330.885 179.536 331.375 179.536 332.58V362.124L145.022 382.62V353.075C145.022 351.868 145.846 350.402 146.861 349.798Z" fill="#F0F0F0"/>
<path d="M185.289 308.669V358.709L219.803 338.214V288.175C219.803 286.969 218.98 286.479 217.963 287.082L187.128 305.392C186.113 305.997 185.289 307.463 185.289 308.669Z" fill="#F0F0F0"/>
<path d="M227.395 301.976L258.23 283.667C259.247 283.064 260.069 283.553 260.069 284.759V314.303L225.555 334.799V305.253C225.555 304.047 226.379 302.581 227.395 301.976Z" fill="#F0F0F0"/>
<path d="M152.614 353.234L171.944 341.755C172.96 341.15 173.784 341.64 173.784 342.847V358.972C173.784 360.18 172.96 361.646 171.944 362.249L152.613 373.728C151.597 374.331 150.773 373.842 150.773 372.636L150.774 356.511C150.774 355.303 151.599 353.837 152.614 353.234" fill="#E0E0E0"/>
<path d="M233.149 305.413L252.479 293.935C253.496 293.33 254.319 293.82 254.319 295.026V311.152C254.319 312.36 253.496 313.826 252.479 314.429L233.149 325.908C232.132 326.511 231.308 326.022 231.308 324.816L231.309 308.691C231.309 307.483 232.133 306.016 233.149 305.413" fill="#E0E0E0"/>
<path d="M112.347 281.481L131.678 270.003C132.693 269.398 133.517 269.888 133.517 271.095V287.22C133.517 288.428 132.693 289.894 131.678 290.497L112.346 301.976C111.331 302.579 110.506 302.09 110.506 300.884L110.508 284.759C110.508 283.551 111.332 282.084 112.347 281.481" fill="#E0E0E0"/>
<path d="M111.733 305.759L132.291 293.552C132.968 293.15 133.516 293.476 133.516 294.28V294.783C133.516 295.588 132.968 296.566 132.291 296.968L111.733 309.175C111.056 309.577 110.507 309.25 110.507 308.446V307.944C110.507 307.14 111.055 306.161 111.733 305.759Z" fill="#E0E0E0"/>
<path d="M111.733 312.59L132.291 300.383C132.968 299.981 133.516 300.307 133.516 301.111V301.615C133.516 302.419 132.968 303.397 132.291 303.8L111.733 316.006C111.056 316.409 110.507 316.081 110.507 315.277V314.775C110.507 313.971 111.055 312.992 111.733 312.59Z" fill="#E0E0E0"/>
<path d="M111.733 319.421L132.291 307.214C132.968 306.812 133.516 307.138 133.516 307.942V308.446C133.516 309.25 132.968 310.227 132.291 310.631L111.733 322.836C111.056 323.24 110.507 322.912 110.507 322.108V321.606C110.507 320.802 111.055 319.823 111.733 319.421Z" fill="#E0E0E0"/>
<path d="M111.733 326.252L132.291 314.045C132.968 313.643 133.516 313.969 133.516 314.773V315.277C133.516 316.081 132.968 317.06 132.291 317.462L111.733 329.669C111.056 330.071 110.507 329.745 110.507 328.941V328.437C110.507 327.633 111.055 326.654 111.733 326.252Z" fill="#E0E0E0"/>
<path d="M111.733 333.084L132.291 320.877C132.968 320.475 133.516 320.799 133.516 321.605V322.107C133.516 322.913 132.968 323.89 132.291 324.292L111.733 336.499C111.056 336.901 110.507 336.575 110.507 335.771V335.268C110.507 334.464 111.055 333.486 111.733 333.084Z" fill="#E0E0E0"/>
<path d="M152.614 257.569L171.944 246.091C172.96 245.488 173.784 245.975 173.784 247.183V263.308C173.784 264.515 172.96 265.982 171.944 266.585L152.613 278.064C151.597 278.668 150.773 278.179 150.773 276.971L150.774 260.846C150.774 259.639 151.597 258.172 152.614 257.569" fill="#E0E0E0"/>
<path d="M151.999 281.847L172.557 269.64C173.234 269.238 173.784 269.564 173.784 270.368V270.872C173.784 271.676 173.234 272.654 172.557 273.057L151.999 285.263C151.322 285.666 150.773 285.338 150.773 284.534V284.032C150.773 283.228 151.322 282.249 151.999 281.847Z" fill="#E0E0E0"/>
<path d="M151.999 288.679L172.557 276.472C173.234 276.07 173.784 276.394 173.784 277.2V277.702C173.784 278.508 173.234 279.485 172.557 279.887L151.999 292.094C151.322 292.496 150.773 292.17 150.773 291.366V290.863C150.773 290.059 151.322 289.081 151.999 288.679Z" fill="#E0E0E0"/>
<path d="M151.999 295.509L172.557 283.302C173.234 282.9 173.784 283.227 173.784 284.031V284.533C173.784 285.339 173.234 286.316 172.557 286.718L151.999 298.925C151.322 299.327 150.773 299.001 150.773 298.197V297.694C150.773 296.89 151.322 295.911 151.999 295.509Z" fill="#E0E0E0"/>
<path d="M151.999 302.34L172.557 290.134C173.234 289.732 173.784 290.058 173.784 290.862V291.366C173.784 292.17 173.234 293.147 172.557 293.55L151.999 305.756C151.322 306.159 150.773 305.832 150.773 305.028V304.525C150.773 303.721 151.322 302.742 151.999 302.34Z" fill="#E0E0E0"/>
<path d="M151.999 309.171L172.557 296.964C173.234 296.562 173.784 296.889 173.784 297.693V298.197C173.784 299.001 173.234 299.978 172.557 300.381L151.999 312.587C151.322 312.99 150.773 312.663 150.773 311.859V311.356C150.773 310.552 151.322 309.573 151.999 309.171Z" fill="#E0E0E0"/>
<path d="M151.999 316.006L172.557 303.799C173.234 303.397 173.784 303.722 173.784 304.527V305.03C173.784 305.835 173.234 306.812 172.557 307.214L151.999 319.421C151.322 319.823 150.773 319.497 150.773 318.693V318.191C150.773 317.385 151.322 316.408 151.999 316.006Z" fill="#E0E0E0"/>
<path d="M151.999 322.837L172.557 310.63C173.234 310.228 173.784 310.554 173.784 311.358V311.861C173.784 312.666 173.234 313.643 172.557 314.045L151.999 326.252C151.322 326.656 150.773 326.328 150.773 325.524V325.021C150.773 324.218 151.322 323.239 151.999 322.837Z" fill="#E0E0E0"/>
<path d="M151.999 329.668L172.557 317.461C173.234 317.059 173.784 317.385 173.784 318.189V318.693C173.784 319.497 173.234 320.474 172.557 320.878L151.999 333.083C151.322 333.487 150.773 333.159 150.773 332.355V331.853C150.773 331.049 151.322 330.07 151.999 329.668Z" fill="#E0E0E0"/>
<path d="M112.347 356.638L131.678 345.159C132.693 344.555 133.517 345.044 133.517 346.252V362.377C133.517 363.584 132.693 365.051 131.678 365.654L112.346 377.133C111.331 377.736 110.506 377.246 110.506 376.04L110.508 359.915C110.508 358.708 111.332 357.241 112.347 356.638" fill="#E0E0E0"/>
<path d="M111.733 380.916L132.291 368.709C132.968 368.307 133.516 368.633 133.516 369.437V369.939C133.516 370.745 132.968 371.722 132.291 372.124L111.733 384.331C111.056 384.735 110.507 384.407 110.507 383.603V383.1C110.507 382.296 111.055 381.318 111.733 380.916Z" fill="#E0E0E0"/>
<path d="M111.733 387.747L132.291 375.54C132.968 375.138 133.516 375.464 133.516 376.268V376.772C133.516 377.576 132.968 378.553 132.291 378.957L111.733 391.162C111.056 391.566 110.507 391.238 110.507 390.434V389.931C110.507 389.127 111.055 388.149 111.733 387.747Z" fill="#E0E0E0"/>
<path d="M111.733 394.578L132.291 382.371C132.968 381.969 133.516 382.295 133.516 383.099V383.603C133.516 384.407 132.968 385.384 132.291 385.788L111.733 397.994C111.056 398.396 110.507 398.07 110.507 397.266V396.762C110.507 395.958 111.055 394.98 111.733 394.578Z" fill="#E0E0E0"/>
<path d="M192.882 233.661L212.212 222.182C213.229 221.579 214.052 222.068 214.052 223.274V239.401C214.052 240.607 213.229 242.073 212.212 242.678L192.882 254.157C191.865 254.76 191.041 254.27 191.041 253.064L191.042 236.938C191.042 235.732 191.867 234.265 192.882 233.661" fill="#E0E0E0"/>
<path d="M192.268 257.939L212.826 245.732C213.503 245.33 214.052 245.656 214.052 246.46V246.963C214.052 247.768 213.503 248.746 212.826 249.148L192.268 261.355C191.591 261.757 191.042 261.43 191.042 260.626V260.124C191.042 259.32 191.59 258.341 192.268 257.939Z" fill="#E0E0E0"/>
<path d="M192.268 264.77L212.826 252.563C213.503 252.161 214.052 252.487 214.052 253.291V253.795C214.052 254.599 213.503 255.576 212.826 255.978L192.268 268.185C191.591 268.589 191.042 268.261 191.042 267.457V266.955C191.042 266.151 191.59 265.172 192.268 264.77Z" fill="#E0E0E0"/>
<path d="M192.268 271.601L212.826 259.394C213.503 258.992 214.052 259.318 214.052 260.122V260.626C214.052 261.43 213.503 262.407 212.826 262.811L192.268 275.016C191.591 275.42 191.042 275.094 191.042 274.288V273.786C191.042 272.982 191.59 272.003 192.268 271.601Z" fill="#E0E0E0"/>
<path d="M192.268 278.433L212.826 266.226C213.503 265.824 214.052 266.148 214.052 266.954V267.456C214.052 268.262 213.503 269.239 212.826 269.641L192.268 281.848C191.591 282.25 191.042 281.924 191.042 281.12V280.617C191.042 279.812 191.59 278.835 192.268 278.433Z" fill="#E0E0E0"/>
<path d="M192.268 285.264L212.826 273.057C213.503 272.655 214.052 272.979 214.052 273.785V274.287C214.052 275.093 213.503 276.07 212.826 276.472L192.268 288.679C191.591 289.082 191.042 288.755 191.042 287.951V287.448C191.042 286.644 191.59 285.666 192.268 285.264Z" fill="#E0E0E0"/>
<path d="M233.149 209.749L252.479 198.271C253.494 197.668 254.319 198.155 254.319 199.363V215.488C254.319 216.695 253.494 218.162 252.479 218.765L233.149 230.244C232.132 230.848 231.308 230.359 231.308 229.151L231.309 213.026C231.309 211.82 232.133 210.352 233.149 209.749" fill="#E0E0E0"/>
<path d="M232.535 234.027L253.093 221.82C253.77 221.418 254.319 221.744 254.319 222.548V223.052C254.319 223.856 253.77 224.833 253.093 225.237L232.535 237.442C231.858 237.846 231.308 237.518 231.308 236.714V236.212C231.308 235.408 231.856 234.429 232.535 234.027Z" fill="#E0E0E0"/>
<path d="M232.535 240.858L253.093 228.651C253.77 228.249 254.319 228.575 254.319 229.379V229.883C254.319 230.687 253.77 231.666 253.093 232.068L232.535 244.275C231.858 244.677 231.308 244.351 231.308 243.547V243.043C231.308 242.239 231.856 241.26 232.535 240.858Z" fill="#E0E0E0"/>
<path d="M232.535 247.689L253.093 235.483C253.77 235.081 254.319 235.407 254.319 236.211V236.713C254.319 237.519 253.77 238.496 253.093 238.898L232.535 251.105C231.858 251.507 231.308 251.181 231.308 250.377V249.874C231.308 249.07 231.856 248.091 232.535 247.689Z" fill="#E0E0E0"/>
<path d="M232.535 254.52L253.093 242.313C253.77 241.911 254.319 242.238 254.319 243.042V243.546C254.319 244.35 253.77 245.327 253.093 245.73L232.535 257.936C231.858 258.339 231.308 258.012 231.308 257.208V256.705C231.308 255.901 231.856 254.922 232.535 254.52Z" fill="#E0E0E0"/>
<path d="M232.535 261.351L253.093 249.144C253.77 248.742 254.319 249.069 254.319 249.873V250.377C254.319 251.181 253.77 252.158 253.093 252.561L232.535 264.767C231.858 265.17 231.308 264.844 231.308 264.039V263.536C231.308 262.732 231.856 261.753 232.535 261.351Z" fill="#E0E0E0"/>
<path d="M232.535 268.186L253.093 255.979C253.77 255.577 254.319 255.902 254.319 256.707V257.21C254.319 258.015 253.77 258.992 253.093 259.394L232.535 271.601C231.858 272.003 231.308 271.677 231.308 270.873V270.371C231.308 269.567 231.856 268.588 232.535 268.186Z" fill="#E0E0E0"/>
<path d="M232.535 275.017L253.093 262.81C253.77 262.408 254.319 262.734 254.319 263.538V264.041C254.319 264.846 253.77 265.823 253.093 266.225L232.535 278.432C231.858 278.836 231.308 278.508 231.308 277.704V277.201C231.308 276.397 231.856 275.419 232.535 275.017Z" fill="#E0E0E0"/>
<path d="M232.535 281.848L253.093 269.641C253.77 269.239 254.319 269.565 254.319 270.369V270.873C254.319 271.677 253.77 272.654 253.093 273.058L232.535 285.263C231.858 285.667 231.308 285.339 231.308 284.535V284.032C231.308 283.228 231.856 282.25 232.535 281.848Z" fill="#E0E0E0"/>
<path d="M192.882 308.818L212.212 297.339C213.229 296.735 214.052 297.224 214.052 298.432V314.557C214.052 315.764 213.229 317.231 212.212 317.834L192.882 329.312C191.865 329.915 191.041 329.427 191.041 328.22L191.042 312.095C191.042 310.888 191.867 309.421 192.882 308.818" fill="#E0E0E0"/>
<path d="M192.268 333.096L212.826 320.889C213.503 320.487 214.052 320.813 214.052 321.617V322.121C214.052 322.925 213.503 323.902 212.826 324.306L192.268 336.511C191.591 336.915 191.042 336.587 191.042 335.783V335.28C191.042 334.476 191.59 333.498 192.268 333.096Z" fill="#E0E0E0"/>
<path d="M192.268 339.926L212.826 327.72C213.503 327.318 214.052 327.644 214.052 328.448V328.952C214.052 329.756 213.503 330.733 212.826 331.136L192.268 343.342C191.591 343.745 191.042 343.418 191.042 342.614V342.111C191.042 341.307 191.59 340.328 192.268 339.926Z" fill="#E0E0E0"/>
<path d="M192.268 346.758L212.826 334.551C213.503 334.149 214.052 334.475 214.052 335.279V335.783C214.052 336.587 213.503 337.566 212.826 337.968L192.268 350.175C191.591 350.577 191.042 350.25 191.042 349.446V348.942C191.042 348.138 191.59 347.16 192.268 346.758Z" fill="#E0E0E0"/>
<path d="M151.666 213.441C151.383 213.339 151.241 213.065 151.241 212.617C151.241 212.258 151.326 211.824 151.496 211.319L153.027 206.301C153.255 205.627 153.467 205.231 153.665 205.113C153.835 205.012 154.062 205.035 154.347 205.18C155.821 205.879 157.437 205.704 159.195 204.66C160.528 203.867 161.5 202.763 162.11 201.345C162.719 199.929 163.025 198.14 163.025 195.985V166.547C163.025 165.56 163.173 164.731 163.471 164.06C163.768 163.388 164.272 162.843 164.98 162.422L168.128 160.552C168.838 160.131 169.341 160.079 169.64 160.395C169.937 160.714 170.086 161.366 170.086 162.354V191.791C170.086 196.193 169.256 200.19 167.597 203.778C165.938 207.369 163.506 210.114 160.301 212.016C156.898 214.038 154.019 214.513 151.666 213.441Z" fill="#455A64"/>
<path d="M194.057 179.95C195.376 176.495 196.036 172.14 196.036 166.885C196.036 161.631 195.376 158.06 194.057 156.171C192.738 154.282 190.789 154.103 188.209 155.636C185.599 157.185 183.635 159.688 182.316 163.142C180.998 166.598 180.338 170.952 180.338 176.207C180.338 181.46 180.998 185.033 182.316 186.921C183.635 188.811 185.599 188.98 188.209 187.432C190.789 185.898 192.738 183.405 194.057 179.95ZM177.169 195.737C174.631 193.069 173.362 187.939 173.362 180.349C173.362 172.759 174.631 166.123 177.169 160.439C179.706 154.755 183.387 150.482 188.209 147.62C193.001 144.774 196.666 144.683 199.205 147.355C201.743 150.023 203.012 155.153 203.012 162.743C203.012 170.331 201.743 176.968 199.205 182.652C196.666 188.336 193.001 192.601 188.209 195.446C183.387 198.309 179.706 198.407 177.169 195.737" fill="#455A64"/>
<path d="M220.369 167.188C221.616 166.448 222.545 165.369 223.154 163.951C223.765 162.535 224.069 160.971 224.069 159.265C224.069 157.334 223.714 156.097 223.006 155.551C222.296 155.008 221.305 155.114 220.028 155.871L213.519 159.737V171.256L220.369 167.188ZM219.688 148.462C220.822 147.788 221.701 146.818 222.324 145.549C222.949 144.279 223.261 142.793 223.261 141.085C223.261 139.244 222.97 138.103 222.39 137.664C221.808 137.222 220.907 137.364 219.688 138.087L213.519 141.751V152.124L219.688 148.462ZM206.947 182.601C206.649 182.307 206.501 181.665 206.501 180.679V140.731C206.501 139.743 206.649 138.915 206.947 138.243C207.244 137.572 207.734 137.036 208.415 136.632L220.879 129.229C223.998 127.378 226.338 127.121 227.898 128.463C229.458 129.806 230.238 132.474 230.238 136.471C230.238 138.581 229.919 140.657 229.281 142.699C228.643 144.738 227.771 146.446 226.664 147.821C229.585 147.614 231.047 150.137 231.047 155.391C231.047 157.951 230.67 160.488 229.919 162.998C229.167 165.512 228.033 167.815 226.516 169.903C224.998 171.996 223.119 173.706 220.879 175.036L208.415 182.438C207.734 182.841 207.244 182.895 206.947 182.601" fill="#455A64"/>
<path d="M237.364 165.146C235.335 165.609 233.698 165.539 232.45 164.933C232.024 164.691 231.813 164.368 231.813 163.963C231.813 163.694 231.882 163.34 232.024 162.894L233.768 157.479C233.94 156.93 234.124 156.596 234.322 156.478C234.492 156.376 234.706 156.383 234.959 156.503C236.009 156.823 237.215 156.87 238.575 156.646C239.937 156.423 241.312 155.897 242.703 155.073C244.347 154.095 245.566 152.956 246.362 151.651C247.155 150.352 247.552 148.801 247.552 147.005C247.552 145.792 247.36 144.918 246.978 144.382C246.594 143.847 246.026 143.509 245.276 143.371C244.525 143.234 243.368 143.155 241.809 143.139C239.994 143.139 238.456 142.954 237.194 142.579C235.931 142.207 234.897 141.373 234.088 140.079C233.28 138.785 232.876 136.858 232.876 134.298C232.876 130.032 233.853 126.184 235.81 122.754C237.768 119.326 240.348 116.657 243.554 114.754C247.778 112.246 251.011 111.583 253.253 112.767C253.678 113.052 253.89 113.377 253.89 113.736C253.89 114.006 253.819 114.362 253.678 114.805L251.935 120.218C251.763 120.77 251.579 121.104 251.381 121.221C251.211 121.322 250.997 121.314 250.742 121.196C249.013 120.428 246.914 120.775 244.446 122.24C241.383 124.059 239.852 126.719 239.852 130.222C239.852 131.39 240.029 132.24 240.385 132.769C240.739 133.302 241.227 133.639 241.852 133.786C242.475 133.93 243.453 134.013 244.787 134.029L245.978 134.063C248.047 134.137 249.679 134.392 250.871 134.83C252.061 135.266 252.975 136.126 253.614 137.41C254.251 138.693 254.571 140.636 254.571 143.241C254.571 147.148 253.642 150.811 251.784 154.225C249.928 157.642 247.24 160.392 243.724 162.48C241.512 163.794 239.39 164.684 237.364 165.146Z" fill="#455A64"/>
<path d="M414.318 24.9813L414.321 24.9799L414.302 24.9682C414.302 24.9682 414.3 24.9668 414.299 24.9653L408.553 21.544V21.5454C407.886 21.1463 406.966 21.1988 405.952 21.8003L332.776 65.3615C330.752 66.5617 329.097 69.5111 329.097 71.9158V227.034C329.097 228.231 329.509 229.076 330.171 229.472V229.473L330.177 229.478L335.91 232.886C335.924 232.895 335.938 232.903 335.954 232.912L336.029 232.957V232.941C336.687 233.279 337.562 233.216 338.527 232.643L357.861 221.164V233.11C357.861 235.225 358.186 236.453 358.718 236.786L358.715 236.794L364.421 240.186C364.426 240.19 364.432 240.193 364.438 240.196L364.503 240.235V240.228C365.154 240.586 366.103 239.651 367.158 237.353L380.868 207.5L411.703 189.081C413.727 187.881 415.382 184.932 415.382 182.527V27.4108C415.382 26.2208 414.974 25.3819 414.318 24.9813Z" fill="#0084CF"/>
<g opacity="0.399994">
<g opacity="0.399994">
<path opacity="0.399994" d="M414.17 24.889C413.519 24.5831 412.655 24.6705 411.706 25.224L338.52 68.7881C337.529 69.3707 336.637 70.3756 335.971 71.5408L330.222 68.1181C330.887 66.9529 331.779 65.9479 332.772 65.3653L405.957 21.8012C406.537 21.4516 407.104 21.2914 407.585 21.2914C407.954 21.2914 408.265 21.3788 408.548 21.539L414.17 24.889Z" fill="white"/>
</g>
</g>
<g opacity="0.199997">
<g opacity="0.199997">
<path opacity="0.199997" d="M358.714 236.796V236.781C358.19 236.446 357.865 235.223 357.865 233.111V221.167L363.614 217.744V236.533C363.614 238.543 363.912 239.767 364.393 240.175L358.714 236.796Z" fill="black"/>
</g>
</g>
<g opacity="0.100006">
<g opacity="0.100006">
<path opacity="0.100006" d="M335.958 232.907C335.942 232.907 335.928 232.892 335.915 232.892L330.18 229.484L330.164 229.469C329.513 229.076 329.102 228.231 329.102 227.037V71.9193C329.102 70.6958 329.527 69.3267 330.221 68.1178L335.972 71.5406C335.278 72.7495 334.853 74.1186 334.853 75.342V230.46C334.853 231.669 335.278 232.514 335.958 232.907Z" fill="black"/>
</g>
</g>
<path d="M349.417 75.9768L400.813 45.361C402.504 44.3531 403.876 45.1673 403.876 47.1773V80.8736C403.876 82.885 402.504 85.3319 400.813 86.3398L349.418 116.957C347.726 117.965 346.354 117.152 346.354 115.141V81.4431C346.354 79.4331 347.726 76.9847 349.417 75.9768" fill="#455A64"/>
<path d="M403.876 94.7791C403.876 96.6653 402.502 99.0103 400.81 100.015L349.421 130.532C347.727 131.537 346.355 130.823 346.355 128.936C346.355 127.049 347.727 124.704 349.421 123.698L400.81 93.1842C402.502 92.1778 403.876 92.8929 403.876 94.7791Z" fill="#455A64"/>
<path d="M403.876 108.441C403.876 110.327 402.502 112.672 400.81 113.677L349.421 144.194C347.727 145.199 346.355 144.485 346.355 142.598C346.355 140.711 347.727 138.366 349.421 137.361L400.81 106.846C402.502 105.84 403.876 106.555 403.876 108.441Z" fill="#455A64"/>
<path d="M403.876 122.103C403.876 123.989 402.502 126.334 400.81 127.34L349.421 157.856C347.727 158.862 346.355 158.147 346.355 156.261C346.355 154.373 347.727 152.028 349.421 151.023L400.81 120.508C402.502 119.503 403.876 120.217 403.876 122.103Z" fill="#455A64"/>
<path d="M403.876 135.765C403.876 137.652 402.502 139.997 400.81 141.002L349.421 171.518C347.727 172.523 346.355 171.81 346.355 169.923C346.355 168.036 347.727 165.691 349.421 164.686L400.81 134.171C402.502 133.164 403.876 133.879 403.876 135.765Z" fill="#455A64"/>
<path d="M346.353 183.59C346.353 185.476 347.726 186.191 349.419 185.185L354.792 181.995C356.485 180.988 357.858 178.643 357.858 176.759C357.858 174.871 356.486 174.157 354.792 175.162L349.419 178.354C347.726 179.359 346.353 181.703 346.353 183.59Z" fill="#455A64"/>
<path d="M365.651 172.157C365.651 174.044 367.025 174.759 368.718 173.752L400.81 154.669C402.502 153.663 403.876 151.318 403.876 149.43C403.876 147.544 402.502 146.829 400.81 147.835L368.716 166.921C367.023 167.928 365.651 170.271 365.651 172.157Z" fill="#455A64"/>
<path d="M346.353 197.253C346.353 199.139 347.726 199.854 349.419 198.848L354.792 195.657C356.485 194.652 357.858 192.307 357.858 190.421C357.858 188.534 356.486 187.821 354.792 188.826L349.419 192.017C347.726 193.022 346.353 195.367 346.353 197.253Z" fill="#455A64"/>
<path d="M365.651 185.821C365.651 187.707 367.025 188.421 368.718 187.416L400.81 168.332C402.502 167.326 403.876 164.981 403.876 163.093C403.876 161.207 402.502 160.492 400.81 161.499L368.716 180.585C367.023 181.591 365.651 183.935 365.651 185.821Z" fill="#455A64"/>
<path d="M346.353 210.916C346.353 212.802 347.726 213.516 349.419 212.511L354.792 209.32C356.485 208.315 357.858 205.97 357.858 204.084C357.858 202.198 356.486 201.482 354.792 202.489L349.419 205.68C347.726 206.685 346.353 209.03 346.353 210.916Z" fill="#455A64"/>
<path d="M365.651 199.484C365.651 201.37 367.025 202.084 368.718 201.079L400.81 181.996C402.502 180.989 403.876 178.644 403.876 176.757C403.876 174.87 402.502 174.155 400.81 175.16L368.716 194.248C367.023 195.254 365.651 197.598 365.651 199.484Z" fill="#455A64"/>
<path d="M483.379 65.8801L483.382 65.8787L483.363 65.867L483.359 65.8641L477.614 62.4428V62.4442C476.947 62.0452 476.026 62.0976 475.012 62.6991L401.836 106.26C399.812 107.46 398.157 110.41 398.157 112.815V267.932C398.157 269.13 398.569 269.973 399.232 270.372L399.237 270.376L404.97 273.785C404.984 273.793 404.998 273.802 405.014 273.811L405.089 273.856V273.84C405.747 274.178 406.623 274.115 407.587 273.541L426.922 262.063V274.009C426.922 276.124 427.246 277.352 427.78 277.685L427.775 277.692L433.481 281.085C433.487 281.089 433.492 281.092 433.498 281.096L433.563 281.134V281.127C434.215 281.485 435.164 280.55 436.219 278.252L449.928 248.399L480.763 229.98C482.787 228.78 484.442 225.831 484.442 223.426V68.3096C484.442 67.1196 484.035 66.2807 483.379 65.8801Z" fill="#0084CF"/>
<g opacity="0.399994">
<g opacity="0.399994">
<path opacity="0.399994" d="M483.231 65.7876C482.579 65.4818 481.716 65.5692 480.767 66.1226L444.174 87.9047L407.581 109.687C406.589 110.269 405.697 111.274 405.032 112.44L399.282 109.017C399.948 107.852 400.84 106.847 401.833 106.264L475.017 62.6998C475.598 62.3503 476.164 62.1901 476.646 62.1901C477.014 62.1901 477.326 62.2775 477.609 62.4377L483.231 65.7876Z" fill="white"/>
</g>
</g>
<g opacity="0.199997">
<g opacity="0.199997">
<path opacity="0.199997" d="M427.775 277.694V277.68C427.251 277.345 426.925 276.121 426.925 274.009V262.066L432.675 258.643V277.432C432.675 279.442 432.972 280.666 433.453 281.073L427.775 277.694Z" fill="black"/>
</g>
</g>
<g opacity="0.100006">
<g opacity="0.100006">
<path opacity="0.100006" d="M405.018 273.806C405.003 273.806 404.988 273.791 404.976 273.791L399.24 270.383L399.225 270.368C398.573 269.975 398.163 269.13 398.163 267.936V112.818C398.163 111.595 398.589 110.226 399.281 109.017L405.032 112.439C404.338 113.648 403.913 115.017 403.913 116.241V271.359C403.913 272.568 404.338 273.412 405.018 273.806Z" fill="black"/>
</g>
</g>
<path d="M418.477 116.876L469.873 86.2598C471.564 85.2519 472.936 86.0646 472.936 88.0761V121.772C472.936 123.784 471.564 126.231 469.873 127.24L418.479 157.856C416.786 158.864 415.415 158.051 415.415 156.04L415.414 122.342C415.414 120.332 416.786 117.883 418.477 116.876Z" fill="#455A64"/>
<path d="M472.936 135.677C472.936 137.563 471.563 139.908 469.87 140.915L418.481 171.43C416.788 172.437 415.415 171.721 415.415 169.835C415.415 167.948 416.788 165.603 418.481 164.598L469.87 134.082C471.563 133.077 472.936 133.791 472.936 135.677Z" fill="#455A64"/>
<path d="M472.936 149.34C472.936 151.226 471.563 153.571 469.87 154.576L418.481 185.093C416.788 186.098 415.415 185.384 415.415 183.498C415.415 181.61 416.788 179.265 418.481 178.26L469.87 147.745C471.563 146.739 472.936 147.454 472.936 149.34Z" fill="#455A64"/>
<path d="M472.936 163.002C472.936 164.888 471.563 167.233 469.87 168.238L418.481 198.755C416.788 199.761 415.415 199.046 415.415 197.16C415.415 195.272 416.788 192.927 418.481 191.922L469.87 161.407C471.563 160.402 472.936 161.115 472.936 163.002Z" fill="#455A64"/>
<path d="M472.936 176.664C472.936 178.55 471.563 180.895 469.87 181.9L418.481 212.417C416.788 213.422 415.415 212.708 415.415 210.822C415.415 208.935 416.788 206.59 418.481 205.585L469.87 175.069C471.563 174.063 472.936 174.778 472.936 176.664Z" fill="#455A64"/>
<path d="M415.414 224.489C415.414 226.375 416.786 227.09 418.48 226.083L423.853 222.894C425.545 221.887 426.919 219.542 426.919 217.658C426.92 215.77 425.546 215.056 423.854 216.061L418.48 219.252C416.786 220.257 415.414 222.602 415.414 224.489Z" fill="#455A64"/>
<path d="M434.711 213.056C434.713 214.942 436.085 215.658 437.779 214.651L469.87 195.568C471.562 194.562 472.936 192.217 472.936 190.329C472.936 188.443 471.562 187.728 469.87 188.734L437.777 207.82C436.084 208.827 434.711 211.17 434.711 213.056Z" fill="#455A64"/>
<path d="M415.414 238.152C415.414 240.038 416.786 240.753 418.48 239.747L423.853 236.557C425.545 235.551 426.919 233.206 426.919 231.321C426.92 229.433 425.546 228.719 423.854 229.724L418.48 232.916C416.786 233.921 415.414 236.266 415.414 238.152Z" fill="#455A64"/>
<path d="M434.711 226.719C434.713 228.606 436.085 229.319 437.779 228.314L469.87 209.231C471.562 208.225 472.936 205.88 472.936 203.992C472.936 202.106 471.562 201.391 469.87 202.397L437.777 221.483C436.084 222.49 434.711 224.833 434.711 226.719Z" fill="#455A64"/>
<path d="M415.414 251.814C415.414 253.7 416.786 254.416 418.48 253.411L423.853 250.219C425.545 249.213 426.919 246.869 426.919 244.983C426.92 243.097 425.546 242.382 423.854 243.387L418.48 246.578C416.786 247.583 415.414 249.928 415.414 251.814Z" fill="#455A64"/>
<path d="M434.711 240.383C434.713 242.269 436.085 242.983 437.779 241.978L469.87 222.894C471.562 221.888 472.936 219.543 472.936 217.655C472.936 215.769 471.562 215.054 469.87 216.059L437.777 235.147C436.084 236.152 434.711 238.497 434.711 240.383Z" fill="#455A64"/>
<path d="M558.22 5.75462L550.655 1.26713C550.652 1.26567 550.648 1.26421 550.646 1.26275L550.578 1.22197L550.571 1.23362C547.214 -0.716637 542.604 -0.42242 537.509 2.60274C527.245 8.69822 518.924 23.5211 518.924 35.7106C518.924 41.7959 521 46.0722 524.35 48.0734V48.0748L524.366 48.0836L524.369 48.0865L531.25 52.1268L532.894 49.2983C534.592 48.8978 536.359 48.2744 538.226 47.166C548.488 41.072 556.81 26.2477 556.812 14.0582C556.812 12.2477 556.576 10.6543 556.229 9.17595L558.22 5.75462Z" fill="#0084CF"/>
<path d="M518.926 35.7089C518.926 41.7957 520.997 46.0705 524.347 48.0703V48.0776L524.368 48.0849L531.252 52.1281L532.896 49.301C534.59 48.8976 536.36 48.2713 538.228 47.1629C543.719 43.9032 548.658 38.134 552.058 31.6147L525.103 15.6121C521.312 21.9012 518.926 29.1823 518.926 35.7089Z" fill="#263238"/>
<path d="M558.221 5.75519L550.659 1.26479H550.645L550.576 1.22255L550.569 1.23565C547.211 -0.713151 542.607 -0.426217 537.506 2.60332C532.735 5.43185 528.385 10.1524 525.103 15.6128L552.057 31.614C555.017 25.9526 556.815 19.7202 556.815 14.0587C556.815 12.2454 556.577 10.6549 556.227 9.17361L558.221 5.75519Z" fill="#455A64"/>
<path d="M544.695 6.84259C534.431 12.9381 526.109 27.7609 526.109 39.9504C526.109 52.1399 534.429 57.0818 544.693 50.9864C554.959 44.8909 563.28 30.068 563.28 17.8785C563.28 5.68904 554.96 0.747111 544.695 6.84259Z" fill="#37474F"/>
<path d="M546.046 16.9358C546.699 16.7377 547.271 16.6998 547.765 16.8178C548.258 16.9358 548.671 17.1601 549.004 17.4907C549.337 17.8199 549.592 18.2233 549.765 18.701C549.937 19.1802 550.037 19.6623 550.065 20.1546C550.078 20.3993 550.028 20.6338 549.915 20.8596C549.8 21.0868 549.671 21.2426 549.524 21.33L548.125 22.1617C547.898 22.2957 547.727 22.3277 547.614 22.2578C547.502 22.1879 547.398 22.0641 547.306 21.8864C547.105 21.4786 546.801 21.2004 546.396 21.0489C545.988 20.9018 545.385 21.0635 544.586 21.5383C544.24 21.7451 543.909 22 543.597 22.3015C543.283 22.603 543.008 22.9336 542.776 23.2934C542.542 23.6546 542.358 24.0333 542.227 24.4295C542.093 24.8242 542.027 25.2218 542.027 25.6238C542.027 26.1103 542.099 26.4613 542.246 26.6798C542.394 26.9012 542.63 27.0235 542.956 27.0512C543.283 27.0789 543.704 27.0352 544.216 26.9201C544.729 26.8036 545.353 26.6565 546.086 26.4744C546.886 26.2734 547.561 26.1948 548.115 26.2355C548.669 26.2763 549.122 26.4511 549.474 26.757C549.827 27.0658 550.082 27.5114 550.235 28.0955C550.386 28.6796 550.464 29.4064 550.464 30.2701C550.464 31.0944 550.365 31.9247 550.164 32.7592C549.966 33.5967 549.675 34.4109 549.294 35.2076C548.915 36.0043 548.45 36.753 547.904 37.4579C547.359 38.1629 546.738 38.795 546.046 39.3543V41.507C546.046 41.7386 545.992 41.9702 545.886 42.2032C545.78 42.4363 545.652 42.595 545.505 42.6824L543.886 43.6437C543.739 43.7296 543.612 43.7224 543.507 43.616C543.399 43.5112 543.347 43.3422 543.347 43.1106V40.9565C542.746 41.1647 542.183 41.2507 541.656 41.2157C541.129 41.1808 540.669 41.0264 540.277 40.754C539.883 40.4787 539.567 40.084 539.328 39.5597C539.087 39.0382 538.952 38.3828 538.927 37.5977C538.913 37.3516 538.964 37.1142 539.077 36.8899C539.189 36.6656 539.319 36.5083 539.466 36.4209L540.867 35.5907C541.094 35.4552 541.266 35.4159 541.387 35.4712C541.506 35.5281 541.606 35.6577 541.687 35.8616C541.779 36.083 541.892 36.2883 542.027 36.485C542.16 36.6801 542.34 36.8156 542.566 36.8913C542.792 36.9685 543.076 36.9744 543.416 36.9088C543.756 36.8462 544.179 36.6627 544.686 36.3612C545.084 36.1238 545.472 35.847 545.845 35.531C546.219 35.2134 546.546 34.8624 546.826 34.4735C547.105 34.0847 547.332 33.6768 547.504 33.2457C547.677 32.816 547.765 32.3602 547.765 31.8737C547.765 31.4105 547.672 31.0857 547.486 30.9007C547.298 30.7158 547.016 30.6298 546.635 30.6444C546.255 30.659 545.785 30.7376 545.226 30.8789C544.665 31.0231 544.018 31.1644 543.286 31.3027C542.619 31.4455 542.037 31.4921 541.535 31.4396C541.037 31.3887 540.623 31.2081 540.296 30.8935C539.969 30.5803 539.727 30.1302 539.567 29.5374C539.407 28.9476 539.328 28.1756 539.328 27.2245C539.328 26.403 539.427 25.583 539.628 24.7688C539.826 23.9532 540.104 23.1594 540.456 22.3918C540.81 21.6243 541.234 20.9077 541.727 20.2449C542.219 19.5822 542.76 18.9923 543.347 18.4767V16.3226C543.347 16.091 543.399 15.8579 543.507 15.6264C543.612 15.3933 543.739 15.2346 543.886 15.1457L545.505 14.1844C545.652 14.0985 545.78 14.1087 545.886 14.2135C545.992 14.3184 546.046 14.4874 546.046 14.7204V16.9358Z" fill="#FAFAFA"/>
<path d="M558.22 148.28L550.655 143.792C550.652 143.791 550.648 143.789 550.646 143.788L550.578 143.747L550.571 143.759C547.214 141.808 542.604 142.102 537.509 145.128C527.245 151.223 518.924 166.046 518.924 178.235C518.924 184.321 521 188.597 524.35 190.598V190.6L524.366 190.608L524.369 190.611L531.25 194.652L532.894 191.823C534.592 191.423 536.359 190.799 538.226 189.691C548.488 183.597 556.81 168.773 556.812 156.583C556.812 154.773 556.576 153.179 556.229 151.701L558.22 148.28Z" fill="#0084CF"/>
<path d="M518.926 178.234C518.926 184.321 520.997 188.595 524.347 190.595V190.603L524.368 190.61L531.252 194.653L532.896 191.826C534.59 191.423 536.36 190.796 538.228 189.688C543.719 186.428 548.658 180.659 552.058 174.14L525.103 158.137C521.312 164.426 518.926 171.707 518.926 178.234Z" fill="#263238"/>
<path d="M558.221 148.28L550.659 143.79H550.645L550.576 143.747L550.569 143.761C547.211 141.812 542.607 142.099 537.506 145.128C532.735 147.957 528.385 152.677 525.103 158.138L552.057 174.139C555.017 168.477 556.815 162.245 556.815 156.584C556.815 154.77 556.577 153.18 556.227 151.699L558.221 148.28Z" fill="#455A64"/>
<path d="M544.695 149.367C534.431 155.463 526.109 170.286 526.109 182.475C526.109 194.665 534.429 199.607 544.693 193.511C554.959 187.416 563.28 172.593 563.28 160.403C563.28 148.214 554.96 143.272 544.695 149.367Z" fill="#37474F"/>
<path d="M554.149 175.794L535.24 187.022C535.021 187.152 534.842 186.975 534.842 186.627V169.376C534.842 169.028 535.021 168.641 535.24 168.511L554.149 157.283C554.368 157.153 554.547 157.33 554.547 157.676V174.929C554.547 175.275 554.368 175.664 554.149 175.794Z" fill="#FAFAFA"/>
<path d="M548.418 161.825C548.198 161.955 548.02 161.779 548.02 161.431V158.803L541.368 162.753V165.381C541.368 165.729 541.19 166.116 540.972 166.247C540.752 166.377 540.574 166.201 540.574 165.853V162.594C540.574 162.248 540.752 161.859 540.972 161.729L548.418 157.307C548.637 157.178 548.816 157.354 548.816 157.7V160.959C548.816 161.307 548.637 161.696 548.418 161.825Z" fill="#FAFAFA"/>
<path d="M548.418 158.567L540.972 162.989C540.752 163.119 540.574 162.943 540.574 162.595V161.145C540.574 160.797 540.752 160.408 540.972 160.279L548.418 155.857C548.637 155.727 548.816 155.903 548.816 156.25V157.701C548.816 158.049 548.637 158.436 548.418 158.567Z" fill="#FAFAFA"/>
<path d="M547.398 169.331L541.992 172.541C541.832 172.636 541.703 172.508 541.703 172.256V171.203C541.703 170.951 541.832 170.668 541.992 170.574L547.398 167.363C547.557 167.269 547.686 167.397 547.686 167.649V168.702C547.686 168.954 547.557 169.237 547.398 169.331Z" fill="#37474F"/>
<path d="M558.22 77.0173L550.655 72.5298C550.652 72.5269 550.648 72.5269 550.646 72.5255L550.578 72.4832L550.571 72.4963C547.214 70.5461 542.604 70.8403 537.509 73.8655C527.245 79.9609 518.924 94.7838 518.924 106.973C518.924 113.059 521 117.333 524.35 119.335V119.338L524.366 119.346L524.369 119.348L531.25 123.39L532.894 120.561C534.592 120.16 536.359 119.536 538.226 118.429C548.488 112.335 556.81 97.5104 556.812 85.3209C556.812 83.5104 556.576 81.917 556.229 80.4387L558.22 77.0173Z" fill="#0084CF"/>
<path d="M518.926 106.971C518.926 113.058 520.997 117.333 524.347 119.332V119.34L524.368 119.347L531.252 123.39L532.896 120.563C534.59 120.16 536.36 119.533 538.228 118.426C543.719 115.167 548.658 109.396 552.058 102.877L525.103 86.8755C521.312 93.1633 518.926 100.446 518.926 106.971Z" fill="#263238"/>
<path d="M558.221 77.0173L550.659 72.5269H550.645L550.576 72.4847L550.569 72.4992C547.211 70.549 542.607 70.8374 537.506 73.8654C532.735 76.694 528.385 81.4145 525.103 86.8749L552.057 102.876C555.017 97.2147 556.815 90.9837 556.815 85.3209C556.815 83.5075 556.577 81.917 556.227 80.4357L558.221 77.0173Z" fill="#455A64"/>
<path d="M544.695 78.1048C534.431 84.2002 526.109 99.0231 526.109 111.213C526.109 123.404 534.429 128.344 544.693 122.249C554.959 116.155 563.28 101.33 563.28 89.1407C563.28 76.9512 554.96 72.0093 544.695 78.1048Z" fill="#37474F"/>
<path d="M537.882 97.5036C537.882 94.7304 539.301 91.6397 541.052 90.5998C542.805 89.5599 544.224 90.9654 544.224 93.7386C544.224 96.5118 542.805 99.6025 541.052 100.642C539.301 101.682 537.882 100.277 537.882 97.5036Z" fill="white"/>
<path d="M546.688 111.49L535.033 118.41L535.653 110.438C535.919 107.034 537.665 103.568 539.733 102.34L541.987 101.002C544.055 99.7738 545.801 101.168 546.066 104.255L546.688 111.49Z" fill="white"/>
<path d="M545.551 89.1899C545.551 86.4167 546.97 83.326 548.722 82.2861C550.473 81.2461 551.892 82.6517 551.892 85.4249C551.892 88.1966 550.473 91.2873 548.722 92.3272C546.97 93.3672 545.551 91.9631 545.551 89.1899Z" fill="white"/>
<path d="M554.357 103.173L547.206 107.419L546.882 103.603C546.649 100.923 545.474 99.3077 543.903 99.1854C544.636 96.8841 545.937 94.8974 547.401 94.0264L549.656 92.6893C551.725 91.46 553.471 92.8525 553.736 95.9417L554.357 103.173Z" fill="white"/>
<path d="M265.76 354.925C276.128 348.769 290.035 345.378 304.92 345.378C319.807 345.378 333.715 348.769 344.082 354.925C353.457 360.492 358.619 367.539 358.619 374.766C358.619 381.993 353.456 389.04 344.082 394.607C333.715 400.763 319.807 404.152 304.92 404.152C290.037 404.152 276.129 400.763 265.76 394.607C256.387 389.04 251.223 381.993 251.223 374.766C251.223 367.539 256.385 360.492 265.76 354.925V354.925ZM364.369 374.766C364.367 365.731 358.565 356.698 346.956 349.804C323.741 336.02 286.101 336.02 262.885 349.804C251.277 356.698 245.474 365.731 245.474 374.766V391.407C245.474 400.441 251.277 409.475 262.887 416.368C286.101 430.153 323.742 430.153 346.957 416.368C358.565 409.475 364.369 400.441 364.369 391.407V374.766Z" fill="#0084CF"/>
<g opacity="0.300003">
<g opacity="0.300003">
<path opacity="0.300003" d="M251.22 374.766C251.22 367.539 256.381 360.492 265.756 354.926C276.124 348.769 290.032 345.378 304.917 345.378C319.803 345.378 333.71 348.769 344.079 354.926C353.454 360.492 358.614 367.539 358.614 374.766C358.614 381.993 353.452 389.04 344.079 394.607C333.71 400.763 319.802 404.153 304.917 404.153C290.032 404.153 276.124 400.763 265.756 394.607C256.383 389.04 251.22 381.993 251.22 374.766ZM262.881 399.726C286.096 413.512 323.737 413.512 346.952 399.726C370.17 385.942 370.17 363.59 346.953 349.805C323.737 336.019 286.098 336.019 262.881 349.805C239.667 363.59 239.667 385.942 262.881 399.726" fill="white"/>
</g>
</g>
<path d="M251.215 374.765C251.215 377.603 252.008 380.394 253.538 383.09C255.894 378.891 260.045 374.954 265.761 371.572C276.12 365.411 290.033 362.017 304.923 362.017C319.802 362.017 333.714 365.411 344.075 371.572C349.789 374.954 353.939 378.891 356.307 383.09C357.827 380.394 358.62 377.603 358.62 374.765C358.62 367.539 353.457 360.491 344.075 354.92C333.714 348.772 319.802 345.377 304.923 345.377C290.033 345.377 276.12 348.772 265.761 354.92C256.379 360.491 251.215 367.539 251.215 374.765Z" fill="#0084CF"/>
<g opacity="0.100006">
<g opacity="0.100006">
<path opacity="0.100006" d="M251.215 374.765C251.215 377.603 252.008 380.394 253.538 383.09C255.894 378.891 260.045 374.954 265.761 371.572C276.12 365.411 290.033 362.017 304.923 362.017C319.802 362.017 333.714 365.411 344.075 371.572C349.789 374.954 353.939 378.891 356.307 383.09C357.827 380.394 358.62 377.603 358.62 374.765C358.62 367.539 353.457 360.491 344.075 354.92C333.714 348.772 319.802 345.377 304.923 345.377C290.033 345.377 276.12 348.772 265.761 354.92C256.379 360.491 251.215 367.539 251.215 374.765Z" fill="black"/>
</g>
</g>
<g opacity="0.399994">
<g opacity="0.399994">
<path opacity="0.399994" d="M265.757 362.46C276.124 356.304 290.032 352.913 304.917 352.913C319.804 352.913 333.71 356.304 344.079 362.46C351.815 367.053 356.671 372.654 358.137 378.533C356.671 384.411 351.814 390.013 344.079 394.605C333.71 400.762 319.802 404.153 304.917 404.153C290.032 404.153 276.124 400.762 265.757 394.605C258.022 390.013 253.163 384.411 251.697 378.533C253.163 372.654 258.022 367.053 265.757 362.46Z" fill="white"/>
</g>
</g>
<g opacity="0.100006">
<g opacity="0.100006">
<path opacity="0.100006" d="M290.911 409.084V425.711C280.644 424.244 270.904 421.133 262.89 416.368C251.278 409.474 245.47 400.438 245.47 391.403V374.765C245.47 372.943 245.712 371.123 246.184 369.312H246.195C243.378 380.063 248.942 391.439 262.89 399.73C270.904 404.496 280.644 407.605 290.911 409.084Z" fill="black"/>
</g>
</g>
<path d="M264.652 410.32C264.664 407.588 262.811 404.258 260.517 402.883C259.376 402.199 258.339 402.127 257.586 402.566L257.584 402.563L257.573 402.57L257.572 402.572L237.561 414.317C237.556 414.32 237.552 414.323 237.547 414.326L237.543 414.327V414.329C236.794 414.776 236.328 415.73 236.322 417.089C236.311 419.82 238.163 423.151 240.459 424.526C241.606 425.215 242.647 425.283 243.403 424.839L263.412 413.095L263.41 413.092C264.172 412.651 264.648 411.692 264.652 410.32Z" fill="#37474F"/>
<path d="M263.41 413.093C264.172 412.651 264.647 411.693 264.652 410.321C264.656 409.291 264.395 408.177 263.946 407.114L238.141 422.292C238.801 423.223 239.599 424.01 240.458 424.526C241.607 425.214 242.646 425.283 243.402 424.838L263.411 413.094L263.41 413.093Z" fill="#263238"/>
<path d="M243.835 424.466C243.849 420.911 241.44 416.577 238.452 414.787C236.989 413.908 235.662 413.815 234.684 414.357L234.679 414.35L234.624 414.38C234.623 414.382 234.621 414.382 234.62 414.382L168.255 450.835L178.157 468.833L242.225 428.073C243.213 427.496 243.828 426.249 243.835 424.466Z" fill="#0084CF"/>
<g opacity="0.100006">
<g opacity="0.100006">
<path opacity="0.100006" d="M178.157 468.834L242.225 428.073C243.212 427.497 243.828 426.248 243.835 424.467C243.842 422.558 243.138 420.435 242.033 418.592L173.052 459.554L178.157 468.834Z" fill="black"/>
</g>
</g>
<path d="M173.152 468.292C169.235 465.947 166.074 460.264 166.094 455.598C166.112 450.932 169.303 449.053 173.22 451.401C177.137 453.749 180.297 459.433 180.278 464.096C180.261 468.76 177.069 470.637 173.152 468.292Z" fill="#0084CF"/>
<g opacity="0.199997">
<g opacity="0.199997">
<path opacity="0.199997" d="M173.152 468.292C169.235 465.947 166.074 460.264 166.094 455.598C166.112 450.932 169.303 449.053 173.22 451.401C177.137 453.749 180.297 459.433 180.278 464.096C180.261 468.76 177.069 470.637 173.152 468.292Z" fill="black"/>
</g>
</g>
<path d="M564.377 307.388C565.102 279.685 562.942 273.046 555.772 267.972L552.994 284.024C552.994 284.024 556.261 302.94 555.91 309.239C555.602 314.774 555.078 321.698 553.805 326.172C553.58 326.965 553.059 327.632 552.378 328.07C550.552 329.244 549.816 330.45 548.441 331.931C547.365 333.091 546.448 333.379 546.589 333.749C546.771 334.222 547.539 334.99 548.86 334.576C549.524 334.367 550.38 333.834 551.45 333.13C551.45 333.13 550.686 335.439 548.796 337.821C546.236 341.049 546.124 343.031 551.294 343.078C554.533 343.109 557.118 341.053 559.556 333.711C560.257 331.596 561.358 328.258 561.832 325.467C563.07 318.202 564.259 311.846 564.377 307.388Z" fill="#FFA8A7"/>
<path d="M549.738 265.868C553.161 265.358 557.813 266.095 560.818 271.624C563.823 277.153 564.561 286.661 564.902 296.118C564.902 296.118 558.933 301.253 551.773 298.728L549.738 265.868Z" fill="#0084CF"/>
<path d="M559.808 418.23C560.351 418.443 560.489 419.506 560.571 421.624C560.633 423.226 560.966 426.022 559.142 426.58C557.318 427.14 554.646 426.854 553.476 425.344C552.017 423.459 551.032 421.8 548.949 419.5C547.142 417.506 545.187 415.643 544.458 412.847C543.798 410.318 544.348 409.222 546.026 408.488C548.331 407.475 551.954 410.779 553.759 411.299C555.317 411.746 559.264 418.019 559.808 418.23Z" fill="#263238"/>
<path d="M559.808 416.27V418.87C559.808 418.87 557.181 420.946 553.421 419.048C553.31 418.796 552.758 415.329 552.758 415.329L559.808 416.27Z" fill="#FFA8A7"/>
<path d="M539.341 433.211C539.341 433.211 540.066 435.471 540.457 437.447C540.767 439.019 541.212 441.647 540.677 442.828C540.141 444.01 538.056 444.772 534.82 444.747C532.724 444.731 529.458 446.195 527.221 447.478C524.912 448.804 520.109 449.331 517.666 449.037C514.787 448.689 511.805 446.972 511.34 445.745C510.873 444.519 511.492 443.246 518.276 440.273C518.339 440.245 527.708 437.112 530.992 433.387L539.341 433.211Z" fill="#263238"/>
<path d="M539.341 430.4C539.341 430.4 539.331 432.33 539.341 433.432C539.351 434.533 538.084 436.176 534.808 436.055C532.507 435.971 530.9 435.334 530.992 433.386V430.576L539.341 430.4Z" fill="#FFA8A7"/>
<path d="M561.452 381.776C560.295 373.281 558.468 368.237 558.468 368.237C558.468 368.237 559.369 356.558 559.802 345.484C560.269 333.521 559.777 318.486 559.999 315.503C559.999 315.503 522.471 307.692 521.801 321.52C521.132 335.348 523.283 370.546 523.726 376.619C524.171 382.695 525.192 388.066 526.411 397.914C527.615 407.63 530.991 430.576 530.991 430.576C535.279 432.96 539.342 430.399 539.342 430.399C539.342 430.399 541.983 402.752 541.705 395.743C541.365 387.184 539.119 380.444 539.119 380.444C539.119 380.444 539.832 369.043 540.46 359.125C541.089 349.208 541.755 344.445 541.899 340.131L542.708 339.719C542.708 339.719 543.531 356.828 543.974 362.902C544.419 368.977 545.357 374.802 547.067 386.084C548.549 395.873 552.964 416.582 552.964 416.582C557.25 418.966 559.808 416.27 559.808 416.27C559.808 416.27 562.609 390.268 561.452 381.776" fill="#37474F"/>
<path d="M541.9 340.131C541.9 340.131 551.004 335.517 555.56 331.355C555.56 331.355 551.33 337.487 545.776 340.205C545.776 340.205 543.802 361.458 543.812 361.037L542.67 340.099L541.9 340.131Z" fill="#263238"/>
<path d="M533.797 261.489L536.018 274.06L547.058 273.231L544.741 258.98L533.797 261.489Z" fill="#FFA8A7"/>
<path d="M558.718 272.311C557.626 268.893 553.409 265.175 549.189 265.98C541.439 267.46 535.291 269.043 530.714 270.725C526.852 272.144 523.333 275.577 523.013 288.645C523.013 288.645 521.718 319.109 521.696 325.001C531.395 328.948 541.482 328.825 547.059 327.573C558.665 324.964 560.065 320.012 560.065 320.012C560.065 320.012 560.216 298.106 559.868 288.645C559.573 280.606 559.468 274.658 558.718 272.311Z" fill="#F5F5F5"/>
<path d="M525.279 246.198C525.279 246.198 522.478 250.789 522.82 251.226C523.159 251.663 525.302 252.014 525.302 252.014L525.279 246.198Z" fill="#FFA8A7"/>
<path d="M533.054 233.498C527.216 234.906 525.58 237.596 525.237 247.193C524.881 257.221 525.943 260.347 527.25 261.665C528.133 262.555 532.937 262.609 535.342 261.866C538.352 260.937 545.145 258.283 548.243 253.171C551.883 247.157 552.699 239.102 548.588 235.901C542.805 231.395 535.431 232.924 533.054 233.498Z" fill="#FFA8A7"/>
<path d="M525.302 235.994C527.014 239.01 530.734 240.454 530.734 240.454C531.853 241.765 531.235 246.88 533.206 247.693C533.206 247.693 534.053 243.97 537.097 244.365C540.16 244.762 540.66 248.756 538.789 251.232C536.918 253.708 535.104 252.818 535.104 252.818C535.104 252.818 535.314 258.107 537.659 261.049C537.659 261.049 540.272 261.853 545.02 260.696C547.937 259.986 552.001 256.12 553.657 252.087C557.159 243.558 557.251 235.953 551.959 233.798C551.308 229.92 548.29 228.244 544.877 227.52C537.53 225.963 532.793 230.679 527.137 230.27C523.9 230.035 523.293 232.459 525.302 235.994Z" fill="#263238"/>
<path d="M552.078 235.098L555.542 232.888C554.949 231.905 553.693 231.602 552.737 232.213C551.78 232.823 551.485 234.115 552.078 235.098Z" fill="#263238"/>
<path d="M484.029 293.353C485.846 294.183 507.237 310.442 510.57 308.549C513.905 306.656 531.016 286.097 531.016 286.097C535.984 277.629 531.016 270.673 531.016 270.673C531.016 270.673 525.529 271.715 522.66 276.178C519.792 280.642 507.391 296.638 507.391 296.638C504.328 295.062 501.276 293.462 498.234 291.843C495.729 290.509 493.215 289.175 490.763 287.74C490.151 287.382 489.342 287.033 488.835 286.518C487.624 285.286 487.833 282.31 487.854 280.69C487.865 279.934 487.877 279.176 487.96 278.424C488.066 277.499 488.238 275.234 486.619 275.954C486.306 276.092 486.054 276.344 485.846 276.621C485.592 276.962 485.395 277.348 485.267 277.757C484.962 278.734 485.061 279.806 484.779 280.792C484.738 280.937 484.687 281.084 484.581 281.187C484.448 281.317 484.253 281.353 484.07 281.347C481.712 281.274 479.482 277.878 478.398 276.073C477.917 275.269 477.442 274.376 476.611 273.977C475.321 273.357 473.772 274.244 472.94 275.434C471.883 276.952 471.564 278.921 471.774 280.776C472.062 283.347 473.023 285.726 474.847 287.475C477.612 290.127 480.616 291.793 484.029 293.353Z" fill="#FFA8A7"/>
<path d="M532.927 270.009C530.568 270.288 527.263 269.838 522.639 274.945C518.017 280.05 512.237 288.712 512.237 288.712C512.237 288.712 513.842 296.99 522.582 298.728C522.582 298.728 530.676 290.199 532.927 285.503C535.179 280.807 535.706 273.178 532.927 270.009Z" fill="#0084CF"/>
</svg>
