<svg width="1560" height="1489" viewBox="0 0 1560 1489" fill="none" xmlns="http://www.w3.org/2000/svg">
<path d="M155.853 541.079H100.453C98.5555 541.079 97.0176 542.617 97.0176 544.514V553.01C97.0176 554.907 98.5555 556.445 100.453 556.445H155.853C157.75 556.445 159.288 554.907 159.288 553.01V544.514C159.288 542.617 157.75 541.079 155.853 541.079Z" fill="#5736FF"/>
<path d="M155.905 570.327H100.401C98.5322 570.327 97.0176 571.841 97.0176 573.71V581.845C97.0176 583.713 98.5322 585.228 100.401 585.228H155.905C157.773 585.228 159.288 583.713 159.288 581.845V573.71C159.288 571.841 157.773 570.327 155.905 570.327Z" fill="#ADC6FF"/>
<path d="M155.905 599.574H100.401C98.5322 599.574 97.0176 601.089 97.0176 602.957V611.092C97.0176 612.96 98.5322 614.475 100.401 614.475H155.905C157.773 614.475 159.288 612.96 159.288 611.092V602.957C159.288 601.089 157.773 599.574 155.905 599.574Z" fill="#FF7946"/>
<path d="M155.905 628.821H100.401C98.5322 628.821 97.0176 630.336 97.0176 632.204V640.339C97.0176 642.208 98.5322 643.722 100.401 643.722H155.905C157.773 643.722 159.288 642.208 159.288 640.339V632.204C159.288 630.336 157.773 628.821 155.905 628.821Z" fill="#ADC6FF"/>
<path d="M534.076 345.347H46.924C38.5566 345.347 31.7734 352.13 31.7734 360.498V710.334C31.7734 718.702 38.5566 725.485 46.924 725.485H534.076C542.443 725.485 549.227 718.702 549.227 710.334V360.498C549.227 352.13 542.443 345.347 534.076 345.347Z" fill="#E4EBF7"/>
<path d="M500.721 412.841H206.268C203.087 412.841 200.508 415.42 200.508 418.6V686.056C200.508 689.237 203.087 691.816 206.268 691.816H500.721C503.902 691.816 506.481 689.237 506.481 686.056V418.6C506.481 415.42 503.902 412.841 500.721 412.841Z" fill="#5736FF"/>
<path d="M454.735 498.333H238.755V511.832H454.735V498.333Z" fill="white"/>
<path d="M346.745 545.579H238.755V559.078H346.745V545.579Z" fill="#FAAD14"/>
<path d="M438.987 451.087H330.996V464.586H438.987V451.087Z" fill="#FAAD14"/>
<path d="M436.737 637.821H238.755V651.319H436.737V637.821Z" fill="white"/>
<path d="M303.999 451.087H238.755V464.586H303.999V451.087Z" fill="white"/>
<path d="M400.74 545.579H369.243V559.078H400.74V545.579Z" fill="#E4EBF7"/>
<path d="M398.49 590.575H238.755V604.074H398.49V590.575Z" fill="#E4EBF7"/>
<path d="M45.6338 327.349H535.106C542.761 327.349 548.967 333.425 548.967 340.921V381.366H31.7734V340.921C31.7734 333.425 37.9789 327.349 45.6338 327.349Z" fill="#253368"/>
<path d="M61.9143 364.722C67.378 364.722 71.8071 360.384 71.8071 355.034C71.8071 349.684 67.378 345.347 61.9143 345.347C56.4507 345.347 52.0215 349.684 52.0215 355.034C52.0215 360.384 56.4507 364.722 61.9143 364.722Z" fill="#FF7946"/>
<path d="M100.161 364.722C105.625 364.722 110.054 360.384 110.054 355.034C110.054 349.684 105.625 345.347 100.161 345.347C94.6972 345.347 90.2681 349.684 90.2681 355.034C90.2681 360.384 94.6972 364.722 100.161 364.722Z" fill="#FAAD14"/>
<path d="M136.158 364.722C141.621 364.722 146.051 360.384 146.051 355.034C146.051 349.684 141.621 345.347 136.158 345.347C130.694 345.347 126.265 349.684 126.265 355.034C126.265 360.384 130.694 364.722 136.158 364.722Z" fill="#7CB305"/>
<path d="M178.712 408.341H78.3172C74.9773 408.341 72.2698 411.049 72.2698 414.389V685.768C72.2698 689.108 74.9773 691.816 78.3172 691.816H178.712C182.052 691.816 184.76 689.108 184.76 685.768V414.389C184.76 411.049 182.052 408.341 178.712 408.341Z" fill="white"/>
<path d="M155.853 541.079H100.453C98.5555 541.079 97.0176 542.617 97.0176 544.514V553.01C97.0176 554.907 98.5555 556.445 100.453 556.445H155.853C157.75 556.445 159.288 554.907 159.288 553.01V544.514C159.288 542.617 157.75 541.079 155.853 541.079Z" fill="#5736FF"/>
<path d="M155.905 570.327H100.401C98.5322 570.327 97.0176 571.841 97.0176 573.71V581.845C97.0176 583.713 98.5322 585.228 100.401 585.228H155.905C157.773 585.228 159.288 583.713 159.288 581.845V573.71C159.288 571.841 157.773 570.327 155.905 570.327Z" fill="#ADC6FF"/>
<path d="M155.905 599.574H100.401C98.5322 599.574 97.0176 601.089 97.0176 602.957V611.092C97.0176 612.96 98.5322 614.475 100.401 614.475H155.905C157.773 614.475 159.288 612.96 159.288 611.092V602.957C159.288 601.089 157.773 599.574 155.905 599.574Z" fill="#FF7946"/>
<path d="M155.905 628.821H100.401C98.5322 628.821 97.0176 630.336 97.0176 632.204V640.339C97.0176 642.208 98.5322 643.722 100.401 643.722H155.905C157.773 643.722 159.288 642.208 159.288 640.339V632.204C159.288 630.336 157.773 628.821 155.905 628.821Z" fill="#ADC6FF"/>
<path d="M127.378 500.704C142.74 500.704 155.194 488.108 155.194 472.571C155.194 457.035 142.74 444.439 127.378 444.439C112.015 444.439 99.5618 457.035 99.5618 472.571C99.5618 488.108 112.015 500.704 127.378 500.704Z" fill="#FAAD14"/>
<path d="M127.378 500.704C135.395 500.708 143.003 497.126 148.161 490.919C144.097 483.116 136.094 478.231 127.373 478.231C118.653 478.231 110.649 483.116 106.585 490.919C111.746 497.127 119.358 500.709 127.378 500.704Z" fill="#253368"/>
<path d="M127.526 479.35C133.303 479.35 137.987 474.613 137.987 468.769C137.987 462.926 133.303 458.189 127.526 458.189C121.748 458.189 117.064 462.926 117.064 468.769C117.064 474.613 121.748 479.35 127.526 479.35Z" fill="#253368"/>
<path fill-rule="evenodd" clip-rule="evenodd" d="M591.18 963.381C605.504 983.211 632.818 988.407 653.419 975.222L840.064 855.805C867.519 838.241 874.56 801.215 855.479 774.798C836.619 748.694 799.837 743.505 774.49 763.371L600.113 900.078C580.621 915.357 576.679 943.305 591.18 963.381Z" fill="#FFC999"/>
<path fill-rule="evenodd" clip-rule="evenodd" d="M729.433 935.163L847.988 859.965C873.022 840.506 873.036 790.593 853.134 765.909C833.232 741.229 796.959 737.665 772.635 758.003L661.503 850.92C661.503 850.92 694.76 918.086 729.433 935.163Z" fill="#5736FF"/>
<path fill-rule="evenodd" clip-rule="evenodd" d="M512.498 697.556C500.513 703.754 495.047 717.927 499.764 730.572L582.695 952.804C592.223 978.324 621.685 990.057 646.146 978.072C670.051 966.357 679.085 936.876 665.846 913.778L547.889 707.985C540.786 695.592 525.186 690.994 512.498 697.556Z" fill="#FFC999"/>
<path fill-rule="evenodd" clip-rule="evenodd" d="M918.742 748.31L888.721 715.547L898.184 607.722L982.135 615.542L981.714 722.242L918.742 748.31Z" fill="#FFC999"/>
<path fill-rule="evenodd" clip-rule="evenodd" d="M876.726 597.074C876.726 597.074 864.265 583.366 858.575 592.162C852.889 600.962 861.397 633.293 875.314 634.547C893.904 636.223 876.726 597.074 876.726 597.074Z" fill="#FFC999"/>
<path fill-rule="evenodd" clip-rule="evenodd" d="M955.366 681.628C955.366 681.628 927.32 703.199 891.761 679.877C866.161 663.088 864.724 605.118 871.059 562.799C874.644 538.85 886.125 526.263 909.778 519.873C933.436 513.484 996.984 515.211 995.2 585.951C993.211 664.746 955.366 681.628 955.366 681.628Z" fill="#FFC999"/>
<path d="M911.606 575.202L911.375 575.232C910.757 575.368 910.341 575.927 910.364 576.539L910.393 576.77L913.653 591.558L904.461 631.342C904.296 632.059 904.76 632.752 905.453 632.896L905.667 632.922L922.607 633.592C923.319 633.62 923.919 633.066 923.947 632.354C923.973 631.713 923.526 631.163 922.918 631.039L922.709 631.014L907.328 630.404L916.232 591.852C916.261 591.727 916.271 591.6 916.262 591.473L916.235 591.284L912.913 576.214C912.776 575.596 912.217 575.179 911.606 575.202Z" fill="#DD936F"/>
<path d="M927.896 571.828C927.632 573.709 928.942 575.448 930.824 575.713L942.13 577.363L943.583 577.569C954.609 579.119 961.308 579.675 965.318 579.008C967.192 578.696 968.458 576.924 968.147 575.05C967.853 573.287 966.267 572.061 964.519 572.183L963.54 572.308C960.644 572.612 955.357 572.203 947.486 571.16L942.35 570.444L931.781 568.901C929.9 568.636 928.161 569.947 927.896 571.828Z" fill="#253368"/>
<path d="M936.294 643.921C936.075 642.95 935.111 642.34 934.14 642.558L933.498 642.685L933.244 642.731C932.469 642.867 931.555 643.004 930.508 643.132C923.462 643.995 914.897 644.019 905.227 642.641C904.242 642.5 903.329 643.185 903.189 644.17C903.048 645.155 903.733 646.068 904.718 646.208C914.718 647.633 923.599 647.609 930.946 646.709L932.214 646.541C932.614 646.484 932.993 646.426 933.35 646.368L934.62 646.14C934.749 646.114 934.853 646.092 934.931 646.074C935.902 645.856 936.512 644.892 936.294 643.921Z" fill="#FF7946"/>
<path fill-rule="evenodd" clip-rule="evenodd" d="M986.231 616.024L1000.83 589.189C1000.83 589.189 1010.74 550.166 1002.15 532.995C988.825 506.351 956.502 506.092 937.536 498.524C918.571 490.953 918.946 484.507 911.137 485.35C903.325 486.189 872.587 506.293 868.551 528.152C865.001 547.37 868.45 596.706 868.45 596.706C868.45 596.706 875.177 553.308 879.718 541.929C895.101 536.037 950.322 537.37 973.153 545.161C973.153 545.161 974.71 560.051 975.55 570.53C987.625 579.722 986.231 616.024 986.231 616.024Z" fill="#253368"/>
<path d="M891.318 677.404C890.854 676.864 890.039 676.802 889.499 677.266C888.958 677.73 888.897 678.545 889.361 679.085C889.714 679.496 890.39 680.177 891.396 681.037C893.049 682.449 895.047 683.856 897.397 685.167C910.041 692.217 926.939 693.709 948.249 686.244C948.922 686.008 949.276 685.272 949.04 684.6C948.805 683.928 948.069 683.573 947.396 683.809C926.785 691.029 910.655 689.605 898.654 682.913C896.457 681.688 894.599 680.379 893.072 679.075L892.455 678.533C891.898 678.028 891.52 677.639 891.318 677.404Z" fill="#DD936F"/>
<path d="M912.167 589.002C910.745 588.901 909.511 589.972 909.411 591.393C909.317 592.72 910.243 593.883 911.522 594.115L911.802 594.149L924.252 595.032C925.673 595.133 926.907 594.063 927.008 592.641C927.102 591.315 926.176 590.151 924.896 589.92L924.617 589.885L912.167 589.002Z" fill="#253368"/>
<path d="M922.972 597.652C920.364 596.44 917.69 595.792 915.06 596.051C912.839 596.271 910.809 597.145 909.104 598.736C908.062 599.708 908.006 601.34 908.978 602.382C909.95 603.424 911.583 603.481 912.625 602.508C913.476 601.714 914.442 601.298 915.567 601.187C917.13 601.032 918.951 601.474 920.796 602.331C921.779 602.788 922.525 603.24 922.902 603.509C924.062 604.336 925.673 604.065 926.5 602.905C927.327 601.745 927.057 600.133 925.897 599.306C925.28 598.867 924.272 598.257 922.972 597.652Z" fill="#253368"/>
<path d="M903.699 567.557C897.752 565.158 891.726 563.842 885.959 564.208C881.895 564.466 878.132 565.569 874.784 567.632C873.167 568.629 872.664 570.748 873.661 572.365C874.657 573.982 876.776 574.485 878.393 573.489C880.732 572.047 883.407 571.263 886.395 571.073C890.981 570.782 896.051 571.89 901.125 573.936C902.407 574.453 903.611 575 904.716 575.551L905.526 575.965C906.301 576.371 906.836 576.677 907.092 576.834C908.711 577.829 910.829 577.324 911.824 575.706C912.819 574.088 912.314 571.97 910.696 570.975L909.964 570.541C908.496 569.7 906.349 568.626 903.699 567.557Z" fill="#253368"/>
<path d="M912.085 655.668C911.373 655.627 910.763 656.17 910.722 656.881C910.685 657.521 911.121 658.08 911.727 658.215L911.935 658.244L922.086 658.835C922.797 658.876 923.407 658.333 923.449 657.622C923.486 656.982 923.05 656.424 922.444 656.288L922.236 656.259L912.085 655.668Z" fill="#DD936F"/>
<path d="M970.734 592.463C969.311 592.388 968.097 593.481 968.022 594.904C967.953 596.232 968.9 597.379 970.184 597.586L970.464 597.616L990.895 598.69C992.318 598.765 993.533 597.672 993.607 596.249C993.677 594.921 992.73 593.775 991.446 593.567L991.166 593.537L970.734 592.463Z" fill="#253368"/>
<path fill-rule="evenodd" clip-rule="evenodd" d="M969.302 590.916L930.298 588.653C927.577 588.495 925.242 590.567 925.101 593.287C924.845 598.372 924.658 606.534 925.573 613.586C926.654 621.899 933.757 627.366 942.099 628.238C952.517 629.33 961.89 629.881 966.945 624.735C974.646 616.894 973.669 603.193 973.933 595.983C974.03 593.338 971.947 591.068 969.302 590.916Z" fill="white"/>
<path d="M930.347 587.795L969.352 590.058C972.465 590.236 974.906 592.904 974.791 596.014L974.749 597.714L974.705 600.793C974.624 605.369 974.457 607.925 973.954 611.072C972.997 617.054 971.005 621.828 967.558 625.337C962.97 630.008 956.262 630.586 942.009 629.093C932.904 628.141 925.814 622.104 924.721 613.697C923.943 607.706 923.872 600.606 924.243 593.243C924.408 590.049 927.148 587.609 930.347 587.795ZM930.248 589.511C928.116 589.387 926.279 590.917 925.993 592.983L925.96 593.33C925.594 600.598 925.664 607.608 926.426 613.475C927.409 621.041 933.832 626.509 942.188 627.383L944.053 627.57C956.477 628.76 962.458 628.076 966.332 624.133C969.493 620.914 971.351 616.461 972.257 610.8L972.425 609.677C972.784 607.095 972.917 604.688 972.987 600.745L973.065 596.209C973.067 596.123 973.07 596.037 973.074 595.951C973.154 593.778 971.435 591.899 969.253 591.774L930.248 589.511Z" fill="#253368"/>
<path d="M942.053 598.978C941.104 598.923 940.291 599.648 940.236 600.597C939.925 605.987 943.556 610.668 948.481 610.958C953.406 611.243 957.554 607.011 957.866 601.62C957.921 600.672 957.196 599.858 956.247 599.803C955.299 599.748 954.485 600.473 954.43 601.422C954.223 605.011 951.596 607.691 948.682 607.522C945.765 607.35 943.464 604.385 943.672 600.795C943.727 599.846 943.002 599.033 942.053 598.978Z" fill="#253368"/>
<path fill-rule="evenodd" clip-rule="evenodd" d="M908.494 586.952L864.337 584.39C862.326 590.747 862.456 615.791 869.724 621.578C879.569 627.484 900.206 626.375 903.705 621.142C909.017 613.204 911.719 597.629 912.026 590.876C912.119 588.819 910.552 587.071 908.494 586.952Z" fill="white"/>
<path d="M864.387 583.532L908.544 586.094C911.07 586.24 913 588.386 912.885 590.915C912.451 600.482 909.021 614.743 904.42 621.62C900.439 627.573 879.056 628.179 869.282 622.315C862.697 617.082 860.595 593.37 863.518 584.131C863.636 583.756 863.994 583.509 864.387 583.532ZM864.975 585.288L864.862 585.708C862.587 595.028 864.687 616.469 870.26 620.906C879.246 626.288 899.616 625.711 902.991 620.664C907.385 614.097 910.746 600.119 911.167 590.837C911.24 589.247 910.03 587.902 908.445 587.81L864.975 585.288Z" fill="#253368"/>
<path d="M886.941 595.778C885.992 595.723 885.178 596.447 885.122 597.396C884.806 602.787 888.438 607.473 893.364 607.758C898.289 608.043 902.44 603.811 902.752 598.421C902.807 597.472 902.082 596.658 901.133 596.604C900.185 596.549 899.371 597.273 899.316 598.222C899.109 601.811 896.479 604.491 893.563 604.322C890.647 604.153 888.347 601.186 888.558 597.597C888.613 596.648 887.889 595.834 886.941 595.778Z" fill="#253368"/>
<path d="M925.181 587.313C923.757 587.267 922.566 588.385 922.52 589.809C922.478 591.139 923.449 592.265 924.737 592.446L925.017 592.47L973.438 594.009C974.862 594.054 976.053 592.936 976.099 591.512C976.141 590.183 975.17 589.056 973.882 588.875L973.602 588.851L925.181 587.313Z" fill="#253368"/>
<path d="M864.105 582.768C862.684 582.665 861.448 583.734 861.346 585.155C861.25 586.482 862.175 587.647 863.454 587.879L863.734 587.915L911.073 591.331C912.494 591.433 913.73 590.364 913.832 588.943C913.928 587.617 913.003 586.452 911.724 586.219L911.444 586.184L864.105 582.768Z" fill="#253368"/>
<path fill-rule="evenodd" clip-rule="evenodd" d="M993.086 594.192C998.174 589.14 1005.95 587.86 1011.32 593.893C1019.97 603.611 1011.14 638.998 987.298 640.05C978.279 638.634 985.143 602.073 993.086 594.192Z" fill="#FFC999"/>
<path fill-rule="evenodd" clip-rule="evenodd" d="M1017.58 1037.17C1017.58 1037.17 1038.96 930.145 1048.43 890.608C1057.89 851.066 1072.26 756.402 1055.92 749.314C1039.58 742.226 1000.47 727.174 1000.47 727.174C1000.47 727.174 961.668 732.158 926.616 739.62C898.873 745.53 906.75 719.48 873.111 725.037C858.867 727.394 814.158 734.439 791.838 746.615C782.887 751.498 784.332 781.147 783.06 809.968C779.002 901.959 801.448 1042.9 801.448 1042.9C801.448 1042.9 788.137 1056.58 804.273 1074.32C812.27 1082.63 846.889 1079.81 891.205 1079.92C941.65 1080.04 1000.99 1086.38 1012 1076.79C1032.68 1058.77 1017.58 1037.17 1017.58 1037.17Z" fill="#5736FF"/>
<path fill-rule="evenodd" clip-rule="evenodd" d="M887.387 711.213L921.206 743.681L880.623 772.091L863.038 728.799L887.387 711.213Z" fill="#5736FF"/>
<path fill-rule="evenodd" clip-rule="evenodd" d="M979.849 1933.06L908.759 1260.11L905.926 1258.71L831.305 1934.61C831.305 1934.61 775.667 1947.51 746.265 1929.86C745.12 1798.81 775.976 1373.1 789.036 1178.69C791.136 1147.39 800.758 1104.85 802.678 1093.02C892.006 1077.93 1013.02 1099.7 1013.02 1099.7L1018.25 1115.39C1019.27 1118.44 1019.88 1121.62 1020.08 1124.83L1076.17 1926.42C1076.17 1926.42 1021.19 1946.32 979.849 1933.06Z" fill="#ADC6FF"/>
<path d="M860.385 1232.66C859.745 1232.35 858.972 1232.61 858.659 1233.25C858.381 1233.82 858.56 1234.49 859.053 1234.86L859.252 1234.98L913.089 1261.29C913.729 1261.6 914.501 1261.33 914.814 1260.69C915.092 1260.12 914.913 1259.45 914.421 1259.09L914.221 1258.97L860.385 1232.66Z" fill="#5736FF"/>
<path fill-rule="evenodd" clip-rule="evenodd" d="M1012.54 1076.51C1012.54 1076.51 898.792 1059.7 804.24 1076.26C803.461 1084.64 802.651 1094.96 802.651 1094.96C802.651 1094.96 883.557 1100.53 1014.37 1103.76C1014.01 1081.01 1012.54 1076.51 1012.54 1076.51Z" fill="#ADC6FF"/>
<path d="M975.69 1100.54C934.257 1097.16 891.726 1095.87 852.008 1097.85C835.316 1098.68 819.568 1100.09 804.92 1102.12C804.214 1102.22 803.721 1102.87 803.819 1103.57C803.917 1104.28 804.568 1104.77 805.274 1104.67C819.843 1102.66 835.517 1101.26 852.137 1100.43C891.727 1098.45 934.151 1099.74 975.481 1103.11L982.041 1103.66C988.464 1104.22 994.467 1104.8 999.989 1105.38L1006.18 1106.06L1010.59 1106.58C1011.01 1106.63 1011.33 1106.67 1011.55 1106.7C1012.26 1106.79 1012.9 1106.29 1012.99 1105.59C1013.09 1104.88 1012.59 1104.23 1011.88 1104.14L1009.33 1103.83C1007.55 1103.62 1005.52 1103.39 1003.25 1103.14L998.397 1102.62C991.499 1101.91 983.894 1101.2 975.69 1100.54Z" fill="#5736FF"/>
<path d="M976.146 1072.13C934.713 1068.76 892.182 1067.46 852.464 1069.44C835.772 1070.28 820.024 1071.68 805.376 1073.71C804.67 1073.81 804.177 1074.46 804.275 1075.17C804.373 1075.87 805.024 1076.37 805.73 1076.27C820.299 1074.25 835.973 1072.85 852.593 1072.02C892.183 1070.04 934.607 1071.34 975.937 1074.7L980.341 1075.07C986.856 1075.62 992.958 1076.2 998.587 1076.78L1005.61 1077.54L1012.01 1078.29C1012.71 1078.39 1013.36 1077.89 1013.45 1077.18C1013.54 1076.47 1013.04 1075.83 1012.34 1075.74L1009.79 1075.42C1008.31 1075.25 1006.65 1075.06 1004.82 1074.86L998.853 1074.22C991.955 1073.5 984.349 1072.8 976.146 1072.13Z" fill="#5736FF"/>
<path d="M898.575 1073.9C897.863 1073.88 897.271 1074.45 897.253 1075.16L897.111 1081.89C897.056 1084.78 897.001 1087.96 896.949 1091.41C896.521 1119.97 896.495 1150.28 897.136 1178.68L897.295 1185.14C897.993 1211.35 899.26 1233.34 901.189 1249.82C901.272 1250.53 901.913 1251.04 902.621 1250.95C903.328 1250.87 903.835 1250.23 903.752 1249.52L903.446 1246.82C901.549 1229.37 900.337 1206.17 899.715 1178.62C899.125 1152.44 899.101 1124.63 899.438 1098.06L899.551 1089.99L899.832 1075.22C899.85 1074.51 899.287 1073.92 898.575 1073.9Z" fill="#5736FF"/>
<path fill-rule="evenodd" clip-rule="evenodd" d="M876.457 1083.23C876.407 1086.44 878.389 1089.07 880.886 1089.12C883.379 1089.15 885.444 1086.59 885.495 1083.37C885.545 1080.17 883.567 1077.53 881.07 1077.49C878.572 1077.45 876.507 1080.02 876.457 1083.23Z" fill="white"/>
<path fill-rule="evenodd" clip-rule="evenodd" d="M921.024 741.035L952.328 782.223L999.098 727.262L981.971 705.85L921.024 741.035Z" fill="#5736FF"/>
<path d="M919.618 743.263C918.726 742.935 917.737 743.392 917.409 744.283L917.084 745.245L916.763 746.273C916.65 746.645 916.531 747.048 916.406 747.48L916.214 748.152C915.429 750.935 914.57 754.357 913.653 758.467L913.147 760.777C910.077 775.054 907.01 793.931 904.139 818.001L903.375 824.569C900.29 851.783 897.641 883.751 895.551 920.854L895.378 923.957C892.263 980.51 892.984 1029.03 895.697 1065.29C895.768 1066.24 896.594 1066.95 897.542 1066.88C898.489 1066.81 899.2 1065.98 899.129 1065.03L898.861 1061.32C896.426 1026.25 895.833 980.278 898.66 927.007L898.814 924.147C900.927 885.785 903.632 852.86 906.794 824.959L907.311 820.478C910.241 795.518 913.378 776.074 916.512 761.5L917.01 759.222C917.832 755.539 918.604 752.426 919.315 749.845L919.526 749.087C919.779 748.192 920.008 747.421 920.212 746.768L920.562 745.69C920.595 745.593 920.621 745.52 920.638 745.472C920.967 744.581 920.51 743.591 919.618 743.263Z" fill="#253368"/>
<path d="M782.811 803.238C781.972 802.535 780.79 802.661 780.106 803.492C779.815 803.845 779.659 804.242 779.535 804.758C779.393 805.348 779.289 806.173 779.215 807.256L779.18 807.818C779.054 810.093 779.033 813.4 779.119 817.635L779.166 819.656C779.448 830.395 780.317 845.781 781.716 864.257L782.239 870.993C785.732 915.012 791.562 969.657 799.39 1029.03L800.227 1035.31L799.907 1036.13L799.63 1036.87C799.059 1038.44 798.489 1040.17 797.956 1042.01C796.663 1046.5 795.8 1050.96 795.569 1055.16C795.182 1062.17 796.588 1067.87 800.318 1071.72C800.98 1072.4 802.069 1072.42 802.752 1071.76C803.434 1071.1 803.452 1070.01 802.79 1069.33C799.849 1066.29 798.666 1061.49 799.005 1055.35C799.22 1051.44 800.036 1047.23 801.263 1042.97C801.67 1041.55 802.101 1040.21 802.536 1038.97L803.122 1037.36C803.321 1036.83 803.477 1036.44 803.576 1036.21C803.695 1035.92 803.737 1035.62 803.696 1035.31L802.362 1025.22C794.616 966.094 788.874 911.801 785.475 868.246L785.015 862.226C783.785 845.766 782.989 831.869 782.668 821.689L782.562 817.699C782.481 813.781 782.492 810.68 782.592 808.497L782.616 808.009C782.655 807.306 782.705 806.723 782.761 806.275L782.822 805.861L782.848 805.845L783.026 805.662C783.636 804.933 783.54 803.848 782.811 803.238Z" fill="#253368"/>
<path d="M870.507 795.787L872.871 795.991C873.636 796.06 874.376 796.13 875.09 796.201L878.578 796.573L879.645 796.701C880.589 796.822 881.276 797.655 881.214 798.605L877.049 862.798C877.009 863.407 876.664 863.955 876.131 864.254L841.357 883.709C840.76 884.043 840.026 884.01 839.461 883.625L812.6 865.286C812.11 864.951 811.816 864.396 811.815 863.802L811.839 852.119L811.88 844.668C811.965 831.76 812.123 817.393 812.373 801.821C812.385 801.127 812.793 800.501 813.424 800.212C820.207 797.104 830.004 795.47 842.076 795.01C851.196 794.662 860.949 795.005 870.507 795.787ZM840.929 798.665C830.731 799.133 822.338 800.494 816.367 802.872L815.959 803.039L815.733 818.863C815.63 827.087 815.553 834.9 815.5 842.257L815.428 856.178L815.419 862.845L840.571 880.017L873.517 861.586L877.51 800.077L876.767 799.997C874.815 799.786 872.614 799.576 870.213 799.379C860.787 798.607 851.17 798.27 842.213 798.611L840.929 798.665Z" fill="#253368"/>
<path fill-rule="evenodd" clip-rule="evenodd" d="M918.589 771.994C918.539 775.205 920.665 777.839 923.338 777.882C926.012 777.925 928.221 775.36 928.275 772.149C928.326 768.942 926.2 766.304 923.526 766.261C920.848 766.218 918.639 768.783 918.589 771.994Z" fill="white"/>
<path fill-rule="evenodd" clip-rule="evenodd" d="M910.861 830.959C910.811 834.166 912.937 836.804 915.611 836.848C918.284 836.891 920.493 834.325 920.547 831.114C920.598 827.907 918.472 825.269 915.798 825.226C913.121 825.183 910.912 827.749 910.861 830.959Z" fill="white"/>
<path fill-rule="evenodd" clip-rule="evenodd" d="M905.961 894.813C905.91 898.023 908.036 900.658 910.71 900.701C913.384 900.744 915.593 898.178 915.647 894.968C915.698 891.76 913.571 889.123 910.898 889.079C908.22 889.036 906.011 891.605 905.961 894.813Z" fill="white"/>
<path fill-rule="evenodd" clip-rule="evenodd" d="M904.027 954.84C903.977 958.047 906.103 960.685 908.777 960.728C911.45 960.771 913.659 958.205 913.713 954.995C913.764 951.788 911.638 949.15 908.964 949.106C906.29 949.063 904.081 951.629 904.027 954.84Z" fill="white"/>
<path fill-rule="evenodd" clip-rule="evenodd" d="M903.721 1034.27C903.671 1037.48 905.797 1040.11 908.471 1040.15C911.144 1040.2 913.353 1037.63 913.407 1034.42C913.458 1031.21 911.332 1028.58 908.658 1028.53C905.981 1028.49 903.772 1031.06 903.721 1034.27Z" fill="white"/>
<path d="M999.606 727.631C998.947 727.072 997.989 727.095 997.359 727.648L997.18 727.83L953.29 779.587L921.954 743.136C921.391 742.481 920.442 742.354 919.733 742.801L919.528 742.953C918.873 743.516 918.745 744.465 919.193 745.174L919.345 745.379L951.993 783.361C952.625 784.096 953.722 784.154 954.428 783.537L954.61 783.352L999.805 730.056C1000.42 729.331 1000.33 728.245 999.606 727.631Z" fill="#253368"/>
<path d="M868.588 729.96C868.3 729.054 867.332 728.554 866.426 728.842C865.596 729.106 865.107 729.942 865.253 730.777L865.309 731.004L878.984 773.965C879.322 775.027 880.548 775.474 881.479 774.936L881.674 774.806L920.419 744.954C921.172 744.374 921.312 743.294 920.732 742.541C920.204 741.857 919.264 741.679 918.531 742.088L918.318 742.228L881.52 770.581L868.588 729.96Z" fill="#253368"/>
<path d="M870.272 1098.76C869.568 1098.66 868.911 1099.14 868.806 1099.85L868.473 1102.31L868.394 1102.94C868.086 1105.41 867.779 1108.21 867.492 1111.28C866.181 1125.28 865.735 1139.73 866.667 1153.23C868.841 1184.75 878.011 1204.74 896.621 1207.28C897.327 1207.37 897.977 1206.88 898.073 1206.17C898.169 1205.47 897.675 1204.82 896.969 1204.72C880.032 1202.41 871.339 1183.46 869.241 1153.06C868.32 1139.71 868.762 1125.39 870.06 1111.52L870.309 1108.98C870.477 1107.33 870.65 1105.78 870.824 1104.33L871.108 1102.05L871.358 1100.23C871.463 1099.52 870.977 1098.87 870.272 1098.76Z" fill="#5736FF"/>
<path d="M1003.83 599.08C1003.56 598.419 1002.81 598.1 1002.15 598.368L1001.69 598.568C1001.42 598.694 1001.1 598.86 1000.72 599.068C999.684 599.639 998.649 600.331 997.678 601.15C994.105 604.167 992.314 608.076 993.416 612.807C993.833 614.599 994.657 615.556 996.19 616.469L996.85 616.84C998.166 617.559 998.494 617.915 998.615 619.032C998.848 621.176 997.873 622.778 996 624.006C995.378 624.415 994.702 624.746 994.026 625.004L993.422 625.215C993.316 625.248 993.231 625.271 993.17 625.286C992.478 625.455 992.054 626.154 992.223 626.846C992.393 627.538 993.091 627.962 993.783 627.793C994.721 627.563 996.061 627.052 997.415 626.164C1000.03 624.449 1001.53 621.982 1001.18 618.754C1000.96 616.756 1000.18 615.791 998.469 614.791L997.833 614.436C996.621 613.769 996.184 613.316 995.929 612.222C995.076 608.557 996.445 605.568 999.343 603.122C1000.17 602.42 1001.07 601.821 1001.96 601.327C1002.5 601.035 1002.9 600.845 1003.11 600.759C1003.77 600.492 1004.09 599.74 1003.83 599.08Z" fill="#DD936F"/>
<path d="M847.366 1254.65C846.655 1254.61 846.042 1255.15 845.996 1255.86C845.956 1256.5 846.389 1257.06 846.994 1257.2L847.202 1257.23L889.777 1259.94C890.488 1259.99 891.101 1259.45 891.147 1258.74C891.188 1258.1 890.754 1257.54 890.149 1257.4L889.941 1257.37L847.366 1254.65Z" fill="#5736FF"/>
<path fill-rule="evenodd" clip-rule="evenodd" d="M550.58 714.113C550.58 714.113 513.514 603.622 471.548 576.805C459.054 577.266 470.769 593.723 479.465 607.19C483.911 614.076 486.845 622.775 486.845 622.775C486.845 622.775 469.71 620.984 472.996 635.528C459.267 634.865 464.236 650.23 464.236 650.23C464.236 650.23 453.682 650.252 457.076 664.525C459.408 674.338 472.629 685.919 475.659 696.243C487.346 736.055 506.541 738.257 514.249 739.478C533.759 742.563 545.737 735.136 550.58 714.113Z" fill="#FFC999"/>
<path d="M526.501 664.219L511.477 631.685L511.102 630.277C507.778 618.339 502.511 613.453 497.999 617.763C494.119 621.469 493.433 630.929 496.909 639.528C503.827 656.643 504.525 664.564 502.037 673.903L501.216 676.891C500.753 678.659 500.486 680.079 500.375 681.586C499.897 688.049 500.212 694.068 502.011 699.874C504.639 708.356 510.074 714.333 518.907 716.744C519.594 716.932 520.303 716.527 520.491 715.84C520.679 715.152 520.274 714.443 519.586 714.255C505.609 710.439 501.749 697.982 502.948 681.776C503.032 680.637 503.22 679.538 503.541 678.221L503.894 676.862C504.008 676.448 504.149 675.943 504.36 675.194L504.689 673.957C507.132 664.318 506.277 655.82 499.301 638.561C496.182 630.844 496.788 622.488 499.781 619.628C502.196 617.322 505.763 620.646 508.664 631.077L509.055 632.543L524.158 665.299C524.456 665.946 525.222 666.229 525.869 665.93C526.445 665.665 526.732 665.03 526.579 664.438L526.501 664.219Z" fill="#DD936F"/>
<path d="M472.428 634.371C471.788 634.684 471.523 635.457 471.837 636.097L472.326 637.07C472.718 637.837 473.164 638.69 473.659 639.609C475.073 642.236 476.589 644.864 478.149 647.321C479.819 649.951 481.444 652.231 482.994 654.063C486.155 657.798 488.918 659.627 491.448 658.852C497.133 657.111 498.878 652.926 497.455 647.486C496.915 645.426 495.948 643.263 494.676 641.067C493.981 639.868 493.239 638.733 492.495 637.697L491.901 636.889C491.731 636.664 491.591 636.486 491.487 636.358C491.038 635.806 490.225 635.722 489.673 636.172C489.12 636.621 489.036 637.434 489.486 637.986L490.016 638.676C490.132 638.831 490.26 639.007 490.398 639.2C491.096 640.173 491.793 641.238 492.443 642.36C493.609 644.372 494.486 646.334 494.958 648.139C496.06 652.348 494.916 655.092 490.693 656.385C489.542 656.737 487.485 655.375 484.963 652.396C483.499 650.666 481.939 648.477 480.327 645.938C478.803 643.538 477.317 640.963 475.931 638.387L475.239 637.085L474.154 634.962C473.84 634.322 473.068 634.057 472.428 634.371Z" fill="#DD936F"/>
<path d="M466.099 650.56C465.87 649.886 465.138 649.524 464.463 649.752C463.788 649.981 463.426 650.713 463.655 651.388L463.946 652.195L464.329 653.187C464.467 653.534 464.615 653.896 464.773 654.272C465.677 656.418 466.722 658.565 467.9 660.577C471.558 666.824 475.689 670.513 480.401 670.141C485.037 669.775 487.201 666.743 487.325 662.276C487.371 660.65 487.146 658.937 486.747 657.237C486.529 656.31 486.309 655.587 486.156 655.16C485.916 654.489 485.178 654.139 484.507 654.379C483.836 654.619 483.487 655.357 483.726 656.028L483.869 656.463C483.977 656.813 484.106 657.278 484.235 657.828C484.588 659.328 484.784 660.83 484.746 662.205C484.655 665.479 483.34 667.321 480.198 667.569C476.797 667.837 473.327 664.738 470.126 659.273C469.011 657.368 468.014 655.32 467.151 653.271L466.727 652.236L466.197 650.841C466.153 650.718 466.12 650.624 466.099 650.56Z" fill="#DD936F"/>
<path d="M456.402 661.151C455.71 661.321 455.286 662.019 455.456 662.711L455.653 663.449L456.016 664.672C456.084 664.888 456.155 665.11 456.23 665.338C456.871 667.291 457.643 669.245 458.551 671.077C461.915 677.871 466.282 681.409 471.704 679.331C475.544 677.858 477.05 675.102 476.47 671.701C476.186 670.035 475.426 668.315 474.341 666.591C473.866 665.835 473.358 665.129 472.85 664.488L472.373 663.906C472.285 663.803 472.211 663.719 472.152 663.654C471.673 663.128 470.857 663.09 470.33 663.569C469.803 664.049 469.765 664.865 470.245 665.392L470.538 665.733C470.624 665.835 470.721 665.955 470.828 666.091C471.281 666.662 471.735 667.294 472.157 667.964C473.077 669.427 473.708 670.856 473.926 672.134C474.303 674.342 473.453 675.897 470.78 676.922C467.024 678.362 463.707 675.675 460.863 669.932C460.015 668.22 459.287 666.377 458.681 664.533C458.54 664.102 458.412 663.693 458.298 663.308L457.962 662.097C457.811 661.482 457.243 661.079 456.632 661.116L456.402 661.151Z" fill="#DD936F"/>
<path d="M660.612 849.449C659.8 849.941 659.54 850.999 660.033 851.812L661.981 854.968L663.816 857.889C665.313 860.257 666.948 862.805 668.703 865.496C675.389 875.751 682.452 886.006 689.577 895.582C694.738 902.519 699.745 908.843 704.534 914.415C713.659 925.034 721.739 932.639 728.563 936.647C729.039 936.927 729.615 936.958 730.113 936.744L730.355 936.617L786.671 900.935C787.473 900.426 787.712 899.363 787.203 898.56C786.741 897.831 785.82 897.567 785.054 897.908L784.829 898.028L729.418 933.138L728.957 932.848C723.025 929.023 715.973 922.332 708.06 913.233L707.144 912.172C702.412 906.666 697.454 900.404 692.338 893.528C685.26 884.014 678.235 873.816 671.585 863.617L669.88 860.988C668.494 858.84 667.194 856.8 665.992 854.889L664.196 852.014L662.976 850.029C662.483 849.216 661.425 848.956 660.612 849.449Z" fill="#253368"/>
<path d="M636.73 855.591C636.399 854.96 635.619 854.718 634.988 855.049C634.428 855.344 634.173 855.992 634.357 856.576L634.446 856.791L664.705 914.379C665.036 915.009 665.816 915.252 666.447 914.921C667.008 914.626 667.262 913.977 667.078 913.394L666.989 913.179L636.73 855.591Z" fill="#DD936F"/>
<path fill-rule="evenodd" clip-rule="evenodd" d="M1133.75 1049.43C1156.33 1040.02 1167.64 1014.63 1159.52 991.554L1085.97 782.536C1075.15 751.798 1040.72 736.468 1010.64 749.001C980.912 761.387 967.445 796.006 980.987 825.223L1074.17 1026.26C1084.58 1048.73 1110.89 1058.96 1133.75 1049.43Z" fill="#FFC999"/>
<path fill-rule="evenodd" clip-rule="evenodd" d="M1130.71 908.392L1084.63 775.776C1071.41 746.955 1022.83 735.521 994.244 749.247C965.665 762.972 953.895 797.473 968.129 825.803L1033.16 955.242C1033.16 955.242 1106.15 938.237 1130.71 908.392Z" fill="#5736FF"/>
<path d="M998.368 857.547C997.996 856.672 996.985 856.265 996.111 856.637C995.316 856.976 994.907 857.842 995.119 858.653L995.201 858.894L1035.79 954.265C1036.14 955.083 1037.05 955.501 1037.9 955.23L1041.48 954.045L1044.79 952.916C1047.48 951.991 1050.37 950.972 1053.42 949.868C1065.05 945.658 1076.69 941.065 1087.55 936.239L1090.69 934.83C1107.2 927.323 1120.14 919.983 1128.31 913.005C1129.66 911.851 1130.87 910.71 1131.95 909.58C1132.61 908.892 1132.58 907.803 1131.89 907.147C1131.21 906.491 1130.12 906.517 1129.46 907.205C1128.47 908.246 1127.34 909.308 1126.07 910.389C1117.71 917.534 1103.88 925.222 1086.16 933.094C1075.37 937.883 1063.81 942.447 1052.25 946.632L1049.27 947.701C1046.83 948.568 1044.52 949.374 1042.35 950.114L1038.34 951.465L998.368 857.547Z" fill="#253368"/>
<path fill-rule="evenodd" clip-rule="evenodd" d="M850.46 1024.41C851.786 1037.84 862.935 1048.16 876.427 1048.45L1113.57 1053.57C1140.81 1054.16 1162.6 1031.12 1160.51 1003.96C1158.47 977.415 1134.41 958.122 1108.06 961.884L873.234 995.386C859.094 997.404 849.055 1010.2 850.46 1024.41Z" fill="#FFC999"/>
<path fill-rule="evenodd" clip-rule="evenodd" d="M869.87 1085.39L817.73 922.296C816.869 919.604 814.39 917.767 811.565 917.731L665.359 915.752C660.819 915.691 657.59 920.148 659.064 924.444L713.491 1083.21C714.367 1085.77 716.716 1087.52 719.412 1087.64L863.329 1093.95C867.895 1094.15 871.261 1089.75 869.87 1085.39Z" fill="#4E5C93"/>
<path fill-rule="evenodd" clip-rule="evenodd" d="M862.163 1083.41L810.931 923.147C809.89 919.893 806.885 917.666 803.465 917.619L655.454 915.615C652.279 915.576 650.02 918.693 651.051 921.695L706.235 1082.66C707.204 1085.49 709.802 1087.43 712.79 1087.56L854.242 1093.77C859.77 1094.01 863.849 1088.67 862.163 1083.41Z" fill="#253368"/>
<path fill-rule="evenodd" clip-rule="evenodd" d="M790.889 933.063C789.235 934.904 789.83 938.137 792.219 940.288C794.608 942.436 797.887 942.684 799.545 940.846C801.199 939.005 800.604 935.769 798.215 933.621C795.826 931.47 792.543 931.221 790.889 933.063Z" fill="#ADC6FF"/>
<path fill-rule="evenodd" clip-rule="evenodd" d="M792.855 934.988C791.994 935.943 792.304 937.622 793.543 938.739C794.786 939.853 796.487 939.982 797.349 939.027C798.206 938.072 797.896 936.393 796.657 935.276C795.417 934.163 793.713 934.033 792.855 934.988Z" fill="#E4EBF7"/>
<path fill-rule="evenodd" clip-rule="evenodd" d="M804.786 1054.73C796.386 1053.91 791.968 1050.4 792.765 1043.4C782.661 1040.22 783.788 1031.66 783.788 1031.66C783.788 1031.66 764.34 1031.37 761.068 1023.06C759.796 1019.83 762.265 1016.38 765.724 1016.14C807.391 1013.32 837.102 991.237 837.102 991.237C837.102 991.237 820.721 967.183 822.454 956.081C822.966 952.798 827.258 951.739 829.265 954.387C846.443 977.057 880.889 994.833 880.889 994.833C880.889 994.833 922.239 1033.57 877.386 1051.14C877.386 1051.14 843.192 1064.77 819.388 1063.04C808.116 1062.23 804.786 1054.73 804.786 1054.73Z" fill="#FFC999"/>
<path d="M814.433 1024.28C814.085 1023.66 813.299 1023.43 812.677 1023.78C809.694 1025.45 806.207 1026.81 802.318 1027.88C797.683 1029.16 792.706 1029.98 787.697 1030.43L786.175 1030.55C784.212 1030.7 782.531 1030.76 781.22 1030.78L780.251 1030.78C779.539 1030.77 778.953 1031.34 778.944 1032.05C778.935 1032.7 779.396 1033.23 780.007 1033.34L780.216 1033.36L780.748 1033.36C782.492 1033.36 784.962 1033.26 787.926 1033C793.078 1032.54 798.204 1031.7 803.005 1030.37C807.081 1029.24 810.757 1027.81 813.936 1026.03C814.558 1025.69 814.781 1024.9 814.433 1024.28Z" fill="#DD936F"/>
<path d="M818.355 1037.08C818.044 1036.44 817.273 1036.17 816.632 1036.48C816.248 1036.67 815.86 1036.85 815.469 1037.03C810.521 1039.26 805.208 1040.69 799.873 1041.48C796.577 1041.96 793.937 1042.12 792.294 1042.11C791.562 1042.1 790.977 1042.67 790.967 1043.38C790.958 1044.02 791.419 1044.56 792.03 1044.67L792.239 1044.69H792.702L793.656 1044.66C795.357 1044.6 797.606 1044.42 800.249 1044.03C805.805 1043.21 811.345 1041.72 816.53 1039.38C816.942 1039.19 817.35 1039 817.754 1038.81C818.396 1038.5 818.665 1037.72 818.355 1037.08Z" fill="#DD936F"/>
<path d="M825.77 1051.39C825.46 1050.75 824.689 1050.48 824.047 1050.79C822.675 1051.45 819.435 1052.07 815.029 1052.58C812.776 1052.84 810.358 1053.06 807.94 1053.23L804.721 1053.44C804.009 1053.47 803.462 1054.08 803.498 1054.79C803.534 1055.5 804.14 1056.05 804.852 1056.02L807.495 1055.85L808.126 1055.81C810.578 1055.63 813.031 1055.41 815.324 1055.15L816.933 1054.95C820.815 1054.45 823.642 1053.85 825.171 1053.11C825.812 1052.8 826.081 1052.03 825.77 1051.39Z" fill="#DD936F"/>
<path d="M1107.88 960.605L878.917 991.883C878.211 991.98 877.717 992.63 877.813 993.336C877.9 993.972 878.435 994.435 879.056 994.451L879.266 994.44L1108.23 963.161C1108.94 963.065 1109.43 962.414 1109.34 961.708C1109.25 961.073 1108.71 960.609 1108.09 960.593L1107.88 960.605Z" fill="#DD936F"/>
<path d="M765.979 475.466C765.979 437.439 735.143 406.289 697.105 406.289C659.067 406.289 628.229 437.439 628.229 475.466C628.229 490.516 636.22 509.957 649.053 524.29C661.778 538.492 665.402 562.402 665.402 581.468V588.943H728.808V581.53C728.808 562.464 732.432 538.6 745.092 524.352C757.967 509.872 765.979 488.704 765.979 475.466Z" fill="#FFE58F"/>
<path d="M754.643 475.279C754.643 443.516 728.89 417.491 697.105 417.491C665.32 417.491 639.572 443.514 639.572 475.279C639.572 487.862 646.245 504.095 656.968 516.068C667.597 527.934 675.489 547.907 675.489 563.834V570.073H718.723V563.888C718.723 547.958 726.616 528.022 737.194 516.119C747.95 504.024 754.643 486.342 754.643 475.282V475.279Z" fill="#FAAD14"/>
<path d="M714.585 623.825H679.624C678.402 623.825 677.287 623.031 676.624 621.727L671.868 609.422H722.347L717.592 621.727C716.925 623.031 715.813 623.825 714.591 623.825H714.585Z" fill="#253368"/>
<path d="M723.076 560.504H671.133C667.274 560.504 664.145 563.633 664.145 567.492V607.731C664.145 611.59 667.274 614.719 671.133 614.719H723.076C726.935 614.719 730.064 611.59 730.064 607.731V567.492C730.064 563.633 726.935 560.504 723.076 560.504Z" fill="#5736FF"/>
<path d="M701.367 575.031C702.01 575.031 702.532 575.553 702.532 576.196C702.532 576.822 702.037 577.332 701.418 577.359L701.367 577.36H664.231C663.588 577.36 663.067 576.839 663.067 576.196C663.067 575.57 663.561 575.059 664.18 575.033L664.231 575.031H701.367Z" fill="white"/>
<path d="M701.367 599.134C702.01 599.134 702.532 599.655 702.532 600.298C702.532 600.924 702.037 601.435 701.418 601.462L701.367 601.463H664.231C663.588 601.463 663.067 600.941 663.067 600.298C663.067 599.672 663.561 599.162 664.18 599.135L664.231 599.134H701.367Z" fill="white"/>
<path d="M729.851 587.082C730.494 587.082 731.015 587.603 731.015 588.246C731.015 588.872 730.521 589.382 729.902 589.409L729.851 589.41H692.715C692.072 589.41 691.551 588.889 691.551 588.246C691.551 587.62 692.045 587.109 692.664 587.083L692.715 587.082H729.851Z" fill="white"/>
<path d="M701.803 447.663L675.84 487.211C674.443 489.355 675.945 491.991 678.462 491.991H690.092L675.793 519.002C674.727 521.186 677.476 523.212 679.162 521.485L718.051 482.416C720.034 480.383 718.626 476.91 715.818 476.91H698.232L705.589 449.388C706.164 447.039 703.11 445.661 701.803 447.663Z" fill="white"/>
<path fill-rule="evenodd" clip-rule="evenodd" d="M378.671 931.023L331.914 1077.91H360.182L406.94 931.023H378.671Z" fill="#5736FF"/>
<path fill-rule="evenodd" clip-rule="evenodd" d="M311.997 947.723H281.988H263.071C261.595 947.723 260.399 948.919 260.399 950.395V969.312V1039.62V1058.54C260.399 1060.01 261.595 1061.21 263.071 1061.21H281.988H311.997C313.472 1061.21 314.669 1060.01 314.669 1058.54V1042.29C314.669 1040.82 313.472 1039.62 311.997 1039.62H281.988V969.312H311.997C313.472 969.312 314.669 968.116 314.669 966.64V950.395C314.669 948.919 313.472 947.723 311.997 947.723Z" fill="#CCD7EE"/>
<path fill-rule="evenodd" clip-rule="evenodd" d="M475.783 947.723H456.866H426.857C425.381 947.723 424.185 948.919 424.185 950.395V966.64C424.185 968.116 425.381 969.312 426.857 969.312H456.866V1039.62H426.857C425.381 1039.62 424.185 1040.82 424.185 1042.29V1058.54C424.185 1060.01 425.381 1061.21 426.857 1061.21H456.866H475.783C477.259 1061.21 478.455 1060.01 478.455 1058.54V1042.29V966.64V950.395C478.455 948.919 477.259 947.723 475.783 947.723Z" fill="#CCD7EE"/>
<path d="M1242.94 845.062H1228.06C1219.23 845.062 1212.06 852.226 1212.06 861.062L1212.06 875.937C1212.06 884.774 1219.23 891.938 1228.06 891.938H1242.94C1251.77 891.938 1258.94 884.774 1258.94 875.938V861.062C1258.94 852.226 1251.77 845.062 1242.94 845.062Z" fill="#5736FF"/>
<path d="M1103.25 561C1103.25 568.594 1109.41 574.75 1117 574.75C1124.59 574.75 1130.75 568.594 1130.75 561C1130.75 553.406 1124.59 547.25 1117 547.25C1109.41 547.25 1103.25 553.406 1103.25 561Z" fill="#5736FF"/>
<path d="M1191.81 662.125H1133.19C1124.35 662.125 1117.19 669.288 1117.19 678.125L1117.19 739.875C1117.19 748.712 1124.35 755.875 1133.19 755.875H1191.81C1200.65 755.875 1207.81 748.712 1207.81 739.875V678.125C1207.81 669.288 1200.65 662.125 1191.81 662.125Z" fill="#5736FF"/>
<path fill-rule="evenodd" clip-rule="evenodd" d="M1276.62 978.993C1317.77 959.53 1342.29 1010.57 1321.6 1039C1296.34 1073.68 1283.41 1113.58 1276.2 1125.61C1270.13 1135.75 1253.48 1160.48 1233.44 1149.08C1214.99 1138.59 1225.04 1097.42 1225.04 1097.42C1225.04 1097.42 1225.86 1003 1276.62 978.993Z" fill="#5B8C00"/>
<path fill-rule="evenodd" clip-rule="evenodd" d="M1152.85 1141.15C1138.86 1122.28 1133.76 1095.2 1149.37 1088.25C1164.34 1081.59 1189.14 1097.99 1200.62 1129.54C1212.11 1161.09 1218.74 1183.78 1207.5 1187.73C1189.07 1194.2 1171.33 1166.08 1152.85 1141.15Z" fill="#5B8C00"/>
<path fill-rule="evenodd" clip-rule="evenodd" d="M1299.92 1142.59C1284.1 1161.13 1261.27 1198.43 1246.96 1185.36C1238.29 1177.45 1249.88 1139.96 1281.61 1119.56C1308.59 1102.2 1315.74 1124.05 1299.92 1142.59Z" fill="#7CB305"/>
<path fill-rule="evenodd" clip-rule="evenodd" d="M1148.52 1013.92C1154.53 1009.87 1162.1 1008.94 1169.01 1011.16C1178.65 1014.24 1193.27 1023.44 1207.75 1049.82C1226.65 1084.27 1236.49 1122.03 1234.55 1145.95C1233.27 1161.6 1214 1168.34 1203.22 1156.93C1198.27 1151.7 1193.03 1143.62 1187.9 1131.37C1167.27 1082.07 1147.99 1051.18 1145.69 1048.08C1139.55 1039.8 1135.16 1022.9 1148.52 1013.92Z" fill="#7CB305"/>
<path fill-rule="evenodd" clip-rule="evenodd" d="M1162.35 1033.58C1162.56 1036.01 1160.75 1038.15 1158.31 1038.36C1155.88 1038.56 1153.74 1036.75 1153.54 1034.32C1153.33 1031.89 1155.14 1029.75 1157.58 1029.54C1160.01 1029.34 1162.15 1031.15 1162.35 1033.58Z" fill="white"/>
<path fill-rule="evenodd" clip-rule="evenodd" d="M1199.92 1052.46C1200.12 1054.9 1198.31 1057.04 1195.88 1057.24C1193.44 1057.44 1191.31 1055.64 1191.1 1053.2C1190.9 1050.77 1192.71 1048.63 1195.14 1048.43C1197.57 1048.22 1199.71 1050.03 1199.92 1052.46Z" fill="white"/>
<path fill-rule="evenodd" clip-rule="evenodd" d="M1193.62 1102.74C1193.85 1105.53 1191.78 1107.97 1189 1108.21C1186.21 1108.44 1183.76 1106.37 1183.53 1103.58C1183.29 1100.8 1185.36 1098.35 1188.15 1098.11C1190.94 1097.88 1193.39 1099.95 1193.62 1102.74Z" fill="white"/>
<path fill-rule="evenodd" clip-rule="evenodd" d="M1309 1027.6C1309 1031.56 1305.79 1034.77 1301.84 1034.77C1297.88 1034.77 1294.68 1031.56 1294.68 1027.6C1294.68 1023.65 1297.88 1020.44 1301.84 1020.44C1305.79 1020.44 1309 1023.65 1309 1027.6Z" fill="white"/>
<path fill-rule="evenodd" clip-rule="evenodd" d="M1251.34 1049.48C1251.34 1053.43 1248.13 1056.64 1244.18 1056.64C1240.22 1056.64 1237.02 1053.43 1237.02 1049.48C1237.02 1045.52 1240.22 1042.31 1244.18 1042.31C1248.13 1042.31 1251.34 1045.52 1251.34 1049.48Z" fill="white"/>
<path fill-rule="evenodd" clip-rule="evenodd" d="M1270.02 1098.1C1270.02 1099.75 1268.67 1101.09 1267.02 1101.09C1265.37 1101.09 1264.03 1099.75 1264.03 1098.1C1264.03 1096.44 1265.37 1095.1 1267.02 1095.1C1268.67 1095.1 1270.02 1096.44 1270.02 1098.1Z" fill="white"/>
<path fill-rule="evenodd" clip-rule="evenodd" d="M1291.58 1136.38C1291.58 1138.83 1289.6 1140.81 1287.16 1140.81C1284.72 1140.81 1282.74 1138.83 1282.74 1136.38C1282.74 1133.94 1284.72 1131.96 1287.16 1131.96C1289.6 1131.96 1291.58 1133.94 1291.58 1136.38Z" fill="white"/>
<path d="M1188.28 1146.19C1188.7 1145.8 1189.35 1145.81 1189.74 1146.23L1189.93 1146.43L1190.07 1146.59C1190.33 1146.88 1190.63 1147.22 1190.97 1147.63C1191.93 1148.77 1193 1150.14 1194.14 1151.72C1197.41 1156.25 1200.67 1161.64 1203.72 1167.9C1212.4 1185.77 1217.61 1206.99 1217.61 1231.49C1217.61 1232.06 1217.15 1232.52 1216.58 1232.52C1216.01 1232.52 1215.55 1232.06 1215.55 1231.49C1215.55 1207.31 1210.41 1186.4 1201.86 1168.8C1198.87 1162.65 1195.67 1157.36 1192.47 1152.93C1191.42 1151.48 1190.44 1150.21 1189.56 1149.15L1189.39 1148.95C1189.14 1148.65 1188.91 1148.39 1188.71 1148.16L1188.45 1147.87C1188.35 1147.76 1188.29 1147.69 1188.25 1147.65C1187.86 1147.24 1187.87 1146.58 1188.28 1146.19Z" fill="#253368"/>
<path d="M1266.19 1153.41C1266.54 1152.95 1267.18 1152.86 1267.64 1153.2C1268.09 1153.54 1268.19 1154.19 1267.85 1154.64C1264.09 1159.67 1260.63 1165.08 1257.44 1170.82C1250.7 1182.94 1245.49 1195.93 1241.62 1208.93C1240.27 1213.47 1239.18 1217.7 1238.33 1221.48L1238.16 1222.26C1237.96 1223.19 1237.78 1224.03 1237.64 1224.79L1237.54 1225.29L1237.37 1226.22C1237.27 1226.78 1236.74 1227.16 1236.18 1227.07C1235.62 1226.97 1235.24 1226.44 1235.33 1225.88L1235.39 1225.55C1235.44 1225.28 1235.5 1224.96 1235.57 1224.6L1235.74 1223.74C1235.91 1222.92 1236.1 1222.02 1236.32 1221.03L1236.51 1220.21C1237.34 1216.59 1238.38 1212.61 1239.65 1208.34C1243.55 1195.21 1248.82 1182.08 1255.64 1169.81C1258.87 1164 1262.38 1158.52 1266.19 1153.41Z" fill="#253368"/>
<path d="M1284.22 1024.75C1284.61 1025.13 1284.64 1025.74 1284.29 1026.16L1284.25 1026.21C1284.23 1026.23 1284.18 1026.27 1284.12 1026.35L1283.86 1026.62L1283.72 1026.79C1283.27 1027.28 1282.76 1027.88 1282.17 1028.57C1280.5 1030.57 1278.64 1032.97 1276.63 1035.79C1270.89 1043.83 1265.14 1053.52 1259.77 1064.87C1250.83 1083.76 1243.86 1105.3 1239.64 1129.52C1234.52 1158.93 1233.67 1191.06 1237.86 1225.93C1237.93 1226.49 1237.53 1227.01 1236.96 1227.07C1236.4 1227.14 1235.89 1226.74 1235.82 1226.17C1231.6 1191.1 1232.45 1158.77 1237.61 1129.17C1241.86 1104.76 1248.88 1083.04 1257.9 1063.99C1263.32 1052.53 1269.14 1042.73 1274.95 1034.59L1275.41 1033.96C1277.2 1031.48 1278.88 1029.32 1280.4 1027.48L1280.59 1027.25C1281.14 1026.59 1281.63 1026.02 1282.06 1025.54L1282.18 1025.41C1282.32 1025.26 1282.44 1025.12 1282.54 1025.01L1282.76 1024.78C1283.15 1024.37 1283.8 1024.35 1284.22 1024.75Z" fill="#253368"/>
<path d="M1194.95 1085.9C1195.44 1085.61 1196.07 1085.76 1196.37 1086.25L1196.47 1086.42C1196.56 1086.56 1196.65 1086.73 1196.76 1086.92L1196.92 1087.21C1197.2 1087.69 1197.51 1088.25 1197.85 1088.88L1198.14 1089.41C1199.19 1091.36 1200.34 1093.62 1201.56 1096.18L1201.73 1096.53C1205.73 1104.92 1209.74 1114.72 1213.47 1125.87C1223.92 1157.07 1230.28 1192.49 1230.52 1231.48C1230.52 1232.05 1230.06 1232.52 1229.5 1232.52C1228.93 1232.52 1228.46 1232.06 1228.46 1231.49C1228.22 1192.73 1221.9 1157.53 1211.51 1126.52C1207.88 1115.66 1203.98 1106.08 1200.09 1097.87L1199.87 1097.42C1198.54 1094.63 1197.3 1092.19 1196.18 1090.12L1195.84 1089.5C1195.52 1088.91 1195.23 1088.4 1194.98 1087.95L1194.85 1087.74L1194.61 1087.32C1194.31 1086.83 1194.47 1086.2 1194.95 1085.9Z" fill="#253368"/>
<path fill-rule="evenodd" clip-rule="evenodd" d="M1274.32 1282.64H1185.18C1180.36 1282.64 1176.42 1278.7 1176.42 1273.88V1208.85C1176.42 1204.03 1180.36 1200.09 1185.18 1200.09H1274.32C1279.14 1200.09 1283.08 1204.03 1283.08 1208.85V1273.88C1283.08 1278.7 1279.14 1282.64 1274.32 1282.64Z" fill="#253368"/>
<rect x="343" y="1284" width="1019" height="205" rx="30" fill="#4E5C93"/>
</svg>
